{"glyphs":{"0":{"ha":1198,"x_min":-167,"x_max":1127,"o":"m 1127 587 q 1112 421 1127 502 q 1074 259 1096 340 q 1051 229 1059 244 q 1044 191 1043 213 q 1023 172 1028 187 q 1010 142 1017 156 q 970 108 987 127 q 935 69 954 88 q 924 57 929 64 q 914 46 920 50 q 887 29 902 37 q 860 14 872 22 q 807 -24 833 -4 q 757 -66 781 -43 q 645 -119 699 -90 q 538 -183 591 -148 l 505 -183 q 472 -201 487 -194 q 437 -208 457 -208 q 377 -237 410 -225 q 311 -258 345 -248 q 243 -275 277 -267 q 179 -294 209 -283 q 166 -291 172 -293 q 153 -289 160 -289 q 119 -297 134 -289 q 85 -309 103 -305 q 73 -311 80 -312 q 61 -311 66 -311 q -3 -299 26 -311 q -64 -281 -31 -288 q -87 -247 -72 -263 l -117 -214 q -143 -181 -132 -198 q -157 -144 -155 -164 l -157 -130 q -160 -100 -157 -115 q -167 -71 -163 -85 q -148 -19 -157 -46 q -127 35 -138 8 q -103 85 -117 61 q -69 127 -90 110 q -48 182 -62 157 q -17 231 -34 208 q 16 279 0 255 q 43 332 33 304 q 52 335 50 331 q 56 344 54 339 q 61 351 58 349 q 72 351 64 354 q 77 374 72 365 q 89 391 83 382 q 100 408 95 399 q 106 429 104 416 q 121 441 115 433 q 133 458 127 449 q 144 475 138 467 q 160 487 149 483 q 170 517 163 505 q 186 541 178 530 q 204 564 195 552 q 218 590 213 575 q 237 594 227 597 q 282 666 256 632 q 335 732 308 700 q 389 798 362 765 q 437 868 416 831 q 473 895 456 879 q 500 930 490 910 q 453 1030 473 982 q 433 1139 433 1078 q 434 1158 433 1149 q 437 1179 435 1168 q 481 1231 460 1210 q 545 1252 503 1252 q 625 1237 586 1252 q 704 1222 663 1222 q 745 1196 724 1207 q 789 1173 766 1184 l 807 1166 q 826 1160 818 1164 q 843 1147 834 1154 q 860 1134 852 1141 q 961 1037 914 1089 q 1054 930 1008 985 l 1054 928 q 1063 895 1054 906 q 1084 868 1073 883 q 1090 825 1084 844 q 1108 785 1097 806 q 1109 747 1108 766 q 1115 708 1109 727 q 1122 688 1120 694 q 1127 639 1127 669 l 1127 587 m 1017 589 q 1013 661 1017 628 q 1001 732 1008 694 q 988 798 996 765 q 966 860 981 830 q 930 914 952 890 q 875 956 907 939 l 871 956 q 862 950 867 956 q 842 944 857 944 q 827 947 834 944 q 812 949 819 951 l 807 949 q 779 937 791 941 q 747 936 766 933 q 705 901 727 917 q 655 878 682 886 q 624 835 643 853 q 578 810 605 817 q 562 782 572 793 q 540 762 552 770 q 514 745 528 753 q 490 727 500 736 q 473 705 479 716 q 456 684 467 693 q 429 658 441 670 q 407 629 418 646 q 389 600 397 614 q 378 566 380 585 q 316 506 339 543 l 270 433 q 251 408 260 419 l 232 387 q 227 374 228 381 q 228 361 227 368 q 195 329 209 347 q 170 290 182 311 q 146 250 159 270 q 115 216 133 231 q 90 161 104 189 q 53 114 76 133 q 9 1 30 57 q -20 -115 -12 -54 q -1 -132 -11 -125 q 18 -149 8 -140 q 23 -151 19 -151 q 33 -146 30 -151 q 42 -142 37 -142 q 45 -142 45 -142 l 47 -144 q 56 -157 49 -153 q 72 -163 62 -161 q 91 -167 81 -165 q 106 -174 100 -168 q 172 -159 136 -164 q 245 -149 209 -155 q 315 -132 281 -142 q 373 -100 349 -121 l 388 -100 q 407 -106 401 -100 q 458 -66 433 -80 q 519 -52 484 -53 q 637 25 571 -4 q 762 90 703 54 q 769 100 769 92 q 776 109 769 107 q 787 109 783 110 q 798 109 792 109 q 889 203 845 155 q 967 308 933 251 q 969 325 967 317 q 971 339 971 332 q 970 345 971 342 q 967 351 968 349 q 1006 467 994 406 q 1017 589 1017 529 m 704 1077 q 662 1099 686 1089 q 616 1109 637 1109 q 583 1097 593 1109 q 572 1062 572 1084 q 579 1042 572 1050 q 582 1015 586 1035 q 593 1012 586 1012 q 624 1019 609 1012 q 652 1036 639 1025 q 677 1057 665 1046 q 704 1077 690 1069 z "},"1":{"ha":754,"x_min":187,"x_max":560,"o":"m 560 1181 q 553 1129 560 1154 q 543 1077 547 1104 q 541 1067 541 1074 q 543 1052 541 1059 q 547 1038 544 1044 q 526 980 533 1010 q 514 918 519 949 l 503 856 q 488 795 498 825 l 488 791 q 492 779 488 784 q 495 766 495 773 l 495 761 q 468 644 477 704 q 437 532 458 583 q 439 511 439 518 q 436 485 439 496 q 427 464 433 473 l 418 446 q 411 429 414 438 q 410 418 410 423 l 410 407 q 407 353 408 376 q 388 302 406 330 q 380 235 387 267 q 363 168 374 202 q 347 114 357 141 q 334 60 338 87 q 333 26 331 46 q 335 -8 335 7 q 333 -70 335 -39 q 324 -129 331 -100 q 339 -166 328 -149 q 353 -203 350 -183 q 361 -208 357 -208 q 367 -206 363 -208 q 374 -205 370 -205 q 382 -208 380 -205 q 387 -227 387 -218 q 372 -255 387 -243 q 373 -269 373 -263 l 373 -282 q 371 -307 373 -292 q 355 -321 369 -321 q 349 -314 349 -321 q 343 -304 350 -307 q 330 -307 335 -307 q 312 -302 319 -307 l 298 -294 q 284 -287 292 -290 q 266 -285 277 -283 q 242 -246 255 -264 q 213 -213 229 -228 q 201 -146 203 -180 q 187 -80 199 -111 q 191 -72 189 -79 l 197 -58 q 201 -45 199 -52 q 203 -35 203 -38 q 201 -21 203 -27 q 197 -8 198 -15 q 209 60 206 23 q 227 123 212 96 q 229 155 228 137 q 234 191 231 174 q 243 223 237 208 q 262 250 250 239 q 258 265 259 256 q 258 281 258 274 q 265 344 258 313 q 282 406 273 374 q 288 425 285 415 q 294 445 292 434 q 295 450 296 448 q 294 456 294 453 q 290 487 294 472 q 301 501 298 492 q 306 520 304 510 q 311 540 308 530 q 320 556 313 549 l 320 563 q 334 656 320 610 q 358 746 347 701 l 358 751 q 355 760 358 757 q 353 768 353 762 l 353 770 q 359 794 355 783 q 366 818 363 806 q 375 878 373 848 q 388 936 377 907 q 385 958 385 947 l 385 979 q 389 1040 385 1010 q 399 1099 392 1069 q 406 1127 401 1109 q 411 1154 411 1145 q 407 1187 411 1171 q 403 1221 403 1204 q 404 1237 403 1229 q 411 1252 406 1245 q 401 1293 401 1270 q 407 1331 401 1312 q 426 1364 412 1351 l 467 1364 q 505 1359 486 1364 q 533 1335 524 1354 q 539 1320 536 1331 q 546 1299 543 1310 q 552 1277 549 1287 q 555 1261 555 1267 q 547 1232 555 1245 q 558 1208 556 1221 q 560 1181 560 1195 z "},"2":{"ha":1048,"x_min":56,"x_max":1451,"o":"m 1451 7 q 1431 -8 1443 -4 q 1407 -15 1419 -12 q 1381 -21 1394 -18 q 1359 -33 1369 -24 q 1356 -35 1356 -34 q 1352 -37 1355 -37 q 1345 -31 1348 -37 q 1335 -22 1341 -24 q 1259 -55 1299 -41 q 1178 -85 1218 -69 q 1100 -119 1138 -100 q 1034 -164 1062 -137 q 989 -174 1012 -167 q 956 -203 967 -182 l 952 -203 q 944 -200 947 -203 q 936 -197 941 -197 q 924 -202 926 -197 q 920 -214 921 -208 q 918 -225 920 -220 q 910 -231 917 -231 q 905 -226 907 -231 q 891 -222 902 -221 q 787 -277 841 -250 q 693 -349 732 -305 q 686 -346 690 -346 q 682 -346 684 -346 l 681 -347 q 677 -346 678 -347 q 674 -345 675 -345 q 608 -394 643 -372 q 538 -438 574 -416 q 469 -482 503 -460 q 406 -533 435 -505 q 368 -541 387 -534 q 330 -555 349 -548 q 293 -568 312 -562 q 255 -574 274 -574 q 197 -543 220 -574 q 189 -547 193 -545 q 182 -548 186 -548 q 162 -539 171 -548 q 138 -533 153 -530 q 113 -485 121 -514 q 95 -431 106 -456 q 113 -329 98 -378 q 133 -227 129 -279 q 152 -199 145 -214 q 165 -166 159 -183 q 178 -133 171 -149 q 197 -106 184 -117 q 224 -28 205 -65 q 250 50 243 8 q 268 66 260 57 q 285 84 275 76 l 285 92 q 279 109 285 103 q 300 155 289 133 q 323 198 312 176 q 342 243 334 220 q 353 293 350 266 q 369 317 363 302 q 379 345 374 331 q 390 372 384 359 q 411 391 396 384 q 410 397 410 393 q 417 422 410 411 q 425 445 425 433 q 420 458 425 452 q 473 570 448 515 q 513 688 499 625 q 529 708 526 694 q 541 732 532 722 l 541 739 q 551 791 541 762 q 576 838 562 819 q 592 938 583 886 q 620 1034 601 990 q 612 1053 617 1043 q 605 1073 608 1062 q 528 1039 571 1054 q 510 1034 519 1036 q 494 1028 500 1032 q 484 1015 486 1025 q 483 998 483 1005 q 457 991 467 998 q 439 976 448 985 q 420 960 430 967 q 396 949 411 952 q 369 924 380 933 q 338 907 358 916 q 324 897 331 905 l 311 880 q 298 867 304 872 q 285 863 292 861 q 273 842 281 850 q 258 827 266 834 q 244 810 250 819 q 240 785 239 800 q 231 780 235 780 q 221 785 227 780 q 211 759 218 769 q 194 741 203 749 q 174 724 184 732 q 153 707 163 716 q 132 712 141 708 q 114 720 123 716 q 94 726 104 724 q 69 727 84 728 q 66 739 71 735 q 56 746 62 743 q 56 773 56 757 q 58 806 57 789 q 61 838 58 823 q 69 863 64 853 q 96 887 77 876 q 135 909 114 898 q 176 934 156 921 q 208 966 195 947 q 213 964 209 964 q 231 970 224 964 q 249 987 237 982 q 270 1004 260 993 q 275 1014 274 1008 q 279 1024 275 1020 q 295 1032 283 1028 q 313 1043 307 1036 q 326 1058 321 1050 q 338 1073 331 1066 q 361 1085 349 1081 q 387 1096 374 1089 q 409 1115 399 1104 q 425 1141 419 1126 q 477 1166 452 1153 q 528 1194 503 1179 q 553 1212 541 1202 q 578 1232 566 1222 q 606 1248 591 1241 q 636 1255 620 1255 q 667 1247 656 1255 q 687 1231 678 1240 q 706 1213 696 1222 q 732 1199 716 1203 q 751 1152 746 1177 q 757 1101 755 1127 q 758 1048 758 1074 q 761 998 757 1023 q 742 954 753 975 q 731 907 731 932 q 732 891 731 898 l 716 891 q 696 804 711 846 q 662 719 681 761 l 625 636 q 595 552 608 595 q 586 538 593 540 q 576 526 579 536 q 566 494 570 511 q 555 460 562 476 q 528 392 541 425 q 499 328 514 359 l 499 315 q 503 308 499 308 q 445 172 460 248 q 429 153 434 164 q 415 133 425 141 q 390 56 406 94 q 358 -18 374 19 q 327 -92 342 -54 q 304 -168 312 -129 q 280 -201 289 -182 q 265 -241 271 -220 q 254 -285 259 -263 q 244 -324 250 -307 l 231 -373 l 231 -400 q 229 -415 231 -407 q 221 -426 228 -423 q 229 -441 224 -435 q 231 -456 233 -446 q 250 -469 236 -467 q 275 -475 264 -471 q 288 -463 286 -472 q 294 -446 289 -453 q 332 -411 307 -430 q 386 -372 357 -392 q 443 -333 415 -351 q 488 -300 471 -315 l 513 -300 q 610 -239 562 -269 q 712 -187 659 -210 q 745 -160 726 -170 q 786 -142 765 -151 q 827 -123 807 -133 q 859 -96 846 -114 q 891 -90 873 -94 q 917 -71 909 -85 l 922 -71 q 930 -73 926 -71 q 936 -80 935 -75 q 947 -68 945 -77 q 956 -52 949 -58 q 1036 -20 996 -37 q 1116 16 1077 -4 q 1159 22 1135 16 q 1195 46 1183 27 q 1202 45 1198 45 q 1231 50 1217 45 q 1260 60 1245 54 q 1290 72 1275 66 q 1321 79 1305 77 l 1324 79 q 1326 86 1326 79 q 1325 95 1325 94 q 1331 99 1325 100 q 1344 100 1335 100 q 1372 94 1359 100 q 1397 80 1385 88 q 1421 63 1409 72 q 1447 50 1434 54 q 1444 33 1444 39 q 1447 20 1444 26 q 1451 7 1449 14 z "},"3":{"ha":1252,"x_min":0,"x_max":1181,"o":"m 1181 526 q 1173 469 1181 495 q 1156 412 1165 442 l 1149 391 q 1122 354 1139 373 q 1092 320 1105 335 q 1029 249 1061 285 q 974 172 998 213 l 971 172 q 964 170 967 172 q 958 163 960 167 q 952 158 955 160 q 944 157 949 156 q 913 123 935 134 q 876 95 892 111 q 871 77 875 84 q 867 60 867 69 q 775 -6 818 31 q 692 -80 732 -43 q 650 -102 666 -87 q 618 -134 635 -117 q 549 -172 583 -152 q 487 -222 514 -193 q 428 -248 456 -231 q 372 -283 400 -266 q 355 -292 363 -289 q 336 -300 346 -296 q 327 -313 327 -304 l 321 -313 q 306 -320 311 -313 q 288 -326 301 -327 q 254 -349 273 -340 l 216 -366 q 178 -386 197 -376 q 146 -412 160 -396 q 105 -426 123 -415 q 64 -437 87 -437 l 58 -437 q 40 -420 50 -427 q 21 -405 30 -412 q 6 -387 12 -397 q 0 -361 0 -377 l 0 -354 q 107 -281 64 -328 q 111 -280 110 -281 q 115 -279 113 -279 q 127 -281 122 -279 q 138 -283 133 -283 q 146 -281 141 -283 q 204 -255 176 -271 q 258 -222 232 -239 q 312 -189 285 -205 q 369 -164 339 -174 q 458 -96 412 -129 q 556 -38 505 -64 q 566 -21 560 -27 q 570 -3 572 -15 q 576 -4 572 -4 q 594 1 587 -4 q 635 33 616 16 q 674 66 655 50 q 757 138 715 102 q 842 206 799 175 q 853 227 845 220 q 861 250 861 235 q 889 272 879 256 q 920 293 899 288 q 943 334 930 315 q 978 361 955 353 q 996 400 986 382 q 1015 435 1006 418 q 1031 471 1024 452 q 1038 517 1038 490 q 1019 558 1038 547 q 974 574 1000 570 q 920 581 948 578 q 876 594 892 583 q 870 583 868 593 q 867 571 872 574 l 853 571 q 818 566 836 571 l 784 556 q 750 548 768 552 q 715 545 732 544 q 669 521 689 532 q 630 500 650 510 q 588 483 610 491 q 536 468 566 475 q 517 458 521 465 q 502 445 513 452 q 490 455 495 449 q 477 464 484 461 q 466 456 471 463 q 457 444 461 450 q 449 433 453 438 q 439 429 445 429 q 417 436 427 429 q 399 453 407 444 q 382 473 391 463 q 365 487 374 483 q 370 515 370 500 q 369 541 370 529 q 399 576 385 559 q 433 604 412 594 q 500 686 469 647 q 555 766 532 724 q 595 854 579 807 q 614 960 610 901 q 619 975 614 970 q 624 989 624 981 q 619 1012 624 1002 q 608 1029 614 1021 q 597 1044 602 1036 q 594 1066 593 1053 q 545 1085 572 1085 q 521 1080 534 1085 q 493 1067 507 1074 q 465 1052 479 1061 q 444 1038 452 1043 q 428 1026 435 1032 q 414 1015 420 1020 q 353 962 382 987 q 297 907 324 936 l 297 882 q 277 871 285 879 q 266 851 270 863 q 259 827 262 840 q 252 804 256 814 l 254 800 l 254 798 q 251 796 254 796 q 247 798 250 796 q 241 800 244 800 l 239 800 q 203 753 228 769 q 152 722 178 736 q 105 742 126 728 q 64 770 84 755 q 54 814 54 789 q 61 861 54 838 q 73 907 68 883 q 107 945 94 924 q 135 989 121 967 q 166 1029 149 1010 q 210 1057 183 1047 q 244 1095 224 1078 q 287 1126 264 1112 q 331 1156 309 1141 q 369 1190 353 1171 l 395 1190 q 411 1209 399 1203 q 436 1220 423 1215 q 460 1232 449 1225 q 472 1257 471 1240 q 477 1252 477 1259 q 505 1256 490 1256 q 539 1252 522 1256 q 572 1248 556 1248 q 598 1252 586 1248 q 606 1240 600 1244 q 621 1235 612 1237 q 638 1232 629 1233 q 652 1227 647 1232 q 661 1212 651 1214 q 677 1203 671 1210 q 683 1187 682 1196 q 692 1169 684 1177 l 707 1153 q 722 1137 715 1146 q 760 1053 746 1103 q 773 960 773 1002 q 770 945 773 958 q 766 929 768 932 q 723 800 751 860 q 662 678 694 739 q 677 676 670 677 q 692 675 685 675 q 747 684 722 675 q 799 703 772 692 q 829 699 812 699 q 873 703 852 699 q 917 707 894 707 q 941 701 929 707 q 967 696 952 696 q 987 697 981 696 q 1034 675 1009 686 q 1083 652 1059 665 q 1128 625 1107 640 q 1165 589 1149 609 q 1172 580 1168 586 q 1177 571 1176 574 q 1181 549 1180 566 q 1181 526 1181 533 z "},"4":{"ha":899,"x_min":42,"x_max":829,"o":"m 829 1383 q 811 1205 825 1294 q 781 1028 798 1116 q 747 852 764 940 q 722 674 731 764 q 736 677 732 677 q 773 665 751 677 q 810 648 795 654 l 810 636 q 815 629 810 629 l 815 625 q 806 595 815 606 q 796 566 798 583 q 770 550 784 557 q 747 532 757 543 q 741 515 742 525 q 732 498 739 506 q 713 481 726 487 q 693 464 700 475 q 689 442 688 454 q 684 419 690 430 q 671 408 678 412 q 659 396 663 404 q 651 361 652 381 q 644 323 650 340 q 636 296 642 308 q 631 270 631 283 l 631 262 q 625 254 631 255 q 616 254 620 254 q 597 60 608 156 q 586 -133 586 -35 l 586 -182 q 593 -193 586 -190 q 601 -205 601 -195 q 600 -215 601 -210 q 600 -225 600 -220 q 609 -271 600 -248 q 624 -317 618 -294 l 631 -354 q 642 -378 633 -366 q 661 -401 651 -389 q 678 -429 670 -414 q 689 -465 686 -445 q 655 -488 678 -481 q 616 -505 632 -494 q 610 -478 617 -487 q 592 -463 602 -469 q 571 -452 582 -457 q 553 -437 560 -446 q 507 -347 525 -396 q 477 -244 488 -297 q 463 -138 467 -191 q 458 -38 458 -85 l 458 0 q 460 37 458 18 q 465 79 461 58 q 465 123 468 100 q 492 231 484 174 q 505 342 499 289 q 430 316 471 335 q 362 274 389 297 q 330 283 346 283 q 281 273 304 283 q 233 263 259 263 q 218 264 224 263 q 209 269 213 266 q 200 274 205 271 q 187 279 195 277 q 137 300 159 289 q 99 326 115 311 q 71 363 83 342 q 52 416 60 385 q 45 446 49 430 q 42 477 42 463 q 47 510 42 488 q 53 552 53 532 q 51 572 53 562 q 42 590 49 583 q 60 641 54 614 q 72 695 66 667 q 84 749 77 723 q 106 800 91 776 q 113 888 104 850 q 144 970 121 925 l 144 974 q 149 1016 144 998 q 163 1049 155 1034 q 180 1080 171 1065 q 197 1115 190 1095 q 229 1130 212 1126 q 264 1134 245 1134 q 320 1124 293 1134 q 333 1103 327 1114 q 339 1077 339 1092 q 334 1057 339 1065 q 322 1042 330 1048 q 307 1029 315 1036 q 294 1015 300 1023 q 273 968 281 994 q 259 915 264 943 q 248 860 254 887 q 236 810 243 833 q 229 795 233 802 q 222 780 225 788 q 215 730 214 757 q 213 678 216 703 q 203 611 209 644 q 197 543 197 578 q 205 475 197 507 q 236 415 214 444 q 248 418 244 418 q 264 413 256 418 q 281 406 273 408 q 327 416 305 411 q 368 439 349 420 q 375 439 370 439 q 382 438 380 438 q 410 446 399 438 q 434 461 422 453 q 460 476 446 469 q 495 483 475 483 q 519 505 506 496 q 543 526 532 513 q 555 605 548 562 q 582 678 562 648 q 581 692 581 685 l 581 705 q 593 812 581 760 q 605 917 606 864 q 622 940 616 926 q 632 968 628 954 q 641 998 636 983 q 654 1024 646 1012 q 651 1040 651 1031 q 644 1053 651 1048 q 655 1074 647 1062 q 663 1096 663 1086 q 663 1109 663 1103 q 662 1123 662 1116 q 667 1150 662 1138 q 680 1173 671 1162 q 675 1202 675 1187 q 688 1264 675 1234 q 700 1326 700 1294 l 700 1335 q 699 1344 700 1340 q 713 1377 708 1363 q 718 1412 719 1390 q 736 1416 727 1416 q 782 1402 758 1416 q 829 1383 806 1389 z "},"5":{"ha":1210,"x_min":27,"x_max":1099,"o":"m 1099 1358 q 1089 1335 1096 1345 q 1080 1310 1082 1324 q 1046 1305 1062 1310 q 1025 1280 1029 1299 l 1021 1280 q 1013 1286 1015 1280 q 1004 1291 1010 1291 l 1002 1291 l 1001 1290 q 947 1272 974 1282 q 892 1255 920 1263 q 779 1218 836 1236 q 670 1173 723 1200 l 640 1173 q 471 1081 559 1120 q 300 994 384 1042 q 278 966 290 979 q 251 940 266 954 q 259 918 259 933 q 255 882 259 899 q 251 848 251 865 q 255 831 251 837 q 267 819 259 826 q 260 804 264 811 l 252 792 q 245 777 248 787 q 241 751 241 768 q 232 640 241 694 q 222 529 222 586 q 228 468 222 495 q 245 477 237 472 q 264 488 254 483 q 280 494 273 492 q 296 498 288 495 q 301 507 302 500 q 305 517 300 514 q 317 520 309 519 q 330 524 324 521 q 349 530 340 526 q 369 536 358 533 q 454 572 412 552 q 543 594 495 593 q 560 608 549 604 q 583 616 571 613 q 607 623 595 620 q 627 635 618 627 q 726 651 675 646 q 829 656 777 656 q 883 652 856 656 q 928 631 906 640 q 972 610 949 621 q 1018 580 996 597 q 1059 541 1040 563 q 1090 487 1082 518 q 1097 425 1097 456 q 1097 401 1097 416 q 1094 370 1096 387 q 1089 339 1092 354 q 1084 317 1086 324 q 1063 279 1081 312 q 1023 209 1044 247 q 984 139 1002 171 q 963 104 966 107 q 953 100 960 102 q 943 99 945 99 q 932 75 940 84 q 917 56 925 65 q 901 37 909 47 q 894 11 894 27 q 876 1 883 8 q 860 -8 869 -5 q 817 -68 841 -41 q 765 -122 792 -96 l 712 -175 q 665 -232 686 -202 l 661 -232 q 645 -237 650 -231 q 631 -245 640 -244 q 626 -261 627 -252 q 627 -277 625 -270 l 601 -277 q 566 -309 586 -296 q 526 -334 547 -321 q 485 -359 505 -346 q 452 -393 465 -373 q 446 -392 450 -392 q 436 -396 439 -392 q 422 -397 433 -400 q 389 -430 401 -410 q 354 -461 377 -450 q 301 -435 328 -449 q 256 -397 274 -422 q 267 -358 266 -377 q 399 -279 334 -320 q 514 -178 464 -237 q 519 -179 515 -179 q 526 -177 524 -179 q 532 -175 529 -175 q 536 -176 534 -175 q 538 -178 537 -178 q 547 -158 540 -165 q 563 -143 555 -151 q 578 -128 571 -136 q 585 -110 585 -121 q 582 -96 585 -104 q 637 -56 613 -80 q 682 -6 661 -33 q 726 45 704 20 q 776 90 747 71 l 776 114 q 800 128 791 118 q 815 151 808 138 q 829 174 822 163 q 850 191 837 186 q 852 197 850 194 q 853 205 853 201 q 852 210 853 208 q 850 216 850 213 l 864 216 q 911 304 884 262 q 952 396 937 347 q 937 453 949 430 q 909 503 925 476 q 877 513 887 503 q 850 532 867 524 q 836 529 842 529 q 821 530 829 529 q 807 532 814 532 q 783 522 792 532 l 779 522 q 768 527 772 521 q 758 533 765 533 q 755 532 757 533 q 753 532 754 532 q 703 528 727 534 q 654 521 680 521 q 640 522 646 521 q 607 502 628 507 q 568 494 586 496 q 503 455 536 471 q 431 429 469 439 q 382 397 408 411 q 330 368 357 382 q 281 335 304 353 q 241 293 258 317 l 241 289 q 248 273 240 278 q 256 254 256 267 q 242 230 245 241 q 241 201 239 218 l 220 190 q 198 176 209 184 q 169 188 183 182 q 137 194 155 194 q 115 191 129 194 q 75 236 99 217 q 27 274 50 255 q 36 314 30 293 q 62 342 42 335 q 64 354 64 349 l 64 366 q 62 398 64 382 q 60 429 60 414 q 62 448 60 442 q 66 457 64 454 q 72 462 69 460 q 76 468 75 464 q 78 511 80 488 q 76 555 76 534 q 81 608 76 582 q 102 658 85 635 q 100 670 100 665 l 100 682 q 109 795 100 739 q 125 907 118 850 q 96 933 113 922 q 66 960 79 944 q 90 1024 71 1000 q 140 1073 110 1048 l 140 1077 q 136 1093 140 1085 q 133 1111 133 1101 q 134 1116 133 1114 q 134 1120 134 1118 q 174 1141 151 1131 q 216 1150 197 1150 q 237 1145 228 1150 q 397 1213 319 1175 q 450 1221 423 1214 q 495 1248 476 1227 q 525 1255 509 1252 q 557 1264 541 1259 q 588 1277 574 1270 q 612 1295 602 1284 q 633 1291 621 1291 q 667 1300 650 1291 q 694 1320 684 1309 q 701 1319 697 1320 q 708 1318 704 1318 q 732 1324 722 1318 q 753 1337 742 1329 q 777 1350 765 1344 q 807 1355 789 1355 l 815 1355 q 825 1354 821 1355 q 863 1367 844 1358 q 901 1377 882 1377 q 922 1369 914 1377 q 933 1383 926 1375 q 947 1393 940 1390 q 960 1396 952 1396 q 975 1398 968 1397 q 987 1404 982 1400 q 991 1416 991 1408 q 1002 1413 997 1413 q 1015 1418 1009 1413 q 1025 1427 1021 1423 q 1040 1417 1035 1424 q 1049 1403 1044 1411 q 1061 1390 1054 1396 q 1084 1388 1069 1385 q 1099 1358 1086 1370 z "},"6":{"ha":1227,"x_min":-27,"x_max":1131,"o":"m 1131 267 l 1131 250 q 1130 235 1131 241 q 1121 221 1127 232 q 1112 206 1115 210 q 1096 168 1101 186 q 1090 127 1090 151 q 1053 87 1070 109 q 1018 45 1035 66 q 982 5 1001 24 q 939 -27 963 -14 q 923 -51 933 -42 q 910 -76 913 -60 q 820 -145 865 -110 q 728 -212 774 -180 q 630 -271 681 -244 q 525 -313 579 -297 q 519 -316 524 -315 q 511 -317 514 -317 q 502 -309 505 -317 q 415 -340 463 -334 q 323 -346 368 -346 q 278 -345 300 -346 q 233 -345 256 -345 q 189 -319 212 -330 q 147 -295 167 -308 q 112 -264 127 -282 q 88 -217 96 -245 q 68 -201 76 -208 q 45 -197 61 -195 q 47 -187 43 -190 q 49 -178 50 -184 q 39 -170 46 -171 q 24 -168 31 -168 q -15 -37 -3 -104 q -27 99 -27 30 q -23 180 -27 140 q -9 259 -19 220 q 10 294 4 273 q 20 338 16 315 q 31 382 24 361 q 49 419 37 404 q 45 450 45 433 q 50 472 45 461 q 68 483 54 483 q 66 506 65 492 q 64 526 66 519 q 90 596 79 560 q 114 668 102 632 q 140 739 126 704 q 175 804 155 773 q 195 879 180 845 q 229 945 210 913 q 266 1008 247 977 q 297 1077 285 1040 q 311 1084 307 1078 q 319 1098 315 1090 q 328 1110 323 1105 q 346 1115 334 1115 q 358 1145 350 1131 q 376 1173 366 1160 q 394 1198 385 1185 q 408 1227 403 1211 q 451 1255 429 1242 q 494 1281 473 1267 q 530 1313 514 1295 q 555 1358 547 1331 q 634 1391 598 1370 q 709 1427 670 1412 q 723 1421 724 1427 q 722 1408 722 1416 q 726 1397 722 1401 q 751 1390 739 1390 q 773 1392 762 1390 q 796 1393 784 1393 l 808 1393 q 810 1382 810 1388 l 810 1371 q 790 1294 810 1333 q 739 1232 770 1255 l 739 1213 q 730 1209 734 1213 q 724 1202 727 1206 q 716 1195 720 1198 q 705 1194 712 1192 q 703 1179 703 1185 q 703 1171 703 1175 q 705 1164 704 1168 q 687 1168 694 1164 q 677 1183 680 1172 q 643 1195 662 1191 q 613 1213 624 1199 q 576 1191 598 1203 q 540 1169 553 1179 l 526 1154 q 494 1121 510 1135 q 472 1082 479 1107 q 399 1003 429 1047 q 355 907 370 959 q 340 890 345 902 q 321 878 336 878 l 321 875 q 324 867 321 869 q 327 859 327 864 l 327 853 l 323 853 q 313 852 317 853 q 307 849 309 850 q 296 806 304 827 q 281 765 289 785 q 267 724 273 745 q 263 684 262 704 q 252 674 254 681 q 243 663 250 667 q 235 624 243 643 q 220 585 228 605 q 206 547 212 566 q 205 507 201 528 q 189 475 193 492 q 182 439 184 457 q 177 402 180 420 q 161 370 174 384 q 151 316 159 340 q 132 264 144 292 q 138 237 138 254 q 137 218 138 228 q 136 198 136 209 q 141 172 136 183 q 175 216 168 182 q 210 231 197 220 q 236 254 224 241 q 262 278 248 267 q 297 293 277 289 q 369 363 330 332 q 448 425 408 393 l 452 425 q 490 437 469 425 q 521 464 511 449 l 524 464 q 531 461 528 464 q 538 458 534 458 l 544 458 q 562 471 553 465 q 579 483 570 477 q 637 511 606 500 q 700 532 669 521 q 740 546 720 540 q 783 552 760 552 q 821 547 802 552 q 860 541 840 541 q 886 545 871 541 q 976 506 932 528 q 1065 464 1020 484 l 1065 454 q 1065 444 1065 449 q 1072 435 1066 439 q 1081 423 1076 429 q 1092 411 1086 418 q 1122 341 1112 380 q 1131 267 1131 302 m 987 323 l 979 336 q 974 351 975 343 q 951 356 960 351 q 937 368 943 361 q 924 384 930 376 q 910 400 918 392 l 898 400 q 878 403 887 400 l 860 408 q 842 414 852 411 q 817 416 831 416 q 726 401 769 416 q 637 377 682 387 q 611 355 627 362 q 589 332 595 349 q 541 320 562 330 q 504 298 521 311 q 469 273 487 286 q 427 254 450 260 q 407 229 420 237 q 378 212 393 220 q 351 193 363 203 q 336 163 339 182 q 311 157 327 155 q 308 142 308 149 q 309 135 308 138 q 311 127 309 132 l 307 127 q 289 123 294 127 q 280 111 283 118 q 273 97 277 104 q 263 84 270 90 q 233 62 247 73 q 185 3 203 38 q 152 -66 167 -31 q 243 -213 187 -146 q 251 -212 245 -212 q 284 -222 267 -212 q 330 -233 301 -233 q 352 -233 340 -233 q 374 -232 363 -232 q 392 -233 384 -232 q 408 -236 400 -233 q 457 -218 431 -227 q 502 -193 483 -210 l 525 -193 q 549 -174 540 -179 q 579 -168 559 -168 q 624 -132 602 -146 q 677 -110 646 -117 q 687 -84 682 -90 q 715 -80 692 -79 q 808 7 758 -33 q 901 95 857 47 l 901 102 q 903 115 901 109 q 906 127 905 121 q 918 131 914 127 q 929 137 922 134 q 966 227 949 184 q 987 323 983 270 z "},"7":{"ha":1165,"x_min":42,"x_max":1165,"o":"m 1165 532 q 1122 515 1146 518 q 1074 511 1097 511 q 1032 513 1053 511 q 991 514 1012 514 q 956 511 974 514 q 922 498 937 509 q 901 502 911 500 q 880 503 891 503 l 868 503 q 856 488 865 491 q 834 484 846 484 q 815 486 825 484 q 796 487 806 487 q 759 478 777 480 q 722 468 741 476 q 669 336 692 404 q 612 206 647 267 l 612 176 q 543 -31 567 76 q 509 -245 518 -137 q 552 -281 532 -262 q 586 -326 572 -300 q 555 -354 574 -345 q 513 -363 536 -363 q 466 -355 490 -363 q 423 -330 442 -346 q 392 -292 404 -313 q 380 -245 380 -270 q 388 -208 380 -227 q 373 -137 373 -174 q 393 -52 373 -92 q 437 26 412 -11 q 433 36 434 31 q 433 45 433 41 q 446 87 433 68 q 465 127 458 107 q 469 165 471 146 q 475 201 468 183 q 490 223 480 214 q 505 244 499 232 q 509 267 509 255 q 514 289 510 278 q 524 306 517 298 q 533 323 530 313 q 555 395 548 358 q 582 468 563 433 q 568 469 575 468 q 553 469 560 469 q 536 465 543 469 q 533 449 530 461 q 512 458 522 453 q 488 464 502 463 q 465 450 476 457 q 441 435 454 442 q 425 441 434 441 q 408 442 416 442 q 375 438 395 442 q 349 419 355 434 q 321 425 335 423 q 293 426 308 426 q 217 420 255 426 q 141 414 179 414 q 95 418 118 414 q 52 435 72 423 q 53 448 53 442 l 53 460 q 50 477 53 471 q 42 494 47 484 q 71 536 60 517 q 115 566 83 556 q 148 570 132 570 l 182 570 q 210 572 198 570 q 236 581 222 574 l 239 581 q 245 576 244 581 q 251 571 245 571 q 263 572 256 571 q 275 575 270 574 q 298 577 286 576 q 321 578 309 578 q 351 577 336 578 q 381 576 365 576 q 441 580 411 576 q 499 594 471 583 q 543 590 521 590 q 587 593 566 590 q 631 600 608 597 q 671 675 656 635 q 701 758 686 716 q 731 839 715 799 q 776 911 747 879 q 810 1006 789 960 q 864 1092 831 1053 q 886 1158 871 1130 q 926 1213 901 1185 q 922 1227 928 1223 q 917 1241 917 1232 q 800 1209 860 1226 q 680 1168 739 1192 q 566 1115 621 1145 q 465 1047 511 1085 q 430 1034 445 1043 q 401 1014 415 1024 q 371 995 387 1004 q 334 985 355 986 q 311 959 326 968 q 290 930 296 949 q 222 897 256 913 q 159 859 189 880 q 99 884 127 864 q 71 940 71 905 q 79 972 71 958 q 100 998 87 987 q 163 1027 133 1006 q 224 1063 194 1047 q 245 1076 235 1070 q 270 1085 256 1081 q 279 1088 274 1088 q 290 1092 285 1089 q 306 1101 297 1095 q 321 1114 315 1108 q 378 1148 349 1133 q 444 1164 408 1164 l 446 1164 q 457 1175 450 1171 l 472 1183 q 486 1192 480 1187 q 495 1208 492 1198 l 499 1208 q 511 1211 506 1208 q 519 1217 515 1214 q 529 1222 524 1221 q 543 1222 534 1223 q 567 1240 553 1233 q 593 1253 581 1246 q 619 1267 606 1260 q 640 1286 632 1275 q 652 1283 644 1283 q 670 1284 661 1283 q 689 1286 680 1286 q 697 1293 696 1286 q 699 1306 699 1299 q 761 1329 736 1306 q 827 1341 795 1331 q 891 1363 860 1351 q 954 1385 922 1375 q 1020 1397 986 1396 q 1034 1379 1024 1385 q 1058 1369 1044 1373 l 1085 1360 q 1107 1348 1099 1356 q 1103 1331 1104 1341 q 1101 1310 1103 1321 q 1095 1291 1099 1299 q 1084 1280 1092 1283 q 1055 1198 1073 1238 q 1009 1124 1038 1158 l 1009 1101 q 964 1029 983 1066 q 925 952 944 991 l 888 875 q 849 800 871 837 l 849 770 q 835 753 840 764 q 826 732 830 743 q 817 712 822 722 q 800 697 811 703 l 800 693 q 793 654 800 670 q 776 620 787 637 q 791 606 781 609 q 810 604 800 604 q 831 603 821 604 q 849 594 841 602 q 903 604 873 604 q 958 599 930 604 q 1012 594 985 594 q 1034 600 1029 594 q 1048 614 1038 605 q 1079 606 1065 612 q 1107 592 1093 600 q 1135 578 1122 585 q 1165 571 1149 572 l 1165 532 z "},"8":{"ha":1016,"x_min":83,"x_max":1112,"o":"m 1112 1333 q 1095 1270 1112 1301 q 1042 1232 1077 1238 q 1011 1184 1029 1204 q 973 1145 993 1164 q 934 1106 954 1126 q 901 1062 914 1086 q 878 1050 887 1059 q 857 1038 869 1040 q 827 1003 842 1019 q 789 979 812 987 q 650 772 716 878 q 517 562 583 667 l 517 553 q 511 529 517 538 q 502 507 506 519 q 534 477 515 490 q 571 454 552 465 q 608 429 590 442 q 637 396 625 415 q 662 388 652 395 q 686 381 671 381 q 702 357 692 366 q 724 339 712 347 q 749 324 736 331 q 773 308 762 317 q 795 271 781 288 q 827 244 808 255 q 840 213 833 228 q 855 184 848 198 q 867 155 863 170 q 872 121 872 140 q 867 79 872 99 q 821 11 841 47 q 779 -61 802 -26 q 692 -112 735 -87 q 609 -168 648 -137 q 565 -178 585 -170 q 526 -203 545 -187 q 437 -223 481 -213 q 347 -233 393 -233 q 279 -225 304 -233 q 236 -203 255 -217 q 198 -173 217 -190 q 146 -138 179 -156 l 146 -134 q 149 -124 146 -127 q 152 -115 152 -121 q 142 -90 152 -107 q 127 -66 133 -73 q 123 -12 123 -41 q 142 119 123 60 q 187 233 160 178 q 244 342 214 288 q 297 458 274 396 q 257 496 282 483 q 206 517 232 510 q 174 563 195 547 q 134 601 153 579 q 114 646 118 624 q 113 649 113 648 q 113 652 114 650 q 103 659 110 661 q 94 663 96 656 q 89 687 91 667 q 85 730 87 707 q 83 775 84 754 q 83 804 83 796 q 96 840 90 821 q 111 876 103 859 q 132 908 119 894 q 161 930 144 922 q 170 954 161 945 q 176 979 178 962 q 218 1004 199 989 q 255 1034 236 1019 q 274 1043 264 1040 q 293 1053 283 1046 q 298 1061 300 1058 q 302 1073 296 1065 q 345 1088 323 1072 q 381 1120 368 1105 l 385 1120 q 426 1131 407 1120 q 468 1141 445 1142 q 488 1161 475 1154 q 517 1173 502 1168 q 549 1183 533 1179 q 575 1199 564 1188 q 650 1217 613 1204 l 724 1241 q 800 1264 762 1253 q 876 1280 837 1275 q 894 1300 883 1293 q 916 1316 905 1308 q 939 1344 929 1328 q 960 1375 949 1360 q 983 1399 970 1389 q 1020 1409 997 1409 q 1058 1397 1042 1409 q 1081 1364 1074 1385 l 1084 1364 q 1105 1374 1099 1364 q 1112 1333 1112 1354 m 720 151 l 720 157 q 690 197 705 178 q 656 235 675 216 q 645 252 650 241 q 633 270 640 263 q 602 284 620 281 q 570 298 585 288 q 557 311 563 304 q 545 323 552 317 q 528 331 537 330 q 511 338 519 332 q 497 352 503 343 q 481 366 491 361 q 461 374 472 373 q 439 381 450 376 l 429 381 q 422 366 426 372 q 414 355 418 361 q 409 342 411 349 q 410 323 407 335 q 403 324 407 324 q 395 319 396 324 q 391 312 395 315 q 335 189 361 251 q 290 61 309 127 q 286 46 289 58 q 283 31 283 34 q 286 19 283 24 q 289 7 289 14 q 288 1 289 4 q 282 -12 283 -4 q 274 -22 281 -19 q 279 -47 279 -35 q 283 -71 279 -60 q 324 -98 300 -90 q 370 -115 349 -107 q 403 -104 385 -107 q 437 -97 420 -100 q 471 -88 454 -94 q 502 -71 488 -83 l 507 -71 q 543 -60 530 -71 q 570 -33 556 -49 q 611 -16 595 -28 q 640 12 627 -4 q 665 43 652 27 q 696 69 677 58 q 703 90 699 81 q 711 109 707 99 q 718 127 715 118 q 720 151 720 137 m 686 1082 q 665 1076 673 1082 q 647 1066 658 1069 q 631 1080 643 1080 q 606 1071 620 1080 q 579 1062 593 1062 q 566 1066 571 1062 q 513 1036 545 1043 q 453 1024 480 1028 q 391 979 433 989 q 390 989 391 983 q 384 994 389 994 l 381 994 l 381 991 q 376 982 381 985 q 374 970 372 979 q 326 940 347 958 q 288 901 305 922 q 256 856 271 879 q 225 810 240 833 q 226 795 225 803 q 227 779 227 787 q 220 751 227 765 q 243 696 231 723 q 274 648 256 670 q 315 609 292 625 q 370 585 338 593 q 374 590 370 589 q 381 590 378 591 q 435 691 406 640 q 507 780 464 742 q 545 844 524 812 q 585 907 566 875 q 602 958 589 937 q 632 997 616 978 q 664 1036 648 1016 q 686 1082 680 1055 z "},"9":{"ha":1274,"x_min":0,"x_max":1316,"o":"m 1316 1047 q 1305 979 1316 1012 q 1289 911 1295 947 q 1214 850 1249 882 q 1138 791 1179 818 q 1103 703 1116 751 q 1076 610 1089 654 q 1074 602 1074 606 q 1078 591 1074 595 q 1081 579 1081 586 l 1081 578 l 1080 575 q 1068 536 1074 555 q 1058 498 1062 517 q 1036 378 1046 437 q 1010 259 1027 320 q 1010 227 1010 258 q 1008 160 1009 197 q 1006 90 1006 123 q 1005 50 1005 57 q 1017 -68 1005 -11 q 1065 -174 1028 -125 q 1061 -199 1061 -186 q 1065 -227 1061 -214 q 1053 -248 1058 -237 q 1040 -267 1047 -258 q 1024 -281 1034 -275 q 1000 -286 1015 -286 q 958 -277 981 -286 q 920 -255 935 -267 q 921 -235 921 -248 q 913 -177 921 -206 q 896 -117 905 -148 q 879 -55 887 -87 q 871 11 871 -23 q 873 35 871 22 q 876 58 876 47 q 869 68 876 65 q 865 79 863 72 l 865 88 q 869 99 865 95 q 875 109 872 103 q 873 142 873 126 l 873 176 q 886 371 873 274 q 924 562 899 468 q 920 583 920 571 q 924 608 920 595 q 928 635 928 621 q 924 652 928 644 q 909 655 920 655 q 869 645 887 655 q 836 620 850 635 q 723 578 779 601 q 609 541 667 556 q 555 513 585 524 q 493 496 525 503 q 429 481 461 488 q 369 464 397 475 q 335 464 351 465 q 300 463 319 463 q 256 468 278 463 q 254 469 256 469 q 242 462 244 469 q 232 454 240 454 q 216 458 224 454 q 199 461 209 461 q 182 459 191 461 q 165 454 174 457 q 111 475 137 465 q 53 487 84 484 q 35 513 42 498 q 9 532 27 528 q 3 557 5 544 q 0 582 0 570 q 7 633 0 612 q 29 675 15 655 q 63 713 43 694 q 107 755 83 732 q 161 794 138 770 q 214 833 184 818 q 257 873 233 856 q 306 905 281 890 q 355 937 331 921 q 399 975 378 954 q 440 989 420 979 q 479 1011 460 1000 q 517 1033 498 1023 q 560 1047 537 1043 q 574 1064 567 1054 q 589 1077 582 1074 q 630 1095 608 1088 q 674 1111 652 1101 q 753 1144 715 1128 q 831 1171 792 1160 q 910 1190 869 1183 q 997 1199 951 1198 q 1003 1194 998 1195 q 1010 1194 1008 1194 q 1051 1162 1031 1177 q 1095 1135 1072 1146 q 1141 1148 1123 1138 q 1181 1169 1158 1158 q 1255 1137 1221 1157 q 1313 1082 1290 1116 q 1315 1065 1314 1074 q 1316 1047 1316 1057 m 1010 956 q 969 982 987 970 q 951 1027 951 994 q 952 1047 951 1040 q 931 1055 939 1047 q 910 1062 924 1062 l 905 1062 q 849 1039 878 1047 l 792 1023 q 735 1005 764 1015 q 681 979 707 996 l 632 979 q 591 939 614 955 q 541 912 567 924 q 488 888 514 901 q 442 859 463 876 q 429 840 435 853 q 415 827 422 827 q 409 828 412 827 q 403 829 406 829 l 399 829 q 381 813 389 822 q 365 796 373 804 q 347 782 357 788 q 326 774 338 776 q 281 733 302 751 q 233 688 260 715 q 222 662 231 673 q 203 641 213 651 q 186 620 194 631 q 179 597 179 609 l 179 590 q 209 579 194 586 q 237 566 224 572 q 260 565 248 566 q 283 564 273 564 q 410 579 349 564 q 530 615 471 594 q 648 659 589 636 q 768 697 707 682 l 773 697 q 783 694 779 697 q 792 692 787 692 q 798 693 796 692 q 848 736 815 722 q 913 768 882 751 q 966 808 945 784 q 982 878 987 833 q 1002 914 996 894 q 1010 956 1008 935 z "},"ð":{"ha":971,"x_min":-98,"x_max":929,"o":"m 99 467 q 66 471 84 471 q 42 469 54 471 q 16 467 30 467 q 3 468 9 467 q -8 469 -3 469 q -21 463 -19 469 q -37 456 -23 456 q -51 462 -47 456 q -62 469 -54 468 q -71 503 -62 488 q -80 534 -80 517 q -79 548 -80 544 q -41 575 -66 567 q 5 583 -16 583 q 20 579 15 583 q 34 570 26 575 q 72 574 53 572 l 110 576 q 114 656 114 614 q 111 722 114 689 q 98 785 107 754 q 35 770 66 779 q -23 746 4 761 q -55 758 -38 755 q -88 765 -72 760 q -98 804 -98 784 q -91 841 -98 823 l -77 876 q -13 897 -45 883 q 52 921 19 910 q 79 928 62 924 q 103 935 96 932 q 116 950 113 939 q 126 970 119 962 l 149 970 q 167 969 157 970 q 184 964 176 968 q 282 980 233 977 q 382 990 331 983 q 399 991 388 990 l 422 996 q 444 1000 434 998 q 458 1002 454 1002 q 463 998 463 1002 l 486 998 q 600 983 544 998 l 711 954 q 757 917 734 935 q 808 886 780 899 q 829 851 815 864 q 861 823 844 838 q 880 786 868 806 q 902 746 891 766 q 921 706 913 726 q 929 669 929 686 q 920 651 929 655 q 910 635 910 647 q 913 628 910 631 q 916 620 916 625 l 916 614 q 869 477 899 536 q 798 370 838 419 q 706 278 757 321 q 597 187 655 235 q 564 160 581 174 q 532 132 547 146 l 502 103 q 487 97 500 102 q 471 91 473 92 q 431 72 452 83 q 395 45 410 61 q 349 37 368 45 q 307 15 330 28 q 295 18 300 15 q 285 23 290 20 q 273 26 279 26 q 258 24 267 27 q 222 71 241 52 q 171 94 203 90 q 152 130 167 117 q 122 157 137 142 q 118 176 119 165 q 113 197 117 187 q 102 213 109 206 q 83 220 95 220 q 90 228 81 228 q 98 235 98 228 q 95 251 98 243 q 92 269 92 259 q 94 281 92 275 q 98 293 95 286 q 94 368 94 330 q 95 417 94 393 q 99 467 96 441 m 585 538 q 570 533 576 537 q 555 528 563 529 l 555 525 q 551 517 555 519 q 551 507 548 514 q 522 495 537 499 q 490 488 506 491 q 458 481 473 486 q 430 469 444 477 l 430 480 q 408 473 419 473 q 391 477 399 473 q 372 480 382 480 q 358 476 363 480 q 345 481 350 477 q 332 490 339 484 q 318 479 328 481 q 300 476 308 476 q 281 477 290 476 q 263 480 273 479 q 248 477 255 477 q 233 475 240 476 q 227 410 229 442 q 224 345 224 377 q 227 289 224 316 q 239 235 231 262 q 271 212 254 220 q 307 195 288 203 l 307 191 q 301 183 307 187 q 296 172 296 179 q 301 167 296 167 q 408 206 358 183 q 502 269 458 229 q 510 273 506 273 q 517 271 513 273 q 526 269 522 270 l 525 274 q 530 289 525 282 q 541 301 534 296 l 555 313 q 566 327 562 320 q 581 338 576 330 q 598 346 586 346 q 613 368 601 361 q 628 391 625 376 q 676 427 655 406 q 715 473 697 449 q 750 524 734 498 q 784 575 766 551 l 784 581 q 791 616 784 602 q 803 648 799 629 q 774 713 788 680 q 741 774 761 747 q 691 791 716 781 q 656 827 666 802 q 647 826 654 826 q 625 836 635 826 q 604 848 616 845 q 574 852 593 849 q 536 856 556 854 q 496 859 515 857 q 465 860 476 860 q 443 859 454 860 q 419 857 431 859 q 406 854 408 857 q 395 848 403 850 q 380 850 388 850 l 363 850 q 307 842 335 850 q 252 818 279 833 l 252 812 q 262 800 252 802 q 273 789 271 799 q 262 789 266 789 q 258 779 258 788 q 261 749 258 765 q 264 716 264 732 q 262 688 264 704 q 248 662 259 671 q 262 629 262 650 q 248 583 262 606 q 276 585 263 585 q 301 586 289 585 l 389 593 q 395 600 396 594 q 403 606 393 606 q 416 600 412 606 q 427 593 419 594 q 461 602 442 600 q 491 614 480 604 q 500 610 498 614 q 506 602 502 605 q 516 607 511 605 q 528 609 521 609 q 534 608 530 609 q 540 606 537 606 q 564 572 551 587 q 585 538 576 557 m 100 477 q 99 472 99 475 l 99 467 l 100 477 z "},"Ł":{"ha":1226,"x_min":-138,"x_max":1379,"o":"m 701 712 q 685 696 690 705 q 670 680 680 686 q 674 673 674 675 l 674 663 q 675 656 674 659 q 680 651 677 654 q 650 616 667 631 q 616 587 633 601 q 582 559 598 574 q 555 524 566 544 l 547 537 q 525 516 537 522 q 500 507 513 510 q 477 499 488 503 q 458 484 465 495 q 441 480 450 480 q 428 481 434 480 q 415 483 422 481 q 406 462 415 471 q 385 446 397 453 q 358 434 372 439 q 336 425 345 429 q 306 402 321 411 q 274 384 290 393 q 266 350 269 366 q 263 315 263 334 l 263 300 q 264 286 263 293 q 250 232 254 259 q 247 176 247 205 q 249 132 247 157 q 256 81 251 107 q 267 30 260 54 q 283 -9 274 5 q 366 -89 315 -60 q 473 -126 418 -118 q 512 -117 496 -118 q 552 -117 528 -115 q 595 -100 572 -106 q 640 -88 617 -95 q 654 -83 647 -85 q 669 -77 662 -81 q 683 -65 675 -75 q 697 -49 690 -56 q 776 -14 739 -37 q 852 33 812 9 q 907 58 878 46 q 920 70 918 62 q 926 88 921 77 q 935 85 929 85 q 958 96 951 85 q 975 117 966 106 q 1008 127 991 119 q 1034 151 1025 134 q 1092 175 1066 157 q 1142 214 1118 193 q 1192 254 1166 235 q 1248 286 1217 274 q 1253 298 1251 293 q 1257 311 1255 304 q 1293 323 1279 313 q 1325 345 1306 334 q 1356 334 1341 342 q 1379 311 1370 326 q 1371 267 1379 285 q 1348 228 1362 250 q 1343 229 1347 229 q 1329 225 1335 229 q 1316 218 1322 221 q 1234 134 1276 175 q 1143 62 1192 94 q 1116 47 1130 54 q 1088 33 1103 39 q 1078 28 1082 30 q 1066 23 1073 26 q 1044 3 1054 16 q 1022 -22 1034 -9 q 998 -43 1010 -34 q 966 -49 985 -52 q 944 -67 952 -57 q 926 -88 936 -77 q 820 -141 869 -107 q 719 -206 770 -175 q 690 -223 704 -214 q 658 -239 675 -232 q 625 -247 642 -245 q 534 -264 579 -258 q 442 -271 490 -271 q 387 -268 415 -271 q 332 -258 359 -264 q 330 -252 334 -254 l 323 -250 q 317 -246 320 -248 q 317 -239 315 -244 q 265 -224 289 -236 q 235 -180 241 -212 q 229 -187 232 -183 q 221 -190 227 -191 q 178 -140 202 -164 q 144 -84 153 -117 l 137 -58 q 114 -39 132 -39 q 117 -26 117 -34 q 116 -18 117 -22 q 115 -9 115 -14 q 118 4 115 -4 q 96 129 96 64 q 100 208 96 168 q 104 288 103 248 q 71 267 85 279 q 37 243 56 254 q 20 237 28 239 q 4 232 11 236 q -5 223 -3 228 q -9 214 -8 218 q -12 203 -9 209 q -22 194 -15 198 q -34 191 -30 191 q -50 195 -42 191 q -65 195 -57 198 q -82 218 -72 209 q -103 235 -92 227 q -123 254 -114 243 q -138 283 -133 264 q -126 317 -137 298 q -100 351 -115 335 q -68 377 -85 366 q -35 388 -50 388 q -11 384 -23 388 q 65 434 27 410 q 141 481 103 458 l 142 496 q 159 517 156 503 q 172 538 161 530 l 172 545 q 176 585 172 566 l 186 624 q 195 664 191 644 q 195 704 198 684 q 204 720 199 708 q 214 744 209 731 q 223 769 220 757 q 227 787 227 781 q 224 801 227 793 q 221 817 221 808 q 224 837 221 826 q 231 857 228 848 q 241 905 236 880 q 248 954 245 930 q 267 1103 260 1028 q 274 1255 274 1179 q 314 1275 293 1265 q 357 1284 335 1284 q 372 1283 363 1284 q 387 1279 380 1282 q 407 1236 392 1252 q 435 1196 422 1219 q 425 1152 427 1175 q 420 1107 422 1130 q 414 1061 418 1084 q 400 1017 410 1038 q 403 1004 403 1010 l 403 990 q 399 954 403 971 q 392 918 396 936 q 386 882 388 899 q 387 846 384 864 q 378 836 382 840 q 370 826 373 833 q 370 813 369 819 q 369 800 370 807 q 366 771 369 785 q 359 742 362 757 q 341 669 351 705 q 328 593 331 632 q 348 605 332 595 q 380 625 363 614 q 410 644 397 635 q 423 656 423 654 q 422 663 423 659 q 420 670 420 666 q 426 678 420 675 q 437 681 431 681 q 448 678 444 681 q 460 675 453 675 q 467 677 465 675 q 484 694 473 686 q 504 709 494 701 q 522 726 514 718 q 534 746 530 735 q 541 747 537 747 q 550 745 545 747 q 560 742 555 742 q 577 758 572 753 q 600 769 582 762 q 650 741 623 751 q 701 712 678 731 z "},"ł":{"ha":753,"x_min":-98,"x_max":780,"o":"m 473 652 q 463 640 467 647 q 452 627 458 632 q 454 614 454 623 q 458 604 454 612 q 439 578 450 589 q 415 555 427 567 q 391 532 403 544 q 372 507 380 521 l 368 517 q 353 500 361 505 q 336 494 345 496 q 321 488 328 491 q 308 476 313 484 q 296 473 300 473 q 288 474 292 473 q 279 475 283 475 q 262 449 281 458 q 232 433 244 439 q 231 408 231 420 l 231 387 q 235 315 231 357 q 252 248 239 274 q 279 232 259 237 q 311 227 298 227 q 341 231 326 227 q 365 248 357 236 q 375 240 372 247 q 385 229 378 233 q 539 292 463 262 q 690 361 616 321 q 715 355 701 355 q 742 358 730 355 q 768 361 754 361 l 777 361 q 780 349 780 353 q 769 326 780 334 q 758 307 758 319 q 764 293 758 301 q 739 281 745 293 q 726 254 732 269 l 711 254 q 692 248 696 254 q 681 229 688 241 q 631 212 655 224 q 585 188 608 201 q 540 162 563 175 q 491 141 517 149 q 457 109 479 121 l 453 109 q 441 111 446 107 q 430 114 437 114 q 423 113 425 114 q 380 92 404 98 q 334 85 357 85 q 308 87 320 85 q 282 90 296 90 q 274 81 274 90 q 259 73 274 73 q 229 77 244 73 q 199 79 214 81 q 150 113 168 96 q 117 161 132 129 q 100 191 110 176 q 83 220 90 205 q 77 241 80 227 q 72 271 75 255 q 67 302 69 288 q 65 324 65 317 q 44 307 54 316 q 22 290 34 297 q 11 286 16 288 q 0 282 5 285 q -11 262 -9 275 q -26 250 -12 250 q -37 252 -33 250 q -47 252 -41 255 q -58 270 -52 263 q -73 283 -65 277 q -87 298 -80 290 q -98 321 -94 307 q -90 345 -96 331 q -72 371 -83 358 q -49 393 -61 384 q -26 401 -37 401 q -9 399 -20 401 q 35 433 12 416 q 81 467 58 450 q 90 529 84 498 q 107 590 96 560 q 104 618 104 605 l 104 648 q 98 692 104 674 q 110 731 110 711 q 88 760 110 755 l 88 764 q 68 808 88 789 q 92 880 68 856 q 156 921 117 903 q 161 935 161 929 q 176 929 168 932 q 194 926 184 926 q 220 930 208 926 q 239 911 222 914 q 269 902 255 907 q 267 884 267 895 q 273 843 267 863 q 288 804 278 823 q 281 781 282 793 q 279 758 279 769 q 281 726 279 742 q 282 694 282 709 q 279 662 282 678 q 263 633 275 646 q 262 610 262 623 l 262 589 q 275 598 264 591 q 285 610 285 605 q 283 614 285 613 q 282 618 282 616 q 286 625 282 623 q 293 627 290 627 q 301 625 297 627 q 309 624 305 624 l 313 624 q 339 650 324 639 q 359 678 354 661 q 363 680 361 680 q 370 677 368 680 q 377 675 373 675 l 388 686 q 404 696 392 690 q 439 675 419 682 q 473 652 458 667 z "},"Š":{"ha":1169,"x_min":-109,"x_max":1114,"o":"m 1114 50 q 1112 30 1114 37 q 1101 22 1105 27 q 1088 19 1097 18 q 1074 -15 1085 -1 q 1052 -40 1063 -28 q 1029 -64 1040 -52 q 1016 -98 1019 -77 q 976 -127 996 -109 q 941 -152 956 -145 q 918 -161 930 -157 q 894 -170 906 -164 q 813 -206 854 -187 q 727 -225 772 -225 l 718 -225 q 704 -233 712 -231 q 688 -236 696 -235 q 671 -240 680 -237 q 659 -248 663 -243 q 627 -243 644 -243 l 617 -243 q 574 -251 594 -248 q 530 -254 553 -254 q 449 -248 490 -254 q 368 -239 408 -243 q 326 -188 342 -218 q 309 -123 309 -157 q 320 -75 309 -98 q 349 -35 331 -53 l 353 -35 q 378 -30 365 -35 q 403 -24 391 -24 q 425 -35 416 -24 q 439 -61 434 -46 q 445 -92 444 -76 q 446 -117 446 -107 q 478 -125 461 -123 q 513 -126 495 -126 q 552 -124 530 -126 q 596 -117 574 -122 q 640 -106 618 -113 q 675 -88 661 -99 q 807 -54 750 -81 q 928 9 864 -27 q 939 33 930 24 q 948 60 948 42 q 947 66 948 62 q 947 72 947 69 q 890 132 920 106 q 815 165 861 157 q 798 184 810 178 q 772 195 785 190 q 746 207 758 201 q 728 228 734 213 q 653 245 692 235 q 587 282 614 255 q 546 291 566 283 q 507 306 526 298 q 468 319 488 313 q 426 326 448 326 q 411 340 420 335 q 390 350 401 346 q 368 359 378 354 q 353 373 358 363 q 345 368 347 372 q 335 363 342 363 l 330 363 q 319 375 327 372 q 309 389 311 378 q 265 399 285 391 q 229 417 245 407 q 194 437 212 427 q 155 452 176 446 q 130 475 141 463 q 100 488 118 488 q 85 486 96 488 q 65 520 83 510 q 27 538 47 530 q -9 601 14 574 q -60 651 -33 628 q -57 663 -57 659 q -64 687 -57 677 q -79 704 -71 697 q -98 823 -98 765 q -62 975 -98 905 q 52 1080 -26 1044 q 59 1099 53 1090 q 66 1118 65 1107 q 85 1123 79 1118 q 98 1135 92 1128 q 111 1146 104 1141 q 129 1153 118 1152 q 239 1225 180 1198 q 358 1283 297 1253 q 378 1303 370 1289 l 387 1303 q 408 1310 400 1303 q 430 1313 415 1316 q 444 1324 435 1321 q 462 1329 453 1326 q 479 1335 471 1331 q 490 1347 487 1339 l 499 1347 q 544 1354 522 1347 q 587 1371 566 1362 l 597 1371 q 648 1381 624 1371 q 699 1396 671 1392 q 720 1397 709 1398 q 742 1396 731 1396 q 758 1397 749 1396 q 772 1405 768 1398 l 774 1405 q 784 1400 783 1405 q 792 1394 785 1394 q 811 1397 802 1394 q 830 1400 821 1400 q 911 1392 871 1400 q 990 1377 951 1383 q 1004 1354 993 1360 q 1029 1341 1016 1347 l 1029 1336 q 1035 1318 1029 1325 q 1016 1290 1029 1299 q 986 1274 1002 1280 q 994 1259 993 1268 q 996 1241 996 1249 l 996 1225 l 989 1226 q 967 1206 967 1226 q 928 1219 949 1217 q 887 1222 907 1222 q 830 1220 860 1222 q 772 1221 800 1218 q 745 1201 761 1207 q 712 1195 728 1195 q 678 1202 694 1195 q 655 1225 662 1210 q 643 1227 648 1227 l 631 1227 q 588 1223 609 1227 q 545 1212 567 1218 q 503 1200 524 1206 q 460 1192 481 1194 q 438 1177 452 1181 q 416 1162 425 1173 q 365 1144 388 1157 q 320 1116 342 1131 l 278 1088 q 232 1065 258 1074 q 197 1032 213 1044 q 155 1010 180 1020 q 136 994 138 1005 q 125 972 134 983 q 105 958 117 963 q 85 943 94 954 q 75 920 79 933 q 68 895 72 907 q 58 871 64 883 q 42 852 53 860 q 41 841 42 846 q 41 831 41 836 q 45 793 41 812 q 52 754 50 773 q 115 668 79 707 q 194 597 152 629 q 281 536 236 564 q 372 480 327 507 q 401 477 388 481 q 430 471 415 472 q 468 452 446 458 l 511 438 q 553 422 533 431 q 587 399 574 414 q 600 395 594 397 q 612 393 605 393 q 621 399 620 393 q 741 348 682 376 q 864 305 799 320 q 921 267 890 283 q 983 234 952 251 q 1043 197 1015 217 q 1093 151 1072 178 q 1105 101 1096 125 q 1114 50 1114 77 m 924 1911 q 916 1882 920 1898 q 905 1852 911 1866 q 888 1827 898 1838 q 861 1813 878 1816 q 803 1756 834 1782 q 741 1703 772 1729 q 683 1647 711 1676 q 637 1579 655 1617 q 607 1556 618 1571 q 586 1523 595 1541 q 566 1489 576 1506 q 538 1462 555 1473 q 517 1466 528 1463 q 495 1468 506 1468 q 471 1462 481 1468 q 461 1474 468 1470 q 452 1487 454 1478 q 410 1501 427 1491 q 377 1525 392 1511 q 347 1552 362 1538 q 311 1575 331 1565 q 302 1590 308 1584 q 296 1607 297 1596 l 292 1607 q 277 1613 282 1607 q 262 1617 273 1619 q 254 1636 262 1632 q 243 1652 247 1641 q 179 1696 210 1674 q 113 1736 148 1718 q 87 1746 99 1742 l 62 1754 q 46 1768 53 1758 q 28 1784 39 1778 q -8 1776 9 1782 q -45 1769 -26 1770 q -98 1803 -60 1807 l -106 1824 q -109 1847 -109 1835 q -107 1862 -109 1857 q -94 1868 -98 1862 q -87 1884 -90 1874 q -85 1904 -85 1893 q -84 1921 -85 1914 q -56 1934 -71 1930 q -30 1949 -42 1938 q 43 1924 5 1941 q 117 1911 81 1907 q 142 1892 129 1900 l 171 1876 q 199 1859 186 1868 q 224 1836 213 1850 q 282 1811 256 1827 q 330 1777 308 1796 q 374 1735 353 1758 q 418 1691 395 1713 q 431 1687 426 1691 q 448 1686 437 1683 q 458 1670 453 1678 q 467 1652 463 1662 q 471 1653 469 1652 q 475 1653 472 1653 q 489 1650 481 1653 q 506 1647 496 1647 l 510 1647 q 524 1665 519 1655 q 534 1686 529 1675 q 560 1691 544 1694 q 669 1823 605 1765 q 798 1940 732 1881 q 803 1961 800 1949 q 812 1979 806 1972 l 826 1979 q 886 1959 860 1979 q 924 1911 913 1940 z "},"š":{"ha":798,"x_min":-442,"x_max":735,"o":"m 735 171 q 724 131 735 148 q 715 90 712 114 q 684 61 696 79 q 661 24 671 43 q 469 -70 571 -34 q 258 -106 366 -106 q 245 -100 251 -106 q 235 -87 240 -94 q 223 -74 229 -80 q 209 -68 217 -68 q 194 -72 199 -68 q 195 -67 194 -69 q 195 -62 195 -65 q 191 -29 195 -46 q 187 4 187 -12 q 194 35 187 23 l 210 35 q 237 37 224 35 q 264 39 250 39 q 292 31 279 39 q 433 59 366 34 q 570 109 500 84 q 583 142 581 123 q 593 176 585 160 q 522 223 557 206 q 438 235 486 240 q 378 255 410 252 q 313 263 346 258 q 296 267 305 264 q 278 269 288 269 q 265 265 271 269 q 262 255 259 262 q 243 268 255 266 q 224 278 232 270 q 148 294 180 281 q 76 323 115 307 q 55 329 65 327 q 35 336 45 331 q -4 369 11 349 q -28 414 -19 389 q -41 467 -37 439 q -49 517 -45 494 q -26 562 -37 538 q -9 610 -16 585 q 7 617 -1 614 q 24 624 15 620 q 23 631 23 627 q 28 644 23 637 q 30 658 33 651 q 87 714 60 685 q 136 779 115 743 q 168 799 156 785 q 193 827 180 812 q 220 852 205 841 q 258 867 235 864 q 273 882 263 876 q 292 894 282 888 q 309 906 301 899 q 321 925 317 913 q 361 933 343 925 q 397 951 380 941 q 433 968 415 960 q 473 977 452 977 q 484 976 479 977 q 496 974 490 975 q 509 951 506 964 q 514 924 513 939 q 516 894 515 909 q 521 867 517 879 q 494 821 509 844 q 457 785 480 798 l 454 785 q 437 789 445 784 q 418 795 429 795 q 407 791 411 795 l 400 784 q 393 779 397 781 q 380 779 388 776 q 365 755 361 772 q 321 740 339 753 q 289 711 304 727 q 259 683 274 696 q 224 669 244 670 q 168 597 201 628 q 113 526 134 566 q 118 503 117 515 q 122 477 119 491 q 151 449 134 461 q 184 425 168 437 l 189 425 q 239 414 216 425 q 288 404 262 404 q 311 410 301 404 q 380 396 346 401 q 450 388 415 391 q 486 385 468 385 q 521 381 505 385 q 551 371 536 377 q 581 358 566 365 q 640 328 612 345 q 689 290 667 312 q 723 238 711 267 q 735 171 735 209 m 590 1470 q 582 1441 586 1457 q 571 1411 578 1426 q 554 1386 564 1397 q 528 1373 544 1375 q 469 1315 500 1341 q 408 1262 438 1289 q 349 1206 377 1236 q 304 1138 321 1176 q 273 1115 285 1130 q 252 1082 262 1100 q 232 1048 243 1065 q 205 1021 221 1032 q 183 1025 194 1023 q 161 1027 172 1027 q 137 1021 148 1027 q 127 1034 134 1029 q 118 1046 121 1038 q 76 1060 94 1050 q 43 1084 58 1070 q 13 1111 28 1097 q -23 1134 -3 1124 q -31 1149 -26 1143 q -38 1166 -37 1156 l -42 1166 q -56 1173 -52 1166 q -72 1176 -61 1179 q -79 1196 -72 1191 q -91 1211 -87 1200 q -155 1255 -123 1233 q -221 1295 -186 1278 q -247 1305 -235 1301 l -271 1313 q -288 1327 -281 1317 q -305 1343 -294 1337 q -342 1335 -324 1341 q -378 1328 -359 1329 q -431 1362 -393 1366 l -439 1383 q -442 1407 -442 1394 q -441 1421 -442 1416 q -427 1428 -431 1421 q -421 1443 -423 1434 q -419 1463 -419 1453 q -418 1480 -419 1473 q -390 1493 -404 1489 q -363 1508 -376 1497 q -290 1483 -328 1500 q -217 1470 -252 1466 q -191 1451 -205 1459 l -163 1435 q -134 1418 -148 1427 q -110 1396 -121 1409 q -52 1371 -77 1386 q -3 1336 -26 1355 q 40 1295 19 1317 q 84 1251 61 1272 q 98 1246 92 1251 q 114 1245 103 1242 q 124 1229 119 1237 q 133 1211 129 1221 q 137 1212 136 1211 q 141 1213 138 1213 q 155 1209 148 1213 q 172 1206 163 1206 l 176 1206 q 191 1224 186 1214 q 201 1245 195 1234 q 227 1251 210 1253 q 335 1382 271 1324 q 464 1499 399 1440 q 469 1520 467 1508 q 479 1538 472 1531 l 492 1538 q 553 1518 526 1538 q 590 1470 579 1499 z "},"Ý":{"ha":1024,"x_min":-7,"x_max":940,"o":"m 940 1149 q 922 956 940 1051 q 891 764 903 860 q 877 748 884 754 q 863 735 869 742 l 863 722 q 857 684 863 703 l 848 647 q 841 611 844 629 q 844 574 838 593 q 819 493 827 534 q 805 410 811 452 q 792 326 799 368 q 773 243 785 283 l 774 222 q 768 136 777 179 q 760 49 760 92 q 762 -7 760 20 q 764 -61 764 -34 q 760 -117 764 -91 q 776 -148 770 -130 l 788 -183 q 803 -216 795 -201 q 827 -239 811 -231 q 855 -227 842 -232 q 883 -222 868 -222 q 921 -235 905 -222 q 923 -263 924 -248 q 925 -293 922 -278 q 895 -316 911 -307 q 863 -336 878 -326 q 863 -342 863 -339 q 864 -349 864 -346 q 844 -390 864 -376 q 802 -404 825 -404 q 783 -401 795 -404 q 764 -395 770 -399 q 700 -328 727 -370 q 656 -237 673 -286 q 630 -138 639 -189 q 621 -46 621 -87 l 621 -16 q 624 14 621 -1 q 629 31 625 24 q 633 49 633 37 q 642 193 633 121 q 662 337 651 264 q 683 481 673 410 q 696 627 693 553 q 673 608 681 623 q 647 587 665 594 q 574 508 616 543 q 498 431 533 473 q 461 414 479 423 q 429 389 444 404 q 351 354 382 385 l 339 355 q 307 345 321 355 q 286 349 296 345 q 264 353 275 353 q 244 345 252 353 q 178 375 205 354 q 128 421 151 396 q 83 473 106 446 q 31 519 61 499 q 16 576 23 551 q 5 625 9 601 q -3 676 0 650 q -7 736 -7 703 q 1 919 -7 829 q 20 1099 9 1009 q 52 1178 42 1135 q 71 1264 62 1221 q 92 1350 80 1308 q 127 1426 103 1392 l 137 1426 q 165 1423 152 1426 q 190 1426 178 1421 q 209 1350 209 1392 q 203 1295 209 1322 q 189 1242 197 1268 q 175 1188 182 1215 q 167 1134 168 1161 q 155 1108 159 1122 q 141 1085 152 1095 l 142 1066 q 135 1009 145 1036 q 122 952 125 982 q 123 922 121 937 q 125 892 125 907 q 123 823 125 857 q 121 754 121 789 q 126 705 121 728 q 132 669 132 681 q 127 651 132 659 q 138 627 132 637 l 152 606 q 164 585 159 597 q 171 559 170 574 q 304 509 225 509 q 391 534 349 509 q 474 597 434 560 q 551 672 514 633 q 624 735 589 711 q 656 789 636 760 q 696 848 675 818 q 732 908 716 879 q 754 963 749 937 q 757 989 757 975 q 760 1017 757 1002 q 777 1112 766 1065 q 787 1208 787 1160 q 786 1226 787 1218 q 784 1245 785 1234 q 806 1270 795 1259 q 823 1298 817 1282 q 856 1297 841 1295 q 887 1299 871 1299 q 925 1289 907 1299 q 940 1149 940 1217 m 925 1942 q 913 1925 920 1931 q 903 1910 907 1918 q 896 1893 898 1903 q 895 1869 894 1884 q 873 1839 886 1853 q 847 1813 860 1826 q 823 1785 834 1800 q 804 1752 811 1770 q 759 1719 773 1743 q 731 1671 745 1695 q 672 1619 692 1657 q 652 1544 652 1581 q 609 1520 635 1525 q 560 1516 583 1516 q 528 1517 544 1516 q 498 1519 513 1518 q 486 1545 490 1531 q 481 1573 483 1558 q 477 1600 479 1587 q 468 1626 475 1614 q 616 1777 545 1699 q 755 1937 688 1854 q 754 1949 754 1941 q 758 1966 754 1959 q 764 1980 761 1973 q 768 1995 766 1987 q 769 2016 770 2003 q 821 2026 795 2026 q 887 2003 860 2026 q 925 1942 914 1979 z "},"ý":{"ha":755,"x_min":-62,"x_max":735,"o":"m 735 933 q 725 913 735 921 q 715 901 715 905 q 718 889 715 892 q 720 882 720 886 l 720 875 q 700 846 707 861 q 689 813 693 830 q 682 779 685 796 q 673 745 678 761 q 655 717 666 728 q 637 690 644 705 q 621 640 627 666 q 598 593 616 614 l 598 586 q 604 570 597 576 q 563 489 578 536 q 538 391 548 442 q 522 290 529 340 q 506 198 515 239 q 527 142 513 168 q 555 87 541 115 q 607 68 582 80 q 643 28 632 56 q 625 -14 640 1 q 589 -45 610 -28 q 564 -36 574 -39 q 536 -35 555 -33 q 488 -3 510 -15 q 448 39 465 9 q 439 43 445 43 l 427 43 q 411 78 420 60 q 392 116 401 96 q 376 155 382 136 q 369 191 369 175 q 382 329 369 260 q 395 468 395 397 l 395 481 q 341 463 368 475 q 288 444 315 450 q 277 434 278 441 q 269 423 275 427 q 243 421 255 422 q 220 420 231 420 q 172 422 197 420 q 122 431 146 425 q 77 450 98 438 q 39 481 56 463 q 33 479 37 480 q 24 477 28 477 q 16 479 20 477 q 9 481 12 480 q -8 514 -1 496 l -22 549 q -37 583 -28 567 q -58 613 -45 600 q -62 661 -62 637 q -59 708 -62 685 q -49 754 -56 731 q -56 788 -54 770 q -58 823 -58 806 q -54 865 -58 844 q -41 905 -50 887 q -14 936 -31 924 q 27 948 3 948 q 77 934 54 948 q 122 905 100 920 q 126 873 125 888 q 127 840 127 857 q 124 774 127 807 q 121 707 121 741 q 130 641 121 671 q 161 583 138 610 l 167 583 q 186 579 178 585 q 205 574 194 574 q 220 581 214 574 q 233 589 225 589 q 245 586 241 589 q 252 583 250 583 q 286 594 267 583 q 311 618 305 605 q 324 614 316 614 q 345 621 335 614 q 369 628 354 628 q 375 638 377 628 q 380 651 373 648 q 416 671 396 658 q 448 686 435 684 q 465 720 454 704 q 486 749 475 735 q 502 808 490 780 q 528 865 514 837 q 553 922 541 894 q 570 982 566 951 q 593 1015 585 997 q 609 1050 602 1032 q 643 1055 623 1054 q 678 1055 663 1055 l 701 1055 q 712 1040 705 1047 l 726 1027 q 713 989 713 1008 q 720 960 713 974 q 735 933 727 945 m 693 1514 q 682 1496 688 1503 q 671 1482 675 1489 q 664 1465 666 1474 q 663 1440 662 1455 q 641 1411 654 1424 q 615 1384 628 1397 q 591 1356 602 1371 q 572 1324 579 1341 q 527 1291 541 1314 q 499 1242 513 1267 q 440 1191 460 1229 q 420 1115 420 1153 q 377 1092 403 1096 q 328 1088 351 1088 q 296 1088 312 1088 q 266 1090 281 1089 q 254 1116 258 1103 q 249 1144 251 1130 q 245 1172 247 1158 q 236 1198 243 1185 q 385 1348 313 1271 q 524 1508 456 1426 q 522 1520 522 1512 q 526 1537 522 1530 q 532 1552 529 1545 q 536 1567 534 1558 q 537 1587 538 1575 q 589 1598 563 1598 q 655 1574 628 1598 q 693 1514 682 1550 z "},"Þ":{"ha":1325,"x_min":-111,"x_max":1352,"o":"m 1352 1004 q 1335 912 1352 956 q 1309 822 1317 868 q 1253 741 1279 783 q 1200 657 1227 699 q 1143 577 1173 616 q 1076 506 1114 538 q 1077 499 1077 503 q 1070 489 1077 492 q 1065 476 1063 486 q 998 408 1031 442 q 939 331 966 373 q 910 311 922 324 q 890 282 898 298 q 878 279 883 283 q 867 273 873 275 q 774 172 823 221 q 670 84 726 123 q 669 41 670 64 q 658 0 667 19 q 664 -29 656 -15 q 671 -58 671 -43 q 662 -73 671 -66 l 697 -73 q 709 -106 697 -92 q 720 -126 720 -119 q 715 -177 720 -149 q 688 -214 711 -205 l 688 -222 q 673 -274 688 -252 q 657 -275 665 -274 q 643 -275 650 -275 q 541 -248 586 -275 q 518 -141 521 -197 q 519 -30 515 -85 q 380 -92 454 -80 q 360 -102 374 -98 q 330 -109 346 -106 q 298 -115 313 -113 q 277 -117 283 -117 q 246 -99 254 -117 q 239 -61 239 -81 q 249 -22 239 -35 q 273 9 259 -8 q 315 28 296 22 q 354 41 335 35 q 392 54 373 46 q 433 77 411 61 q 486 113 457 96 q 534 152 515 129 l 541 152 l 545 194 q 555 214 552 205 q 566 233 559 224 q 575 310 568 271 q 589 387 582 349 q 600 463 595 425 q 604 538 605 500 q 624 637 624 587 q 614 690 624 667 q 625 704 623 696 q 633 719 627 712 q 640 824 636 772 q 643 928 643 876 q 641 1007 643 967 q 629 1086 639 1047 l 623 1095 l 624 1105 l 614 1104 q 575 1078 598 1088 q 528 1060 552 1069 q 484 1040 505 1051 q 453 1006 464 1028 q 435 994 452 1000 q 396 984 418 989 q 354 975 374 979 q 327 964 334 970 q 290 939 316 956 q 229 899 263 921 q 155 854 194 878 q 83 812 117 831 q 23 781 49 793 q -11 769 -3 769 q -38 772 -26 769 q -62 773 -50 774 q -83 791 -72 784 q -107 803 -95 799 q -111 841 -111 821 q -98 910 -111 872 q -63 922 -81 916 q -28 938 -45 929 q 3 958 -11 947 q 24 987 16 970 q 32 985 28 986 q 39 985 35 985 q 52 986 46 985 q 64 987 57 987 q 114 1019 90 1004 q 165 1046 138 1034 q 175 1065 178 1051 q 240 1088 208 1076 q 297 1123 273 1100 l 321 1123 q 365 1149 342 1139 q 412 1167 388 1158 q 458 1185 435 1176 q 502 1211 481 1195 q 516 1214 511 1214 q 530 1211 521 1214 q 554 1229 544 1218 q 575 1251 564 1240 l 606 1253 q 602 1282 606 1257 q 592 1337 597 1308 q 583 1390 587 1366 q 576 1419 578 1415 q 602 1454 587 1438 q 623 1495 617 1470 q 635 1499 629 1497 q 648 1500 642 1500 q 688 1491 670 1500 q 726 1472 707 1482 q 728 1380 726 1426 q 736 1289 731 1335 l 741 1289 q 770 1303 754 1298 q 802 1311 785 1308 q 833 1318 818 1314 q 861 1333 849 1322 q 949 1335 905 1333 q 1036 1337 993 1337 q 1163 1327 1099 1337 q 1279 1279 1227 1317 q 1304 1235 1290 1256 q 1337 1198 1318 1214 q 1343 1170 1340 1183 q 1352 1143 1347 1157 q 1343 1099 1343 1124 q 1348 1051 1343 1074 q 1352 1004 1352 1028 m 1226 1036 q 1217 1065 1218 1050 q 1217 1095 1215 1080 q 1190 1131 1199 1109 q 1162 1162 1180 1152 q 1128 1171 1150 1171 q 1090 1177 1105 1172 q 1067 1189 1074 1184 q 1042 1194 1061 1194 q 1007 1191 1024 1194 q 974 1188 990 1188 q 949 1193 962 1188 q 925 1198 937 1198 q 897 1188 910 1198 q 867 1181 884 1179 q 858 1171 859 1175 q 856 1165 857 1166 q 849 1164 854 1164 l 830 1164 q 792 1160 811 1164 q 757 1150 773 1157 q 767 1108 760 1131 q 774 1066 774 1085 q 770 1047 774 1057 l 774 1031 q 765 1019 768 1027 q 755 1006 762 1010 q 774 890 774 949 q 762 793 774 842 q 750 704 750 745 q 755 691 750 693 q 761 682 761 689 q 760 679 761 680 q 760 675 760 678 q 736 490 746 583 q 707 305 726 397 l 703 286 q 813 400 760 342 q 916 521 867 458 q 930 527 925 521 q 944 534 935 533 q 1004 614 972 575 q 1072 686 1035 652 q 1078 711 1073 700 q 1090 732 1084 722 q 1103 753 1097 742 q 1109 779 1109 764 q 1124 785 1116 783 q 1139 793 1133 788 q 1151 824 1142 812 q 1153 857 1160 836 q 1188 888 1176 867 q 1206 936 1200 910 q 1216 989 1213 962 q 1226 1036 1219 1016 z "},"þ":{"ha":1104,"x_min":-14,"x_max":1077,"o":"m 1077 715 q 1076 677 1077 696 q 1072 639 1074 658 q 1053 616 1062 628 q 1042 590 1044 605 q 1026 577 1035 585 q 1009 561 1017 570 q 996 542 1001 552 q 993 522 991 532 l 974 522 q 936 480 958 498 q 890 446 914 463 l 842 415 q 799 381 819 400 q 782 376 789 380 q 764 374 774 373 q 676 327 722 347 q 585 287 631 307 q 495 245 540 267 q 410 195 450 224 q 399 197 406 197 q 374 193 387 197 q 350 190 362 190 q 308 212 319 190 q 297 263 297 235 q 298 280 297 271 q 302 297 300 289 q 382 318 342 300 q 458 351 422 336 q 475 361 468 355 q 488 373 481 368 q 504 382 495 378 q 526 385 513 387 q 694 471 612 425 q 857 566 776 518 q 869 589 861 578 l 887 612 q 903 636 897 624 q 909 661 909 648 q 886 701 909 685 l 880 701 q 852 706 864 701 q 829 716 841 711 q 804 725 817 722 q 773 727 791 728 q 751 736 766 732 q 727 741 736 741 q 631 734 678 741 q 536 727 583 728 q 517 716 525 720 q 501 710 509 712 q 485 708 494 708 q 463 711 476 708 q 404 693 437 700 q 340 676 372 686 q 281 651 308 666 q 239 610 254 636 q 241 598 239 604 q 244 586 244 593 l 244 581 q 233 562 236 572 q 229 542 231 552 q 225 522 228 532 q 216 503 222 511 q 221 457 221 481 q 218 403 221 430 q 214 349 214 376 q 220 302 214 323 q 213 279 210 293 q 206 254 216 264 q 212 239 206 244 q 220 225 218 233 q 216 203 217 214 q 214 182 214 193 q 224 117 214 148 q 244 54 233 85 q 291 66 267 61 q 339 71 315 71 q 347 70 343 71 q 355 69 351 69 q 366 42 358 54 q 381 15 374 30 q 370 -1 374 5 q 365 -18 365 -7 q 334 -28 346 -19 q 307 -47 321 -38 l 301 -47 q 263 -56 278 -47 q 229 -76 248 -65 q 197 -69 213 -69 q 161 -76 179 -69 q 126 -47 140 -66 q 103 -3 113 -27 q 86 45 94 20 q 69 90 79 69 l 69 110 q 64 155 69 133 q 60 199 60 176 q 69 244 60 225 q 66 269 66 258 l 66 293 q 70 374 66 334 q 73 456 73 415 q 69 517 73 488 q 45 510 56 510 q 20 513 34 510 q 1 543 7 525 q -14 575 -4 560 q -6 618 -14 601 q 12 649 1 635 q 35 677 23 663 q 54 711 46 690 l 58 711 q 84 716 72 711 q 109 728 96 722 l 109 754 q 107 776 109 765 q 102 796 106 787 q 113 831 113 814 q 108 850 113 842 q 92 860 103 857 q 73 905 95 887 q 96 970 73 948 q 156 1008 119 991 l 160 1023 q 186 1014 175 1015 q 214 1017 198 1013 q 233 998 217 1002 q 259 990 248 994 l 258 975 q 262 937 256 955 q 278 901 269 918 q 271 879 273 890 q 270 857 270 868 q 272 821 270 838 q 273 784 274 803 l 283 785 q 300 798 289 793 q 321 804 311 802 q 343 810 332 807 q 361 823 354 814 q 381 821 372 821 q 415 826 399 821 q 448 838 431 831 q 481 849 464 844 q 517 854 498 854 q 529 854 524 854 q 540 853 534 853 q 555 860 555 853 q 566 872 556 867 q 581 871 570 871 q 633 876 608 871 q 686 880 659 880 q 711 879 699 880 q 735 872 723 878 l 745 886 q 870 859 811 882 q 993 818 929 837 q 1013 796 1001 806 q 1036 778 1024 787 q 1058 759 1047 769 q 1077 736 1069 749 l 1077 715 z "},"Ž":{"ha":1590,"x_min":-111,"x_max":1674,"o":"m 1674 118 q 1615 42 1674 56 q 1568 59 1599 57 q 1514 61 1537 61 q 1497 54 1503 61 q 1485 47 1492 47 q 1418 50 1451 47 q 1351 53 1385 53 q 1267 45 1310 53 q 1196 37 1225 37 q 1183 41 1188 37 q 1173 47 1179 45 q 1150 35 1161 43 q 1126 27 1139 27 q 1115 31 1120 27 q 1105 38 1109 35 q 1088 28 1095 35 q 1072 18 1081 22 q 1053 23 1062 23 q 1030 18 1042 23 q 1008 8 1019 14 q 985 7 997 7 q 963 8 974 8 q 936 7 949 8 q 911 -1 922 5 q 791 -14 850 -1 q 675 -45 732 -26 l 585 -75 q 574 -72 578 -75 q 567 -69 571 -69 l 560 -69 q 519 -91 544 -83 q 465 -104 494 -99 q 409 -115 437 -110 q 361 -127 381 -121 q 337 -141 347 -133 q 312 -153 327 -149 q 298 -153 305 -155 q 285 -152 292 -152 q 248 -161 270 -152 q 199 -180 227 -170 q 140 -199 171 -190 q 76 -208 109 -208 q 22 -203 54 -208 q -39 -189 -9 -199 q -90 -159 -69 -178 q -111 -109 -111 -140 q -103 -78 -111 -87 q -95 -53 -95 -69 q -97 -44 -95 -49 q -102 -37 -99 -39 q -53 26 -75 -7 q -14 96 -31 60 q 24 134 7 113 q 60 175 42 155 q 97 214 77 195 q 141 245 117 233 q 161 281 148 263 q 195 300 180 288 q 222 326 209 312 q 250 353 236 340 q 283 372 264 365 q 308 406 293 391 q 338 437 323 422 l 368 467 q 395 499 382 481 q 406 507 403 502 q 419 509 408 511 l 419 528 q 450 548 437 536 q 475 574 463 560 q 500 600 487 587 q 530 621 514 613 l 530 646 q 555 657 544 648 q 579 670 566 666 q 591 707 578 696 q 624 734 605 719 q 659 788 636 765 l 705 834 q 745 905 723 872 q 784 977 768 939 q 806 994 796 983 q 823 1017 815 1005 q 841 1039 831 1028 q 863 1058 850 1050 l 861 1065 q 868 1081 861 1074 q 875 1095 875 1088 q 872 1103 875 1097 l 859 1103 q 789 1096 827 1103 q 726 1074 751 1089 l 718 1074 q 659 1067 688 1074 q 600 1051 629 1059 q 541 1038 570 1043 q 481 1035 511 1032 q 444 1022 464 1027 q 410 1005 425 1017 q 336 992 377 1001 q 252 975 294 983 q 171 958 210 966 q 103 951 132 951 q 67 959 84 951 q 38 981 50 967 q 18 1012 26 994 q 11 1047 11 1029 q 20 1093 11 1067 q 41 1109 30 1103 q 60 1126 53 1115 q 85 1120 72 1123 q 113 1116 99 1116 q 137 1122 126 1116 q 151 1114 148 1123 q 161 1103 155 1105 q 220 1119 191 1108 q 279 1130 248 1130 q 312 1126 296 1130 q 462 1164 387 1147 q 609 1210 537 1180 l 627 1208 q 664 1211 646 1206 q 701 1214 682 1215 q 749 1237 722 1230 q 804 1249 776 1244 q 861 1261 833 1255 q 911 1282 888 1267 l 918 1282 q 969 1290 944 1282 q 1018 1308 994 1298 q 1065 1327 1042 1318 q 1111 1336 1088 1336 q 1173 1308 1147 1336 q 1149 1278 1158 1297 q 1161 1238 1161 1259 q 1156 1197 1161 1218 q 1149 1156 1150 1176 q 1088 1113 1111 1142 q 1038 1058 1066 1084 l 1038 1035 q 1008 1008 1020 1024 q 974 990 997 993 q 954 937 967 962 q 911 903 941 911 q 903 887 909 894 q 892 874 898 880 q 884 860 887 868 q 882 840 880 852 q 831 787 854 815 q 787 731 808 760 q 742 675 765 703 q 692 625 719 648 q 680 601 689 610 q 667 576 670 591 q 614 528 640 552 q 562 479 587 505 q 538 452 549 467 q 517 426 528 438 q 507 422 513 423 q 498 420 502 420 q 464 376 483 396 q 425 338 445 357 q 385 299 404 319 q 351 255 366 279 q 298 216 323 237 q 251 170 274 194 q 205 122 228 146 q 157 76 182 98 q 147 50 155 61 q 133 26 140 38 q 120 2 126 15 q 113 -27 114 -11 q 125 -30 119 -30 l 138 -30 q 191 -19 165 -30 q 239 3 216 -8 q 281 9 260 4 q 316 33 302 14 q 327 30 323 30 l 336 30 q 363 33 350 30 q 389 41 376 37 q 414 47 401 45 q 444 47 427 50 q 486 66 464 60 q 532 77 509 72 q 578 90 556 83 q 618 110 600 96 q 636 109 625 109 q 668 113 651 109 q 700 123 685 117 q 735 138 718 129 q 746 136 743 138 q 753 133 749 133 q 760 134 757 133 q 792 146 777 140 q 825 157 807 152 q 903 172 864 167 q 982 184 943 178 q 1017 193 1000 187 q 1051 202 1034 198 l 1058 202 q 1063 197 1061 202 q 1072 193 1065 193 q 1101 197 1085 193 q 1133 203 1118 201 q 1274 216 1199 216 q 1327 212 1301 216 q 1381 208 1354 208 q 1396 212 1390 208 q 1411 217 1402 216 l 1411 210 q 1416 193 1411 198 q 1440 201 1427 199 q 1465 202 1453 202 q 1529 197 1497 202 q 1592 193 1561 193 q 1630 197 1611 193 q 1643 185 1633 187 q 1660 178 1653 183 q 1674 118 1674 148 m 952 1786 q 944 1757 948 1773 q 933 1727 940 1742 q 916 1702 926 1713 q 890 1689 906 1691 q 831 1631 863 1657 q 770 1578 800 1605 q 711 1522 739 1552 q 666 1454 684 1492 q 635 1431 647 1446 q 614 1398 624 1416 q 594 1364 605 1381 q 567 1337 583 1348 q 545 1341 556 1339 q 524 1343 534 1343 q 499 1337 510 1343 q 490 1350 496 1345 q 480 1362 483 1354 q 438 1376 456 1366 q 406 1400 420 1386 q 375 1427 391 1413 q 339 1450 359 1440 q 331 1466 336 1459 q 324 1482 326 1472 l 320 1482 q 306 1489 311 1482 q 290 1492 301 1495 q 283 1512 290 1507 q 271 1527 275 1516 q 208 1571 239 1549 q 141 1611 176 1594 q 115 1621 127 1617 l 91 1629 q 75 1643 81 1633 q 57 1659 68 1653 q 20 1651 38 1657 q -16 1644 3 1645 q -69 1678 -31 1682 l -77 1699 q -80 1723 -80 1710 q -79 1737 -80 1732 q -65 1744 -69 1737 q -59 1759 -61 1750 q -57 1779 -57 1769 q -56 1796 -57 1789 q -28 1809 -42 1805 q -1 1824 -14 1813 q 72 1799 34 1816 q 145 1786 110 1782 q 171 1767 157 1775 l 199 1751 q 228 1734 214 1743 q 252 1712 241 1725 q 311 1687 285 1702 q 359 1652 336 1671 q 402 1611 381 1633 q 446 1567 423 1588 q 460 1563 454 1567 q 476 1561 465 1558 q 486 1545 481 1553 q 495 1527 491 1537 q 499 1528 498 1527 q 503 1529 500 1529 q 517 1525 510 1529 q 534 1522 525 1522 l 538 1522 q 553 1540 548 1530 q 563 1561 557 1550 q 589 1567 572 1569 q 697 1698 633 1640 q 826 1815 761 1756 q 831 1836 829 1824 q 841 1854 834 1847 l 854 1854 q 915 1834 888 1854 q 952 1786 941 1815 z "},"ž":{"ha":1092,"x_min":-138,"x_max":1564,"o":"m 1564 338 q 1543 302 1558 315 q 1507 282 1527 289 q 1464 273 1487 275 q 1424 269 1442 270 q 1390 248 1405 259 q 1359 225 1375 236 q 1123 189 1240 210 q 887 152 1006 167 q 845 138 871 141 q 791 132 819 134 q 736 125 764 130 q 689 109 709 121 q 518 79 601 104 q 488 85 503 83 q 457 88 472 88 q 433 86 446 88 q 411 73 419 84 q 334 92 378 99 q 269 133 297 109 q 227 195 241 157 q 227 229 228 217 q 208 254 225 240 q 214 269 208 263 q 221 283 220 274 q 216 307 216 293 q 224 353 216 330 q 227 400 232 377 q 270 459 245 431 q 319 513 294 487 q 370 567 345 540 q 416 624 395 594 q 463 649 442 632 q 504 685 484 666 q 544 722 524 704 q 591 750 564 739 q 600 764 594 758 q 613 776 606 770 q 626 788 620 781 q 635 804 632 795 l 623 804 q 500 797 562 804 q 379 779 439 789 q 259 758 319 769 q 138 741 199 747 q 88 719 115 728 q 35 700 61 709 q -17 678 8 690 q -61 648 -42 666 q -73 647 -65 647 q -99 653 -88 647 q -123 662 -110 659 q -132 703 -126 684 q -138 745 -138 723 q -133 774 -138 762 q -106 787 -114 774 q -84 808 -99 799 q -76 804 -80 804 q -64 810 -69 804 q -50 821 -58 815 q -31 830 -42 826 q -3 833 -20 834 q 74 860 38 854 q 153 872 110 865 q 168 879 164 875 q 178 891 172 883 l 206 890 q 323 897 264 887 q 439 920 381 907 q 555 941 496 932 q 674 944 614 949 q 705 952 689 951 q 736 954 720 954 q 784 949 758 954 q 832 935 810 945 q 869 905 854 924 q 883 860 883 887 q 876 833 883 845 q 860 810 869 821 q 840 789 850 799 q 819 769 829 779 q 791 734 804 753 q 761 701 779 716 q 747 697 751 703 q 732 692 742 692 q 712 662 715 684 q 642 627 675 647 q 586 571 608 606 q 532 531 557 553 q 484 484 507 509 q 439 435 461 460 q 392 387 416 410 q 382 349 389 366 q 368 312 376 331 q 377 286 368 297 q 387 258 387 275 q 454 248 420 251 q 522 244 487 244 q 590 249 556 244 q 654 269 624 254 q 696 263 674 263 q 753 269 726 263 q 810 274 781 275 q 880 291 844 286 q 951 299 916 296 q 1022 308 986 302 q 1092 328 1058 313 q 1127 327 1111 324 q 1162 330 1143 330 q 1195 321 1176 330 q 1240 340 1217 332 q 1289 349 1264 349 q 1308 347 1298 349 q 1325 342 1317 346 q 1339 347 1328 343 q 1362 355 1350 351 q 1385 363 1374 359 q 1398 366 1396 366 q 1409 360 1409 366 q 1415 354 1408 354 q 1459 363 1438 354 q 1504 372 1481 372 q 1522 370 1514 372 q 1541 366 1530 369 q 1550 349 1546 358 q 1564 338 1554 340 m 897 1564 q 888 1535 892 1550 q 878 1505 884 1519 q 861 1480 871 1491 q 834 1466 850 1469 q 776 1409 807 1435 q 714 1356 745 1382 q 656 1299 684 1329 q 610 1232 628 1270 q 580 1208 591 1223 q 559 1176 568 1194 q 538 1142 549 1158 q 511 1115 528 1126 q 490 1118 500 1116 q 468 1120 479 1120 q 444 1115 454 1120 q 434 1127 441 1123 q 425 1139 427 1131 q 382 1154 400 1143 q 350 1177 365 1164 q 319 1204 335 1191 q 283 1227 304 1218 q 275 1243 281 1237 q 269 1260 270 1249 l 264 1260 q 250 1266 255 1260 q 235 1270 245 1272 q 227 1289 235 1284 q 216 1305 220 1294 q 152 1349 183 1326 q 85 1389 121 1371 q 60 1398 72 1394 l 35 1407 q 19 1421 26 1411 q 1 1436 12 1431 q -35 1429 -18 1435 q -72 1421 -53 1423 q -125 1455 -87 1459 l -133 1477 q -136 1500 -136 1488 q -134 1515 -136 1510 q -121 1521 -125 1515 q -115 1537 -117 1527 q -113 1556 -113 1546 q -111 1573 -113 1567 q -83 1587 -98 1583 q -57 1602 -69 1591 q 16 1577 -22 1594 q 90 1564 54 1560 q 115 1545 102 1553 l 144 1529 q 172 1512 159 1520 q 197 1489 186 1503 q 255 1464 229 1480 q 303 1430 281 1449 q 347 1388 326 1411 q 391 1344 368 1366 q 404 1340 399 1344 q 420 1339 410 1336 q 431 1322 426 1331 q 439 1305 435 1314 q 444 1305 442 1305 q 448 1306 445 1306 q 462 1303 454 1306 q 479 1299 469 1299 l 483 1299 q 497 1318 492 1308 q 507 1339 502 1328 q 533 1344 517 1347 q 642 1476 578 1417 q 770 1592 705 1534 q 776 1613 773 1602 q 785 1632 779 1625 l 799 1632 q 859 1612 833 1632 q 897 1564 886 1592 z "},"½":{"ha":1541,"x_min":27,"x_max":1541,"o":"m 1541 95 q 1529 60 1541 72 q 1500 41 1516 49 q 1468 25 1484 33 q 1443 1 1451 18 l 1413 1 q 1337 -39 1374 -18 q 1263 -82 1301 -61 q 1188 -122 1226 -103 q 1108 -155 1150 -141 q 1061 -193 1088 -178 q 1006 -220 1035 -208 q 949 -247 978 -233 q 899 -281 921 -260 q 827 -292 863 -279 q 754 -305 792 -305 q 737 -300 742 -305 q 724 -294 732 -294 q 711 -297 716 -294 q 699 -300 705 -300 q 694 -297 697 -300 l 690 -293 q 669 -265 678 -282 q 659 -232 659 -248 l 659 -228 q 668 -201 659 -212 q 677 -175 677 -190 q 675 -159 677 -164 q 700 -140 692 -153 q 728 -125 708 -126 q 739 -95 730 -109 q 759 -68 747 -81 q 781 -41 770 -56 q 796 -8 792 -27 q 816 1 810 -7 q 834 11 822 9 q 840 20 838 15 q 843 31 841 26 q 848 39 845 35 q 860 41 852 42 q 874 86 863 69 q 899 117 886 103 q 925 147 913 132 q 941 186 937 163 q 973 205 962 191 q 995 235 985 220 q 1017 264 1005 251 q 1050 283 1029 278 q 1075 339 1058 311 q 1109 397 1092 368 q 1139 455 1126 426 q 1152 513 1152 484 q 1137 534 1152 525 q 1118 556 1123 544 q 1105 552 1109 556 l 1099 545 q 1090 540 1096 543 q 1073 537 1085 537 q 1014 526 1040 537 q 964 500 987 515 q 916 470 940 486 q 864 445 892 454 q 848 447 856 446 q 830 448 840 448 q 787 439 808 448 q 772 463 776 450 q 768 490 768 476 q 776 536 768 515 q 808 541 792 537 q 825 566 825 545 q 873 579 848 571 q 913 610 899 587 q 1024 650 970 631 q 1141 670 1078 670 q 1183 667 1161 670 q 1225 658 1204 665 q 1276 606 1253 631 q 1303 536 1298 581 q 1272 460 1289 496 q 1249 381 1256 423 q 1214 334 1230 359 q 1181 285 1198 309 q 1144 238 1164 260 q 1099 201 1124 216 q 996 52 1050 123 q 879 -85 943 -20 q 870 -111 876 -100 q 856 -130 864 -121 q 840 -150 848 -140 q 830 -174 833 -160 q 846 -179 836 -179 q 879 -171 861 -179 q 909 -155 897 -163 l 914 -155 q 950 -144 933 -155 q 986 -134 967 -134 q 1040 -104 1012 -115 q 1093 -71 1069 -92 q 1103 -75 1097 -75 q 1114 -76 1108 -76 l 1127 -76 q 1227 -27 1179 -53 q 1326 20 1275 -1 q 1363 48 1341 38 q 1408 66 1385 58 q 1453 83 1431 75 q 1492 109 1476 92 q 1515 100 1500 100 q 1541 95 1530 100 m 1084 1348 q 1070 1320 1080 1332 l 1053 1297 q 1038 1272 1044 1286 q 1029 1237 1031 1257 q 1000 1208 1015 1226 q 991 1169 985 1190 q 951 1121 968 1147 q 920 1067 935 1095 q 888 1014 905 1040 q 850 966 872 987 q 827 913 842 937 q 797 867 812 890 q 766 821 781 844 q 743 770 751 798 q 733 767 736 770 q 728 759 730 764 q 722 750 726 754 q 713 746 719 746 q 645 625 682 682 q 568 510 608 567 q 530 456 549 483 q 495 400 510 429 q 488 384 491 393 q 480 363 484 374 q 452 313 469 336 q 412 270 435 289 q 374 201 395 235 q 335 133 354 167 q 298 64 316 99 q 267 -8 281 28 q 245 -28 252 -14 q 233 -58 237 -42 q 224 -92 228 -75 q 213 -119 221 -109 q 215 -134 214 -126 q 216 -149 216 -141 q 189 -241 216 -199 q 121 -309 163 -283 q 84 -299 102 -300 q 47 -300 66 -298 q 41 -283 47 -289 q 27 -271 34 -278 q 35 -241 28 -254 q 47 -216 41 -228 q 59 -189 54 -203 q 62 -155 64 -175 q 80 -141 69 -146 q 96 -125 91 -136 q 95 -109 95 -119 q 101 -78 95 -91 q 115 -54 107 -65 q 128 -30 122 -42 q 134 1 134 -18 q 157 28 148 12 q 183 50 167 43 q 179 62 179 56 q 185 79 179 72 q 191 98 191 87 q 189 109 191 103 q 209 130 199 119 q 232 148 218 141 q 252 210 235 186 q 290 264 270 235 q 302 305 293 285 q 335 332 312 326 q 339 353 335 343 l 349 370 q 375 413 359 393 q 404 453 391 433 q 461 542 435 496 q 505 639 487 587 l 507 639 q 516 643 514 639 q 529 644 518 647 q 544 675 534 662 q 564 703 553 689 q 582 732 574 716 q 591 770 590 747 q 595 769 593 769 q 605 777 602 769 q 617 780 608 784 q 616 787 616 783 q 618 798 616 793 q 621 810 621 803 q 635 820 629 814 q 650 829 640 826 q 654 849 651 840 q 670 859 656 859 l 670 863 q 674 873 670 869 q 675 887 678 876 q 714 937 697 910 q 747 992 731 964 q 780 1047 762 1020 q 821 1096 798 1074 q 832 1131 823 1115 q 850 1161 841 1146 q 868 1192 860 1176 q 879 1227 876 1208 q 892 1239 884 1232 q 909 1256 901 1246 q 922 1274 917 1265 q 928 1290 928 1283 q 927 1297 928 1294 q 926 1306 926 1301 l 928 1310 q 935 1322 928 1313 q 949 1343 941 1332 q 963 1364 956 1355 q 971 1374 970 1373 q 989 1381 979 1379 q 1010 1383 1000 1383 q 1053 1375 1029 1383 q 1084 1348 1076 1367 m 370 1112 q 361 1067 370 1088 q 342 1027 353 1047 q 323 988 332 1008 q 315 945 315 968 q 289 907 298 929 q 272 860 279 884 q 256 812 264 836 q 232 770 247 788 l 232 742 q 197 632 197 694 q 198 604 197 617 q 203 575 199 590 q 195 577 197 575 q 189 581 193 579 l 189 536 q 164 513 164 537 q 133 508 148 511 q 103 505 118 505 q 90 505 96 505 q 76 507 83 506 q 51 550 64 529 q 38 597 38 571 q 47 626 38 614 q 62 652 56 637 q 70 678 68 665 q 75 704 72 692 q 84 727 79 716 q 102 746 90 738 q 121 828 107 793 q 170 898 136 863 q 163 909 167 905 q 159 921 159 914 l 160 926 q 174 943 170 932 q 189 960 178 954 q 197 1000 189 982 q 215 1038 206 1019 q 230 1081 224 1058 q 232 1135 236 1104 q 255 1164 239 1154 q 292 1173 271 1173 q 329 1168 311 1173 q 363 1154 347 1162 q 370 1112 370 1134 z "},"¼":{"ha":1657,"x_min":27,"x_max":1643,"o":"m 1643 882 q 1638 860 1643 871 q 1633 838 1634 849 q 1488 674 1552 761 q 1381 483 1424 587 q 1404 473 1388 473 q 1424 475 1415 473 q 1444 477 1434 477 q 1468 468 1459 477 q 1463 450 1465 458 q 1462 429 1461 441 q 1450 413 1458 418 q 1442 393 1442 408 q 1442 387 1442 391 q 1443 381 1443 384 q 1424 382 1436 382 q 1368 367 1389 382 q 1333 320 1347 351 l 1322 293 q 1301 275 1317 286 q 1278 254 1286 263 q 1273 240 1279 244 q 1268 225 1267 236 q 1238 193 1251 212 q 1216 153 1226 174 q 1196 112 1206 133 q 1171 75 1185 91 q 1156 26 1168 47 q 1133 -18 1143 5 q 1114 -62 1122 -39 q 1089 -100 1107 -84 q 1073 -176 1082 -141 q 1065 -199 1070 -182 q 1055 -237 1061 -217 q 1044 -273 1048 -256 q 1040 -290 1040 -289 q 1043 -302 1040 -297 q 1050 -311 1046 -307 q 1057 -321 1054 -316 q 1059 -335 1059 -327 q 1042 -372 1059 -355 q 1016 -407 1024 -389 l 922 -368 q 903 -330 924 -346 q 916 -271 909 -300 q 922 -213 924 -243 q 942 -184 936 -202 q 953 -148 948 -167 q 964 -112 958 -129 q 986 -85 971 -95 q 1001 -5 990 -39 q 1027 60 1012 30 q 1060 121 1043 91 q 1093 191 1077 152 q 1095 197 1095 193 q 1090 208 1095 205 q 1085 214 1085 212 q 1089 221 1085 217 q 1097 214 1092 214 q 1104 220 1101 214 q 1109 232 1107 225 l 1115 247 q 1122 259 1118 255 q 1107 266 1116 266 q 1086 260 1096 266 q 1066 254 1077 254 q 1054 259 1062 254 q 970 233 1015 240 q 883 225 926 225 q 827 228 856 225 q 772 235 799 231 q 762 250 769 245 q 743 254 754 254 q 734 291 735 273 q 724 328 734 309 q 743 374 730 354 q 768 414 755 395 q 792 455 781 433 q 806 507 803 477 q 823 519 817 510 q 841 532 830 528 q 838 548 838 537 q 841 566 838 560 q 874 600 861 579 q 899 643 887 621 q 926 684 911 665 q 963 716 940 704 q 991 712 977 715 q 1020 709 1005 709 q 1032 710 1027 709 q 1044 712 1038 711 q 1050 701 1047 707 q 1059 693 1053 694 q 1046 656 1057 673 q 1025 625 1036 640 q 1004 593 1013 609 q 991 556 994 576 q 947 484 963 525 q 913 406 930 444 q 939 391 924 395 q 968 388 954 388 q 1005 389 987 388 q 1042 391 1023 391 q 1111 400 1077 391 q 1180 410 1145 410 q 1201 425 1192 416 q 1219 439 1210 433 q 1236 489 1227 461 q 1268 526 1244 517 q 1284 583 1272 559 q 1312 630 1297 608 q 1340 675 1326 652 q 1362 727 1354 699 q 1381 736 1375 727 q 1390 755 1386 745 q 1401 774 1394 766 q 1424 780 1408 781 q 1434 812 1426 795 q 1455 847 1443 829 q 1477 884 1466 865 q 1492 921 1488 902 q 1506 926 1500 922 q 1516 934 1511 930 q 1529 939 1522 937 q 1546 940 1535 941 l 1550 941 q 1556 939 1554 941 q 1558 934 1557 937 q 1560 928 1558 930 q 1568 926 1563 926 q 1581 927 1575 926 q 1595 928 1588 928 q 1603 927 1599 928 q 1609 926 1606 926 q 1627 905 1619 917 q 1643 882 1634 894 m 1063 1316 q 1043 1255 1058 1282 q 1005 1203 1028 1227 q 998 1177 1005 1188 q 991 1150 991 1166 q 937 1082 960 1119 q 892 1007 914 1044 q 847 934 871 970 q 792 868 823 898 q 771 824 785 844 q 742 785 757 804 q 713 747 727 766 q 694 703 700 727 q 671 683 678 697 q 659 652 663 669 q 640 640 647 650 q 621 625 632 631 q 604 583 617 601 q 577 547 591 564 q 550 512 563 530 q 533 468 537 494 l 519 468 q 511 437 519 450 q 489 412 502 423 q 464 388 476 400 q 446 361 452 376 q 410 292 431 323 q 358 235 389 262 q 339 194 351 212 q 315 159 327 176 q 292 123 302 142 q 277 79 281 104 q 250 54 259 69 q 232 21 240 38 q 214 -12 224 4 q 189 -38 205 -28 q 191 -49 191 -43 q 184 -70 191 -60 q 174 -91 176 -80 q 185 -109 179 -100 q 198 -125 191 -117 l 198 -193 q 142 -256 182 -236 q 58 -277 102 -277 l 43 -277 q 38 -264 41 -271 q 27 -255 35 -258 q 38 -186 30 -220 q 43 -115 46 -152 q 54 -96 50 -107 q 63 -73 58 -84 q 74 -52 68 -62 q 92 -38 80 -42 l 92 -8 q 115 20 104 4 q 134 50 125 35 q 155 79 144 65 q 183 104 167 94 q 198 141 186 125 q 213 176 210 157 q 231 191 224 182 q 245 209 239 199 l 259 228 q 277 244 266 237 q 301 308 285 278 q 339 365 317 338 q 357 385 347 376 q 373 406 366 395 q 389 435 384 420 q 412 458 395 450 q 429 498 418 479 q 461 526 439 517 q 467 551 465 538 q 471 575 469 564 q 534 653 506 612 q 582 742 563 694 q 605 757 594 747 q 627 774 616 766 l 627 779 q 631 800 627 791 q 641 816 636 808 q 650 832 646 823 q 655 853 655 841 q 666 861 662 856 q 674 871 670 865 q 683 881 678 876 q 694 887 688 886 l 694 890 q 698 899 694 897 q 699 911 701 902 q 724 933 713 921 q 747 956 734 945 q 756 978 751 967 q 772 994 761 989 q 793 1043 780 1020 q 820 1088 806 1066 q 850 1133 834 1111 q 879 1179 865 1156 l 895 1208 q 918 1232 903 1223 q 917 1241 917 1237 l 917 1251 q 935 1305 917 1282 q 967 1354 952 1329 q 970 1354 968 1354 q 974 1355 971 1355 q 981 1350 981 1355 q 987 1344 981 1344 l 991 1344 q 1020 1354 1005 1354 q 1046 1341 1036 1354 q 1063 1316 1057 1329 m 368 1111 q 350 1079 361 1095 q 332 1046 339 1063 q 329 1034 330 1039 q 326 1021 328 1028 q 307 977 317 998 q 288 932 297 955 q 254 847 270 890 q 228 761 237 804 q 202 726 212 747 q 186 681 193 705 q 176 633 180 656 q 164 590 171 609 q 175 555 167 571 q 189 522 183 540 q 159 500 174 511 q 134 473 145 488 q 119 476 127 476 l 104 476 q 83 475 94 476 q 62 473 72 473 q 50 479 54 473 q 43 492 46 484 q 36 506 39 499 q 27 517 33 513 q 34 544 34 526 q 27 571 34 560 q 62 683 43 628 q 121 785 81 738 l 121 819 q 138 851 133 831 q 151 887 144 871 q 168 919 157 905 q 183 949 178 933 q 186 975 187 962 q 189 998 186 987 l 222 1086 q 235 1118 229 1100 l 245 1154 q 257 1189 251 1173 q 271 1213 263 1204 q 296 1227 282 1223 q 326 1232 311 1232 q 358 1227 342 1232 q 366 1185 366 1207 q 365 1164 366 1175 q 363 1142 363 1153 q 368 1111 363 1124 z "},"¹":{"ha":361,"x_min":14,"x_max":347,"o":"m 347 1058 q 338 1013 347 1034 q 319 973 330 993 q 300 934 309 954 q 292 891 292 914 q 265 852 275 875 q 248 806 255 830 q 231 758 240 781 q 209 716 222 734 l 209 688 q 182 635 190 663 q 174 578 174 606 q 179 521 174 547 q 172 523 174 521 q 165 526 170 525 l 165 481 q 140 458 140 484 q 110 453 125 457 q 79 449 95 449 q 66 450 72 449 q 53 452 60 450 q 27 495 41 475 q 14 543 14 515 q 23 571 14 559 q 39 598 33 583 q 46 623 43 610 q 52 648 49 636 q 60 672 54 661 q 77 692 66 684 q 98 773 83 739 q 146 842 113 807 q 138 854 142 849 q 134 867 134 859 l 136 872 q 151 888 146 878 q 165 905 155 898 q 174 945 165 926 q 192 984 183 964 q 207 1026 201 1004 q 209 1080 213 1048 q 269 1119 222 1119 q 305 1114 288 1119 q 340 1100 323 1108 q 347 1058 347 1077 z "},"¾":{"ha":1906,"x_min":14,"x_max":1877,"o":"m 1439 1510 q 1415 1422 1434 1463 q 1375 1341 1397 1381 q 1335 1260 1354 1301 q 1309 1173 1316 1219 q 1276 1135 1289 1157 q 1251 1088 1263 1112 q 1227 1040 1240 1063 q 1196 998 1215 1016 q 1171 932 1188 963 q 1135 871 1154 901 q 1097 810 1116 841 q 1069 746 1078 780 q 1057 736 1062 743 q 1046 732 1053 730 q 1029 686 1042 709 q 1017 644 1016 663 q 967 570 993 606 q 917 498 941 534 q 871 422 892 461 q 836 342 850 384 q 795 292 814 317 q 768 235 777 267 q 735 199 749 220 q 712 156 722 179 q 708 144 709 151 q 704 133 707 138 q 698 123 701 127 q 692 114 694 118 q 665 75 677 95 q 646 31 652 56 q 612 -3 625 18 q 588 -45 600 -23 q 564 -87 576 -66 q 534 -125 552 -109 q 524 -169 530 -148 q 510 -213 518 -190 l 510 -216 q 517 -227 510 -225 q 529 -236 525 -229 q 524 -288 525 -263 q 519 -339 524 -313 q 487 -382 500 -359 q 461 -429 473 -406 q 437 -477 449 -453 q 408 -524 425 -502 q 363 -530 387 -532 q 321 -543 340 -529 q 301 -533 309 -540 q 282 -524 293 -526 l 282 -515 q 277 -505 282 -506 q 283 -456 279 -484 q 301 -412 286 -427 q 313 -349 302 -380 q 335 -290 323 -319 q 358 -231 347 -260 q 373 -168 369 -201 q 385 -158 380 -163 q 399 -155 389 -153 q 402 -132 399 -142 q 403 -110 406 -122 q 475 -14 442 -64 q 544 84 507 37 l 544 91 q 541 98 544 95 q 538 106 538 102 l 538 109 q 597 178 574 138 q 640 260 620 218 q 684 342 661 302 q 743 410 707 381 q 753 448 743 433 q 783 473 764 463 q 799 516 789 495 q 830 545 808 537 l 830 553 q 834 567 830 560 q 836 581 838 574 q 869 625 856 601 q 895 674 883 648 q 920 725 907 700 q 952 770 933 750 l 952 795 q 981 829 972 806 q 997 872 990 853 q 1007 878 1004 873 q 1017 887 1010 882 q 1029 922 1021 906 q 1050 949 1036 939 l 1050 985 q 1085 1025 1072 1001 q 1110 1075 1099 1050 q 1134 1125 1122 1100 q 1166 1169 1146 1150 l 1332 1549 l 1341 1549 q 1350 1552 1347 1552 q 1364 1544 1356 1552 q 1377 1529 1373 1535 q 1396 1533 1385 1533 q 1420 1526 1409 1533 q 1439 1510 1431 1519 m 1877 697 q 1853 660 1868 677 q 1824 626 1838 643 q 1801 589 1811 609 q 1794 545 1792 570 q 1767 508 1777 530 q 1740 468 1758 486 q 1737 455 1740 460 q 1736 439 1733 450 q 1657 300 1691 373 q 1595 153 1622 228 q 1579 134 1587 142 q 1561 118 1572 125 l 1561 114 q 1556 90 1561 99 q 1544 72 1550 80 q 1534 54 1538 64 q 1531 31 1530 45 q 1474 -83 1497 -24 q 1428 -203 1451 -142 l 1400 -269 q 1393 -285 1397 -277 q 1386 -300 1389 -293 q 1383 -316 1383 -307 q 1381 -332 1382 -326 q 1370 -378 1377 -355 q 1351 -422 1363 -401 q 1360 -440 1352 -434 q 1367 -458 1367 -446 q 1360 -484 1367 -473 q 1341 -505 1354 -494 q 1344 -517 1344 -513 q 1331 -538 1344 -532 q 1305 -544 1317 -544 q 1293 -543 1297 -544 q 1251 -471 1282 -500 q 1249 -442 1249 -457 l 1249 -415 q 1250 -367 1249 -393 q 1253 -313 1251 -340 q 1261 -260 1256 -286 q 1274 -213 1265 -235 q 1291 -183 1280 -197 q 1309 -155 1302 -170 q 1308 -146 1308 -152 q 1309 -138 1308 -141 q 1324 -98 1317 -121 q 1341 -54 1332 -76 q 1360 -13 1350 -33 q 1386 20 1371 7 q 1385 23 1386 23 l 1385 26 q 1392 49 1385 41 q 1396 75 1398 57 q 1419 113 1411 92 q 1430 157 1427 134 q 1351 139 1390 151 q 1270 127 1312 127 q 1222 136 1241 127 q 1184 144 1203 144 q 1172 142 1176 144 q 1094 203 1124 165 q 1046 289 1063 241 q 1055 345 1048 316 q 1072 402 1061 374 q 1100 455 1084 430 q 1138 498 1116 480 l 1138 502 q 1145 534 1138 518 q 1163 567 1153 551 q 1183 600 1173 583 q 1196 635 1192 616 l 1211 635 q 1263 629 1238 635 q 1313 614 1287 623 q 1320 581 1320 597 q 1296 510 1320 543 q 1245 454 1272 477 q 1246 439 1246 449 q 1233 390 1246 412 q 1219 340 1219 368 q 1229 316 1219 326 q 1252 300 1238 307 q 1280 287 1265 293 q 1303 274 1294 281 q 1324 272 1314 273 q 1344 271 1333 271 q 1407 279 1377 271 q 1469 296 1438 286 q 1493 302 1481 298 q 1501 309 1497 305 l 1510 317 q 1565 435 1558 365 q 1616 513 1594 472 q 1660 595 1638 553 q 1706 676 1682 636 q 1759 751 1729 716 q 1823 734 1797 749 q 1877 697 1849 720 m 661 620 q 634 553 651 585 q 602 487 617 521 q 564 464 582 476 q 544 425 547 452 q 518 410 524 425 q 506 381 513 396 q 464 357 484 370 q 431 323 444 345 q 305 195 346 282 q 286 197 300 197 q 261 193 275 197 q 243 176 247 190 l 224 180 q 205 182 216 183 l 205 189 q 200 203 205 198 q 190 213 195 209 q 180 222 184 217 q 175 235 175 227 q 191 261 180 250 q 212 283 201 273 q 235 306 224 294 q 252 332 245 317 q 295 354 275 340 q 326 391 315 368 q 380 424 357 403 q 422 469 403 445 q 462 519 442 494 q 506 566 481 545 l 500 585 q 500 604 499 593 q 494 605 499 605 q 478 600 483 605 q 465 594 473 594 q 456 598 458 594 q 448 604 453 602 q 414 595 433 595 q 380 594 395 594 q 302 564 347 564 q 243 586 267 564 q 218 646 218 608 q 224 667 218 656 q 228 688 231 677 q 263 718 248 700 q 292 757 278 736 q 319 796 305 777 q 354 829 334 815 q 387 897 366 867 q 427 958 407 928 q 463 1020 446 987 q 486 1096 479 1053 q 449 1114 471 1114 q 437 1112 446 1114 q 427 1105 427 1111 q 432 1096 427 1100 q 437 1088 437 1092 q 431 1082 437 1084 l 403 1082 q 395 1071 396 1078 q 389 1057 393 1063 q 326 1038 357 1054 q 277 994 294 1021 l 273 994 q 249 989 258 994 q 233 978 240 985 q 219 962 225 971 q 205 945 213 954 q 171 931 184 941 q 146 908 157 921 q 125 882 136 895 q 102 859 115 869 q 76 871 87 863 q 56 890 65 880 q 37 910 46 901 q 14 926 27 920 l 14 975 q 66 1026 35 1005 q 130 1065 98 1047 q 195 1103 163 1084 q 252 1150 227 1123 l 256 1150 q 290 1158 274 1150 q 323 1177 307 1166 q 356 1197 339 1188 q 393 1208 373 1206 q 409 1221 401 1215 q 418 1237 416 1226 l 426 1237 q 466 1240 446 1237 q 506 1242 486 1242 q 557 1231 537 1242 q 583 1219 576 1219 q 593 1221 589 1219 q 602 1222 597 1223 l 606 1222 q 627 1187 621 1207 q 632 1146 632 1166 q 625 1097 632 1123 q 608 1047 618 1072 q 581 1001 597 1023 q 548 966 566 979 q 551 952 551 962 q 544 927 551 939 q 528 905 537 916 q 510 882 518 894 q 500 853 502 869 q 485 840 490 850 q 467 829 480 829 q 444 779 461 800 q 418 732 426 758 q 446 724 430 724 q 479 733 464 724 q 500 742 494 742 q 507 734 507 742 q 515 727 506 727 q 524 729 519 727 q 534 731 529 731 q 568 722 553 731 q 606 716 583 713 q 626 696 618 708 q 640 672 633 685 q 650 646 646 659 q 661 620 655 632 z "},"³":{"ha":716,"x_min":14,"x_max":661,"o":"m 661 643 q 634 576 651 608 q 602 511 617 544 q 564 487 582 499 q 544 449 547 475 q 518 434 524 449 q 506 404 513 419 q 464 380 484 393 q 431 346 444 368 q 305 220 345 305 q 286 221 300 221 q 261 218 275 221 q 243 199 247 214 l 224 203 q 205 205 216 206 l 205 213 q 200 227 205 222 q 190 236 195 232 q 180 245 184 240 q 175 258 175 250 q 191 284 180 273 q 212 307 201 296 q 235 329 224 317 q 252 355 245 340 q 295 378 275 363 q 326 414 315 392 q 380 447 357 426 q 422 492 403 468 q 462 543 442 517 q 506 589 481 568 q 501 608 503 600 q 500 628 499 617 q 494 629 499 629 q 478 624 483 629 q 465 618 473 618 q 456 623 458 618 q 448 628 453 627 q 414 619 433 620 q 380 618 395 618 q 302 587 349 587 q 243 610 267 587 q 218 669 218 632 q 224 690 218 681 q 228 711 231 700 q 263 742 248 723 q 292 781 278 761 q 319 821 305 802 q 354 853 334 840 q 387 920 366 890 q 427 981 407 951 q 463 1043 446 1010 q 486 1119 479 1076 q 449 1138 469 1138 q 437 1136 446 1138 q 427 1128 427 1134 q 432 1119 427 1123 q 437 1111 437 1115 q 431 1105 437 1107 l 403 1105 q 395 1095 396 1101 q 389 1081 393 1088 q 326 1061 357 1077 q 277 1017 294 1044 l 273 1017 q 249 1013 258 1017 q 233 1001 240 1008 q 219 986 225 994 q 205 970 213 978 q 171 954 184 964 q 146 932 157 944 q 125 906 136 920 q 102 882 115 892 q 76 895 87 886 q 56 913 65 903 q 37 933 46 924 q 14 949 27 943 l 14 998 q 66 1049 35 1028 q 130 1088 98 1070 q 195 1126 163 1107 q 252 1173 227 1146 l 256 1173 q 290 1181 274 1173 q 323 1200 307 1190 q 356 1220 339 1211 q 393 1232 373 1229 q 409 1244 401 1238 q 418 1261 416 1249 l 426 1261 q 466 1264 446 1261 q 506 1267 486 1267 q 557 1255 537 1267 q 583 1242 576 1242 q 593 1244 589 1242 q 602 1245 597 1246 l 606 1245 q 627 1211 621 1230 q 632 1169 632 1191 q 625 1120 632 1146 q 608 1070 618 1095 q 581 1025 597 1046 q 548 989 566 1004 q 551 977 551 985 q 544 951 551 962 q 528 928 537 940 q 510 905 518 917 q 500 876 502 892 q 485 863 490 873 q 467 853 480 853 q 444 802 461 823 q 418 755 426 781 q 446 747 430 747 q 479 756 464 747 q 500 765 494 765 q 507 758 507 765 q 515 750 506 750 q 524 752 519 750 q 534 754 529 754 q 568 746 553 754 q 606 741 583 738 q 640 696 629 724 q 661 643 650 667 z "},"²":{"ha":798,"x_min":-27,"x_max":853,"o":"m 853 650 q 841 615 853 627 q 812 596 829 604 q 780 581 796 589 q 755 557 764 572 l 727 557 q 650 517 688 538 q 576 474 613 495 q 500 434 538 453 q 420 401 463 415 q 374 363 400 378 q 319 336 347 349 q 262 309 290 323 q 212 275 233 296 q 175 272 193 275 q 140 263 157 269 q 104 254 122 258 q 66 250 85 250 q 50 256 54 250 q 37 262 45 262 q 23 258 28 262 q 11 255 18 255 q 7 258 9 255 q 3 263 4 262 q -18 290 -9 274 q -27 324 -27 307 l -27 328 q -19 355 -27 345 q -11 381 -11 365 q -12 397 -11 392 q 12 416 4 403 q 41 430 20 429 q 51 460 42 446 q 71 487 60 473 q 94 515 83 500 q 109 547 104 529 q 128 557 122 548 q 148 567 134 566 q 153 576 152 571 q 156 587 155 582 q 161 594 157 591 q 172 595 164 597 q 186 642 175 624 q 212 673 198 659 q 237 703 225 688 q 254 742 250 719 q 286 762 274 747 q 307 791 297 776 q 330 819 317 806 q 362 838 342 833 q 387 895 370 867 l 420 952 q 451 1010 438 981 q 464 1067 464 1039 q 450 1090 464 1081 q 430 1111 437 1100 q 418 1107 422 1111 q 412 1101 415 1104 q 403 1096 408 1099 q 385 1093 397 1093 q 326 1082 353 1093 q 275 1055 300 1072 l 228 1024 q 176 1000 205 1009 q 160 1002 168 1001 q 142 1002 152 1002 q 99 994 121 1002 q 84 1019 88 1005 q 80 1046 80 1032 q 82 1069 80 1057 q 90 1092 84 1081 q 121 1097 104 1093 q 137 1120 137 1101 q 186 1135 160 1126 q 225 1165 213 1143 q 336 1206 282 1187 q 453 1225 391 1225 q 495 1223 473 1225 q 537 1214 517 1221 q 589 1161 566 1185 q 616 1092 612 1137 q 585 1015 601 1053 q 562 936 568 978 q 526 889 543 914 q 493 840 510 864 q 456 793 476 815 q 411 757 437 772 q 309 608 362 680 q 191 469 255 536 q 182 444 189 454 q 168 425 176 434 q 153 406 160 415 q 142 382 146 396 q 159 377 149 377 q 192 385 174 377 q 221 401 210 393 l 227 401 q 262 411 245 401 q 298 420 279 420 q 353 452 324 439 q 406 484 381 464 q 415 479 410 480 q 426 479 420 479 l 441 479 q 539 528 491 502 q 639 576 587 553 q 675 604 654 594 q 720 622 697 614 q 766 638 743 629 q 804 663 788 647 q 827 655 812 655 q 853 650 842 655 z "},"¦":{"ha":456,"x_min":41,"x_max":331,"o":"m 237 -243 q 219 -281 233 -267 q 186 -300 205 -294 q 147 -306 168 -305 q 106 -305 126 -307 q 93 -292 102 -300 q 76 -277 84 -285 l 60 -260 q 52 -247 53 -254 q 50 -234 50 -241 q 49 -221 50 -227 q 41 -109 41 -164 q 43 3 42 -54 q 57 29 47 12 q 68 54 66 46 q 68 73 69 62 q 66 91 66 83 l 66 126 q 68 161 66 144 q 81 250 72 202 q 111 334 91 298 q 133 338 122 336 q 155 339 144 340 q 197 326 176 338 q 235 304 217 315 q 244 269 237 285 q 254 233 251 252 q 245 210 248 222 q 235 187 241 198 q 235 129 236 159 q 216 18 229 72 q 199 -91 203 -35 q 203 -172 195 -133 q 237 -243 210 -212 m 331 977 q 319 971 324 974 q 311 963 313 968 q 312 883 316 925 q 306 829 309 856 q 300 776 302 803 q 298 749 298 762 q 300 720 297 735 q 281 707 289 718 q 273 686 274 697 q 285 663 273 670 q 265 638 277 648 q 242 619 254 628 q 220 600 231 610 q 203 572 209 589 q 197 575 201 574 q 190 576 193 576 q 176 575 183 578 q 163 572 170 572 l 151 576 q 125 690 123 628 q 132 807 126 751 q 124 814 132 814 q 117 823 117 814 q 125 843 118 829 q 136 861 132 857 q 133 872 133 867 l 133 884 q 151 945 136 916 q 168 1015 165 975 q 163 1030 170 1025 q 156 1044 156 1035 q 167 1092 165 1067 q 171 1139 168 1116 q 180 1190 174 1166 q 206 1232 186 1213 q 222 1233 214 1233 l 243 1233 q 302 1214 277 1229 q 323 1096 317 1154 q 331 977 328 1038 z "},"−":{"ha":1078,"x_min":20,"x_max":967,"o":"m 967 403 q 943 396 954 401 q 922 388 933 391 q 924 384 924 387 q 920 372 924 376 q 918 358 916 369 q 876 342 898 347 q 832 332 854 336 q 788 323 810 328 q 747 305 766 317 l 747 320 q 716 311 731 311 q 690 315 703 311 q 663 320 678 320 q 646 315 656 320 q 625 322 632 316 q 606 335 617 328 q 587 318 600 321 q 563 315 574 315 q 535 316 548 315 q 510 320 522 317 q 469 313 488 313 q 429 312 450 312 q 393 310 410 312 q 358 300 376 308 q 335 313 353 313 q 318 313 327 313 q 301 312 309 312 q 281 320 288 312 q 276 311 275 317 q 275 300 277 304 q 232 308 255 308 q 195 304 213 308 q 160 300 178 300 q 141 302 151 300 q 125 305 132 305 q 113 302 117 305 q 105 295 109 298 q 97 288 102 292 q 84 285 92 285 q 64 294 69 285 q 47 305 58 302 q 43 330 47 319 q 34 352 39 340 q 24 374 28 363 q 20 399 20 385 q 21 408 20 403 q 22 416 22 412 q 77 455 41 444 q 142 467 113 467 q 165 461 157 467 q 183 446 172 456 q 374 461 278 457 q 564 471 469 465 q 627 475 595 473 q 689 480 658 477 q 694 484 693 480 q 696 491 696 487 q 699 498 697 495 q 707 500 701 500 q 727 492 722 500 q 743 480 732 483 q 766 488 753 486 q 791 493 779 491 q 814 498 803 495 q 834 510 826 502 q 846 505 845 511 q 854 496 848 499 q 869 500 861 498 q 884 502 878 502 l 894 502 q 903 500 899 502 q 935 452 916 473 q 967 403 955 430 z "},"×":{"ha":913,"x_min":-56,"x_max":913,"o":"m 913 857 q 903 817 913 836 q 895 777 894 799 q 862 763 879 770 q 831 746 845 755 q 805 724 817 736 q 789 690 793 711 q 686 629 736 661 q 589 559 636 597 q 583 539 589 548 q 579 519 578 530 q 539 498 552 517 q 511 461 526 480 q 557 380 533 420 q 614 305 582 340 l 647 305 q 667 272 656 286 q 688 243 678 258 q 705 213 699 229 q 715 174 712 197 q 691 167 699 172 q 681 153 684 161 q 679 133 678 144 q 680 110 680 122 q 678 90 680 100 q 673 72 677 80 q 623 61 647 61 q 589 66 604 61 q 573 92 582 80 q 555 114 564 103 q 538 137 547 125 q 526 164 530 149 q 479 203 498 179 q 446 256 461 228 q 413 310 430 283 q 370 354 396 336 l 363 354 q 350 345 351 354 q 342 330 349 336 q 326 320 335 324 q 309 311 316 316 q 229 228 259 277 q 195 213 212 227 q 171 183 178 199 q 127 162 146 176 q 91 131 109 148 q 54 98 73 114 q 11 76 35 83 q -39 102 -22 80 q -56 155 -56 123 q -47 198 -56 178 q 112 326 34 262 q 274 452 190 391 q 273 458 273 454 q 276 470 273 465 q 278 481 279 475 l 278 486 q 239 534 258 509 q 202 585 221 560 q 161 631 183 609 q 113 671 140 654 q 114 677 114 673 q 110 685 114 681 q 109 694 106 689 l 69 713 q 62 739 66 728 q 54 762 57 750 q 73 798 58 785 q 108 816 88 810 q 150 825 127 822 q 190 830 172 827 q 235 786 213 808 q 288 749 258 764 q 302 721 293 734 q 327 704 311 708 q 359 637 336 665 q 410 583 381 610 l 414 582 q 443 587 431 582 q 463 602 454 593 q 479 621 472 610 q 498 642 487 631 q 571 689 540 659 q 633 753 602 719 l 643 753 q 654 755 650 753 q 662 761 659 757 q 662 772 665 765 q 741 811 705 787 q 808 869 777 836 q 843 875 826 869 q 879 880 860 880 q 911 869 897 880 q 913 857 913 865 z "}," ":{"ha":570,"x_min":0,"x_max":0,"o":""},"!":{"ha":426,"x_min":14,"x_max":357,"o":"m 357 1137 q 353 1079 357 1108 q 349 1023 349 1050 l 349 1004 q 351 987 349 996 q 331 881 338 935 q 313 772 324 827 q 297 699 307 735 q 291 680 294 689 q 285 661 288 670 q 280 637 282 650 q 275 614 278 625 q 262 569 269 591 q 248 524 255 547 q 222 442 236 483 q 195 361 208 401 q 175 278 183 320 q 167 194 167 236 q 174 181 167 187 q 191 170 182 175 q 211 159 201 164 q 225 151 221 155 l 225 138 q 217 106 225 118 q 198 87 209 95 q 176 71 187 79 q 157 49 164 62 q 148 52 153 50 q 137 53 142 53 q 111 46 123 53 q 83 39 98 39 q 58 52 68 39 q 35 72 49 65 q 24 140 34 107 q 14 209 14 174 q 18 250 14 237 q 35 286 23 262 q 35 294 35 290 q 34 302 34 298 q 40 341 34 323 q 45 380 46 359 q 71 444 61 410 q 91 512 81 477 q 111 580 100 547 q 141 642 122 613 q 149 682 142 663 q 156 722 156 701 q 152 745 156 734 q 170 791 167 762 q 171 842 172 819 q 181 873 178 857 q 190 905 184 888 q 189 916 190 910 q 189 926 189 921 q 196 987 189 958 q 203 1048 203 1017 q 180 1114 203 1089 q 179 1124 179 1119 l 179 1137 q 188 1183 179 1161 q 195 1230 197 1206 q 222 1242 209 1237 q 250 1248 235 1248 q 307 1225 282 1248 q 351 1181 331 1202 q 357 1137 357 1161 m 270 -369 q 269 -382 270 -376 q 264 -395 267 -388 q 227 -405 245 -401 q 190 -414 209 -408 q 170 -440 179 -426 q 141 -458 161 -454 q 96 -423 113 -449 q 79 -366 79 -397 q 88 -325 79 -339 q 110 -302 98 -311 q 132 -283 122 -293 q 141 -258 141 -274 q 157 -256 148 -256 q 187 -271 176 -256 q 210 -297 198 -285 q 229 -313 218 -305 q 248 -329 239 -320 q 263 -347 256 -338 q 270 -369 270 -357 z "},"\"":{"ha":665,"x_min":56,"x_max":665,"o":"m 665 1306 q 657 1256 665 1280 q 631 1213 650 1232 q 610 1126 621 1169 q 589 1040 600 1084 q 581 998 585 1019 q 572 956 578 977 q 565 936 570 947 q 553 921 560 925 l 553 887 q 541 867 545 878 q 529 849 537 856 q 533 825 533 837 q 524 785 533 804 q 514 749 514 765 q 524 699 514 722 q 534 650 534 675 q 513 599 534 620 q 471 562 492 578 q 458 570 467 568 q 442 571 449 572 q 401 654 419 614 q 382 743 382 693 q 398 842 382 791 q 426 940 414 894 q 441 987 433 964 q 456 1034 449 1009 q 468 1087 463 1061 q 480 1141 473 1114 q 498 1202 490 1172 q 514 1264 507 1233 q 519 1295 517 1279 q 524 1325 521 1310 q 551 1357 529 1348 q 593 1366 572 1366 q 627 1362 610 1366 l 659 1354 q 665 1306 665 1332 m 298 1194 q 288 1094 298 1142 q 262 998 277 1046 q 236 902 248 949 q 222 804 224 854 q 233 788 228 793 q 242 778 237 783 q 252 766 247 773 q 262 746 256 760 q 270 741 263 741 q 281 742 277 742 q 271 720 274 732 q 266 693 269 707 q 258 669 263 680 q 241 652 252 658 q 191 646 216 651 q 138 640 165 640 q 98 650 114 640 q 73 675 81 659 q 60 711 64 690 q 56 751 56 731 q 65 835 56 793 q 85 917 75 876 q 100 962 92 940 q 115 1008 109 985 q 128 1075 123 1040 q 149 1141 133 1109 q 149 1162 149 1152 q 148 1184 148 1173 q 155 1240 148 1215 q 183 1286 161 1264 q 220 1293 201 1293 q 262 1281 243 1293 q 296 1252 281 1270 q 298 1223 297 1237 q 298 1194 298 1208 z "},"#":{"ha":1572,"x_min":-14,"x_max":1545,"o":"m 1545 425 q 1544 408 1545 414 q 1467 385 1504 395 q 1388 369 1430 376 q 1358 360 1373 366 q 1329 350 1344 354 l 1093 283 q 1070 277 1085 281 l 1040 269 q 1012 260 1025 264 q 993 252 998 255 q 960 207 971 241 q 941 130 948 172 q 928 48 933 88 q 916 -15 924 8 q 923 -73 924 -43 q 929 -132 922 -103 q 909 -140 914 -132 q 903 -158 905 -148 q 901 -180 902 -168 q 890 -199 899 -191 q 838 -193 864 -198 q 784 -190 811 -189 q 763 -148 769 -171 q 741 -107 757 -125 l 739 -103 q 746 -98 739 -96 q 755 -99 753 -99 l 760 -98 q 774 -36 769 -69 q 780 27 780 -3 l 780 42 q 779 58 780 50 q 800 119 792 88 q 808 183 808 151 l 808 189 q 761 198 783 198 q 719 193 739 198 q 677 181 699 187 q 636 168 656 175 q 594 160 616 161 q 580 154 585 159 q 572 143 575 149 q 564 132 568 137 q 551 126 559 127 l 552 129 q 545 135 552 134 q 536 136 538 136 q 526 134 533 136 q 517 130 519 132 q 477 111 494 123 q 460 72 460 98 q 460 62 460 66 q 463 53 461 58 q 469 50 465 50 q 479 55 473 50 q 494 60 484 60 q 498 59 496 60 q 502 58 499 58 q 505 39 502 46 q 513 26 509 33 l 522 14 q 530 0 528 8 q 519 -39 528 -20 q 507 -77 511 -58 q 478 -96 491 -85 q 453 -117 465 -106 q 429 -121 442 -121 q 386 -114 407 -121 q 342 -107 365 -107 q 315 -56 323 -83 q 308 3 308 -28 q 311 46 308 26 q 316 88 313 66 q 252 96 285 96 q 202 94 228 96 q 152 91 176 91 q 112 94 132 91 q 73 107 92 98 q 61 138 64 122 q 58 172 58 153 l 58 195 q 60 218 58 208 q 110 242 83 237 q 164 247 137 247 q 216 245 190 247 q 269 243 241 243 q 326 248 297 243 q 381 273 355 254 q 389 311 382 292 q 414 340 395 331 q 436 426 420 384 q 481 500 452 468 q 478 537 481 519 q 477 574 475 555 q 429 571 454 571 q 385 555 404 571 q 349 562 365 562 q 292 552 319 562 q 237 543 266 543 q 206 548 218 543 q 177 536 191 540 q 148 525 163 532 q 107 530 127 530 q 45 515 75 530 l 41 515 q 22 521 28 514 q 0 525 15 528 q 4 544 4 533 q -3 583 4 564 q -14 623 -11 602 q 0 633 -8 629 q 16 639 8 636 q 31 646 24 642 q 41 661 38 651 q 54 656 50 662 q 69 651 58 651 q 95 660 77 651 q 118 675 113 669 q 130 671 123 673 q 141 665 136 670 l 146 665 q 155 671 153 665 q 163 677 156 677 q 175 675 170 677 q 187 674 180 674 q 219 677 203 674 q 250 681 235 681 q 259 680 254 681 q 269 675 264 678 q 289 682 277 681 q 307 690 301 682 q 360 695 334 690 q 412 706 387 700 q 464 717 438 712 q 517 719 490 722 q 528 729 524 722 q 540 739 533 736 q 568 844 553 792 q 583 951 583 897 q 579 997 583 974 q 598 1046 589 1019 q 670 1076 628 1076 q 731 1046 708 1076 q 730 1025 730 1039 q 750 948 730 985 q 739 864 747 905 q 726 784 731 823 q 742 776 734 777 q 760 774 750 774 q 818 783 789 774 q 876 788 846 791 q 945 802 910 799 q 1012 817 979 806 q 1022 844 1019 827 q 1038 865 1025 860 q 1034 879 1034 871 q 1047 927 1034 905 q 1061 975 1061 949 q 1057 991 1061 983 q 1075 1017 1069 1002 q 1096 1040 1081 1032 q 1091 1050 1092 1044 q 1090 1059 1090 1055 l 1090 1080 q 1109 1099 1100 1088 q 1126 1120 1118 1109 q 1145 1137 1135 1130 q 1171 1143 1156 1143 q 1213 1124 1198 1143 q 1241 1085 1227 1104 l 1241 1081 q 1236 1045 1241 1061 q 1225 1016 1232 1029 q 1211 989 1219 1002 q 1198 959 1203 975 q 1192 911 1198 928 q 1177 865 1187 894 q 1221 856 1198 856 q 1278 864 1251 856 q 1336 872 1306 872 l 1345 872 q 1358 871 1351 872 q 1380 876 1369 873 q 1401 884 1392 878 q 1451 861 1430 879 q 1499 836 1472 842 q 1500 819 1500 830 q 1481 770 1500 785 q 1436 748 1462 755 q 1381 735 1409 741 q 1333 715 1352 730 q 1293 720 1316 719 q 1256 730 1271 720 q 1202 715 1229 719 q 1149 709 1176 712 q 1101 654 1115 686 q 1086 583 1086 623 q 1054 499 1065 543 q 1028 412 1043 456 q 1053 408 1038 408 q 1095 416 1074 408 q 1135 431 1115 423 q 1145 431 1141 431 q 1157 430 1150 430 q 1223 440 1191 430 q 1290 450 1256 450 q 1305 449 1297 450 q 1320 448 1313 448 q 1336 456 1331 448 q 1352 467 1341 464 q 1377 463 1362 463 q 1405 467 1392 463 q 1434 472 1419 472 q 1455 467 1446 472 q 1493 476 1474 476 q 1530 462 1515 476 q 1545 425 1545 448 m 949 642 q 928 648 939 647 q 907 650 918 650 q 852 644 880 650 q 798 639 825 639 q 783 640 791 639 q 769 642 776 640 q 763 628 765 635 q 754 617 761 621 l 727 617 q 696 614 712 617 q 668 606 681 612 q 647 587 655 600 q 629 552 639 575 q 609 503 620 529 l 589 452 q 570 408 579 426 l 570 401 q 564 371 570 384 q 552 347 559 358 q 539 323 545 335 q 530 296 533 312 l 533 296 q 608 302 571 296 q 681 315 644 308 l 754 330 q 827 340 791 338 q 850 355 838 350 q 871 369 861 361 q 878 408 872 389 q 891 444 884 426 q 904 481 898 463 q 910 519 910 499 q 929 538 920 533 q 928 559 928 545 q 935 601 928 581 q 949 642 943 621 z "},"$":{"ha":1238,"x_min":20,"x_max":1169,"o":"m 1169 247 q 1127 178 1153 208 q 1069 127 1101 149 q 1002 87 1038 104 l 932 52 l 849 9 q 842 8 848 8 q 831 11 836 8 q 819 14 826 14 q 764 -7 792 -1 q 705 -18 735 -14 q 646 -28 675 -23 q 590 -45 617 -33 q 575 -72 581 -57 q 557 -98 570 -87 q 516 -221 541 -161 q 463 -339 491 -281 l 406 -456 q 357 -575 377 -514 q 358 -591 358 -581 q 346 -640 358 -617 q 317 -682 334 -663 q 298 -677 307 -681 q 279 -673 290 -673 q 270 -677 274 -673 q 245 -646 259 -659 q 221 -618 232 -633 q 234 -570 229 -598 q 245 -513 239 -541 q 263 -460 252 -484 q 294 -423 274 -435 q 290 -403 290 -414 q 303 -351 290 -378 q 334 -307 316 -324 q 332 -296 332 -302 q 340 -245 332 -270 q 357 -195 349 -220 q 374 -146 366 -170 q 382 -98 382 -122 q 378 -92 382 -95 q 372 -83 373 -88 l 363 -83 q 335 -88 349 -83 q 307 -94 321 -94 q 285 -83 292 -94 q 165 -115 229 -115 q 60 -88 106 -115 q 56 -24 60 -57 q 111 -3 81 -12 q 170 7 141 7 q 206 0 186 7 q 275 9 239 5 q 347 18 311 12 q 416 33 382 23 q 479 58 450 42 q 490 57 484 57 l 503 57 q 599 71 552 57 q 693 92 646 85 q 730 111 713 103 q 770 117 746 118 q 823 136 796 127 q 872 160 849 144 l 880 160 q 918 174 903 160 q 949 198 933 187 q 987 221 968 212 q 1008 256 1006 231 q 985 295 1001 279 q 943 311 968 311 q 917 305 928 311 q 885 319 903 312 q 847 331 867 326 q 808 340 827 336 q 774 345 789 345 q 758 345 766 346 q 741 343 749 343 q 602 354 670 343 q 461 365 533 365 q 426 363 444 365 q 392 359 408 362 q 345 376 370 370 q 294 385 320 381 q 244 395 269 389 q 201 412 220 400 q 191 410 194 414 q 187 402 189 407 q 184 393 186 397 q 176 389 182 389 q 156 393 171 389 q 136 400 141 397 q 52 469 83 422 q 20 572 20 515 q 31 636 20 604 q 58 659 45 648 q 75 690 71 670 q 137 735 119 697 q 339 859 240 795 q 547 972 438 922 q 543 997 543 985 q 545 1013 543 1005 q 557 1027 548 1021 q 556 1043 556 1035 l 556 1059 q 565 1142 556 1101 q 586 1223 574 1183 q 610 1303 598 1263 q 625 1386 621 1344 q 637 1421 633 1402 q 643 1457 642 1439 q 645 1495 644 1476 q 648 1531 646 1514 q 681 1544 663 1544 l 715 1544 q 732 1544 724 1544 q 746 1546 739 1545 q 766 1520 761 1535 q 785 1493 772 1504 q 763 1379 779 1435 q 730 1267 747 1322 q 699 1155 713 1211 q 678 1040 684 1099 q 690 1038 686 1038 q 718 1046 705 1038 q 746 1055 731 1055 q 765 1050 758 1055 q 827 1084 789 1074 q 898 1095 865 1095 q 935 1091 916 1095 q 970 1081 954 1088 q 1002 1061 987 1074 q 1024 1031 1016 1048 q 1019 1013 1023 1020 q 1010 1000 1015 1006 q 1001 985 1005 993 q 997 967 997 978 q 998 960 997 964 q 998 952 998 956 q 958 929 979 941 q 921 901 937 917 q 861 913 890 906 q 800 920 831 920 q 779 912 791 920 q 761 901 768 905 q 692 884 724 897 q 627 857 659 871 q 562 830 594 842 q 494 812 529 818 q 445 773 471 788 q 387 754 419 758 q 349 722 369 735 q 309 696 330 708 q 267 672 288 684 q 225 646 245 661 q 200 618 214 631 q 172 593 186 606 q 184 553 174 567 q 212 528 195 538 q 246 509 228 518 q 279 486 264 499 l 283 486 q 330 479 307 486 q 377 473 353 473 l 391 473 q 406 476 399 473 q 426 467 414 469 q 451 463 438 464 q 476 459 464 461 q 499 452 488 457 q 530 457 511 457 q 574 452 553 457 q 618 448 595 448 q 635 450 627 448 q 650 453 643 453 q 657 449 655 453 q 663 442 659 445 q 688 445 675 445 l 712 445 q 868 427 787 445 q 1019 384 949 410 q 1078 333 1042 351 q 1150 296 1115 315 q 1159 271 1152 281 q 1169 247 1166 262 z "},"%":{"ha":1637,"x_min":20,"x_max":1541,"o":"m 1242 943 q 1229 912 1234 929 q 1216 879 1223 895 q 1198 850 1208 863 q 1171 831 1188 837 l 1171 822 q 1164 802 1171 808 q 1161 777 1158 795 q 1076 671 1114 727 q 990 564 1038 614 q 982 566 987 566 q 968 561 972 566 q 958 556 963 556 q 951 559 954 556 q 910 503 929 532 q 871 448 891 475 q 828 394 850 420 q 780 345 806 368 q 743 278 765 309 q 696 217 720 247 q 650 156 671 187 q 616 88 628 125 q 606 85 609 88 q 595 81 602 81 q 562 13 581 45 q 527 -52 544 -19 q 498 -119 510 -84 q 487 -198 487 -155 l 487 -214 q 488 -229 487 -222 q 518 -258 502 -244 q 534 -292 534 -271 q 529 -316 534 -304 q 524 -342 524 -328 q 481 -349 502 -343 q 441 -355 461 -354 q 401 -336 418 -340 q 358 -327 385 -332 q 347 -304 351 -316 q 334 -283 343 -292 q 342 -241 340 -263 q 342 -198 343 -220 q 342 -155 342 -176 q 349 -113 343 -133 q 366 -85 359 -100 q 378 -52 373 -69 q 389 -18 384 -34 q 401 14 395 -1 q 408 17 406 14 q 411 24 410 20 q 415 29 412 27 q 426 30 418 31 q 491 153 450 96 q 567 273 532 210 q 587 286 578 278 q 605 301 595 294 q 623 334 612 319 l 646 363 q 668 393 658 378 q 684 427 678 408 q 707 447 699 434 q 724 473 716 460 q 741 499 731 487 q 766 515 750 511 q 779 551 769 537 q 802 577 789 564 q 823 604 814 590 q 834 642 833 618 q 841 637 838 637 q 846 640 844 637 q 854 642 848 642 q 878 678 864 661 q 905 713 891 696 q 930 748 918 730 q 951 788 943 766 q 968 794 962 789 q 985 803 975 799 l 985 812 q 990 836 985 825 q 996 859 996 846 q 994 865 996 863 q 981 873 989 872 q 966 875 974 875 q 950 867 956 872 q 936 856 944 861 l 878 856 q 830 833 856 841 q 778 821 804 826 q 727 808 751 815 q 684 788 703 802 q 661 796 677 796 q 612 787 636 796 q 563 777 587 779 l 563 768 q 564 724 563 746 q 566 681 566 703 q 565 661 566 670 q 563 642 564 651 q 555 624 560 627 q 547 613 551 621 q 543 595 544 604 q 540 579 543 587 q 521 545 533 559 q 493 518 509 530 q 461 494 477 506 q 430 471 445 483 q 425 463 423 471 q 420 452 426 456 q 378 426 404 438 q 323 403 351 414 q 267 380 294 392 q 217 354 239 368 q 195 368 208 365 q 170 370 182 370 q 125 363 148 370 q 118 376 123 372 q 105 383 113 381 q 90 387 98 385 q 75 389 81 388 q 32 467 43 420 q 20 557 20 514 q 33 651 20 606 q 51 663 43 654 q 65 681 58 673 l 65 715 q 102 761 92 732 q 125 817 111 789 q 157 867 138 844 q 183 920 176 890 q 199 928 197 918 q 208 948 201 939 q 221 962 216 955 q 236 972 227 970 q 249 1000 239 990 q 266 1027 259 1010 q 298 1043 282 1032 q 330 1065 315 1054 q 361 1085 346 1076 q 388 1099 376 1095 q 404 1102 395 1101 q 420 1103 414 1103 q 467 1099 445 1103 q 514 1095 490 1095 q 532 1077 519 1082 q 553 1059 545 1072 q 554 1053 553 1057 q 555 1044 555 1048 q 554 1034 555 1039 q 553 1021 553 1028 q 526 1003 538 1008 q 495 1001 514 998 q 514 969 496 981 q 555 953 532 958 q 604 947 579 948 q 644 945 629 945 q 702 949 671 945 q 757 963 732 952 q 772 960 764 960 q 787 952 781 959 q 798 961 792 956 q 811 966 804 966 q 825 963 817 966 q 857 979 838 974 q 895 984 875 983 q 934 985 914 985 q 971 987 954 985 q 1008 997 989 990 l 1046 1012 q 1083 1026 1065 1020 q 1118 1032 1101 1032 q 1141 1030 1130 1032 q 1165 1028 1153 1028 q 1175 1029 1171 1028 q 1184 1031 1179 1029 q 1206 1012 1196 1020 q 1225 994 1217 1004 q 1238 972 1233 985 q 1242 943 1242 960 m 1541 184 q 1538 141 1541 163 q 1535 98 1535 119 q 1520 68 1525 83 q 1506 39 1515 53 q 1487 18 1497 27 q 1464 0 1476 9 q 1442 -21 1453 -9 q 1424 -49 1431 -33 q 1366 -98 1382 -61 q 1284 -140 1324 -117 q 1210 -190 1245 -163 q 1181 -191 1187 -187 q 1165 -214 1175 -195 q 1158 -214 1161 -214 q 1150 -213 1154 -213 q 1107 -220 1130 -213 q 1067 -239 1085 -228 q 1022 -240 1044 -239 q 977 -241 1000 -241 q 907 -233 940 -241 q 849 -194 873 -224 q 835 -115 838 -155 q 829 -35 831 -76 q 858 23 841 -4 q 883 81 875 50 q 895 89 890 84 q 907 98 901 94 q 927 142 913 123 q 958 176 941 160 q 991 208 975 191 q 1016 247 1006 224 q 1036 254 1028 248 q 1058 256 1043 259 q 1071 270 1069 260 q 1078 286 1073 279 l 1084 286 q 1120 298 1105 286 q 1154 309 1135 309 q 1171 305 1162 309 q 1214 330 1194 316 q 1259 354 1234 345 q 1281 355 1270 354 q 1305 355 1293 355 q 1365 349 1337 355 q 1419 315 1393 342 q 1478 294 1457 312 q 1525 252 1500 277 q 1529 227 1527 241 q 1541 205 1531 213 l 1541 184 m 1409 191 q 1409 197 1409 194 q 1408 205 1408 201 q 1371 226 1390 217 q 1331 237 1352 235 q 1311 220 1322 227 q 1287 209 1299 214 q 1263 197 1275 203 q 1242 179 1251 190 l 1242 170 q 1233 130 1242 152 q 1208 125 1217 130 q 1194 110 1199 119 q 1184 90 1188 100 q 1175 68 1180 79 q 1134 90 1152 75 q 1093 111 1116 106 q 1067 87 1078 100 q 1034 72 1055 75 q 1021 29 1029 50 q 1005 -14 1013 8 q 991 -57 997 -35 q 985 -102 985 -79 l 985 -113 q 1000 -122 996 -115 q 1016 -132 1005 -129 q 1053 -121 1035 -129 q 1090 -106 1072 -114 q 1126 -92 1108 -98 q 1165 -83 1145 -85 q 1172 -68 1168 -76 q 1184 -58 1176 -61 q 1210 -52 1196 -58 q 1237 -37 1223 -46 q 1264 -20 1251 -28 q 1291 -9 1278 -12 q 1315 20 1302 9 q 1350 30 1328 30 q 1392 106 1374 61 q 1409 191 1409 151 m 441 711 l 441 715 q 429 749 429 731 q 429 761 429 755 q 430 773 430 766 q 426 785 430 779 q 417 798 422 791 q 409 814 412 804 q 407 836 406 823 q 386 848 395 840 q 370 867 377 857 q 354 884 362 876 q 334 891 346 891 q 320 890 324 891 q 292 854 307 868 q 275 812 278 840 q 241 772 248 798 q 227 719 233 746 q 216 711 218 716 q 203 709 214 707 q 184 637 197 673 q 172 563 172 601 q 222 490 172 509 q 235 500 229 495 q 250 506 240 506 q 258 501 256 506 q 267 496 260 496 l 271 496 q 293 510 283 503 l 312 525 q 334 538 321 533 q 362 544 346 543 q 385 575 372 560 q 408 605 397 590 q 427 636 419 620 q 435 674 435 652 q 433 687 435 681 q 430 700 430 693 q 435 705 430 705 q 441 711 441 705 z "},"&":{"ha":1416,"x_min":-138,"x_max":1389,"o":"m 1389 528 q 1378 509 1385 517 q 1364 494 1371 502 q 1351 477 1356 486 q 1344 456 1345 468 q 1269 395 1303 429 q 1199 330 1234 361 l 1196 330 q 1190 328 1194 330 q 1183 324 1187 326 l 1179 330 q 1135 288 1156 311 q 1097 241 1115 264 l 1089 241 q 1071 235 1078 241 q 1053 232 1063 229 q 1031 208 1039 222 q 1009 183 1024 193 q 1056 150 1034 168 q 1092 106 1078 132 q 1118 96 1105 103 q 1141 80 1130 88 q 1163 65 1152 72 q 1190 56 1175 58 q 1248 12 1208 23 q 1302 -64 1283 -16 q 1321 -157 1321 -111 q 1310 -222 1321 -190 q 1276 -279 1299 -254 q 1284 -290 1284 -283 q 1283 -302 1284 -297 q 1282 -313 1282 -307 q 1232 -331 1263 -331 q 1208 -329 1221 -331 q 1184 -324 1196 -327 l 1184 -311 q 1183 -286 1184 -298 q 1181 -263 1181 -274 q 1185 -239 1181 -245 q 1194 -227 1190 -232 q 1203 -212 1199 -221 q 1207 -182 1207 -203 q 1205 -153 1207 -171 q 1197 -119 1203 -136 q 1181 -92 1191 -103 q 1156 -80 1171 -80 q 1141 -52 1152 -62 q 1116 -33 1130 -41 q 1087 -17 1101 -24 q 1062 3 1073 -9 q 1051 0 1055 3 q 1040 -3 1047 -3 l 1034 -3 q 1026 0 1029 -4 q 1019 8 1023 4 l 1012 18 q 1005 23 1009 23 q 999 22 1002 23 q 993 20 996 20 q 983 29 987 20 q 975 42 979 38 q 943 62 963 53 q 906 72 922 72 q 876 60 887 72 q 859 33 865 47 l 854 33 q 841 28 846 34 q 825 26 836 23 q 784 -16 804 5 q 751 -65 764 -37 q 732 -71 739 -65 q 718 -85 724 -77 q 706 -100 712 -94 q 692 -107 700 -107 q 684 -104 686 -107 q 645 -151 667 -130 q 598 -189 623 -171 l 549 -225 q 503 -266 525 -244 q 509 -273 505 -273 q 514 -281 514 -274 l 513 -285 q 507 -288 510 -288 q 502 -286 505 -288 q 494 -283 499 -283 q 490 -283 491 -283 l 488 -285 q 450 -312 472 -301 q 405 -333 427 -323 q 363 -357 382 -343 q 334 -392 345 -370 q 321 -388 327 -388 q 304 -399 308 -388 q 290 -411 300 -411 q 284 -410 288 -411 q 278 -410 281 -410 q 275 -411 277 -411 q 263 -422 269 -415 q 252 -437 258 -430 q 241 -448 247 -444 q 227 -450 235 -452 q 218 -466 220 -456 q 212 -483 216 -476 q 199 -477 203 -481 q 187 -473 195 -473 q 144 -494 168 -488 q 94 -500 119 -499 q 41 -501 68 -502 q -7 -503 15 -500 q -81 -468 -47 -490 q -129 -406 -114 -446 q -135 -389 -132 -400 q -138 -372 -138 -377 q -129 -290 -138 -330 q -104 -211 -119 -250 q -71 -135 -90 -172 q -37 -61 -53 -98 q -20 -53 -24 -61 q -3 -46 -15 -45 l -3 -12 l 16 -12 q 16 -7 16 -9 q 15 -1 15 -4 q 22 24 15 15 q 38 41 30 34 q 52 57 46 49 q 56 80 58 65 q 84 100 72 88 q 108 124 96 111 q 132 148 119 137 q 163 164 145 159 q 165 173 165 170 q 164 183 164 176 q 168 197 164 190 q 322 328 247 262 q 479 460 397 395 l 479 464 q 481 475 477 471 q 484 487 484 480 q 477 508 484 496 q 460 530 471 519 q 439 550 450 541 q 420 563 429 559 q 404 611 418 593 q 366 644 389 629 l 366 674 q 324 741 340 704 q 297 819 308 779 q 277 899 286 859 q 255 975 267 939 q 259 991 256 983 q 262 1006 262 998 q 250 1020 262 1020 q 261 1051 259 1032 q 266 1090 263 1070 q 276 1126 269 1109 q 304 1146 283 1142 q 311 1166 304 1158 q 317 1184 317 1173 q 363 1210 339 1199 q 401 1242 387 1221 q 421 1247 412 1244 q 439 1255 430 1251 q 457 1261 448 1259 q 479 1263 467 1264 q 513 1282 494 1275 q 552 1293 533 1289 q 589 1304 571 1298 q 620 1321 608 1310 q 644 1319 632 1320 q 669 1318 656 1318 q 710 1320 689 1318 q 751 1321 731 1321 q 778 1301 762 1308 q 810 1291 793 1295 q 844 1282 827 1287 q 873 1268 861 1278 q 889 1244 886 1259 q 907 1223 892 1229 l 907 1215 q 913 1173 907 1192 q 926 1133 918 1153 l 926 1115 q 918 1015 926 1063 q 899 921 910 967 q 875 828 887 875 q 854 732 863 781 q 816 673 829 708 q 795 605 803 639 q 770 578 776 597 q 751 547 765 560 q 744 541 749 544 q 735 536 739 538 q 705 511 719 525 q 684 479 690 498 q 696 444 688 460 q 715 415 705 429 q 736 388 726 401 q 755 358 747 374 l 774 358 q 779 349 779 354 q 780 339 780 343 q 810 323 799 335 q 833 298 822 311 q 859 275 845 285 q 898 266 873 266 q 923 298 907 285 q 956 325 939 312 q 987 352 972 338 q 1009 388 1001 366 q 1058 415 1036 397 q 1092 460 1080 433 q 1126 481 1111 468 q 1150 514 1142 494 q 1168 521 1164 514 q 1184 533 1173 528 q 1194 563 1187 551 q 1211 585 1202 575 q 1230 606 1219 595 q 1248 631 1240 617 q 1256 631 1252 631 q 1263 632 1260 632 q 1282 630 1274 632 q 1301 628 1290 628 q 1316 631 1308 628 q 1345 604 1329 616 q 1379 582 1360 591 q 1375 564 1375 574 q 1380 545 1375 553 q 1389 528 1385 536 m 770 168 q 762 184 769 179 q 754 201 754 190 q 755 208 754 205 q 755 213 755 210 q 712 242 731 224 q 675 279 693 260 q 635 315 656 298 q 586 339 614 331 l 586 343 q 577 359 586 355 q 557 362 568 362 q 517 334 537 347 q 476 305 498 320 q 455 293 467 298 q 435 281 444 288 q 427 267 430 277 q 420 251 423 256 q 382 235 396 248 q 347 213 368 221 l 347 193 q 315 165 328 182 q 290 131 302 148 q 264 98 278 114 q 231 71 251 81 q 227 57 231 61 q 227 42 224 53 q 184 13 203 27 q 163 -33 165 -1 q 114 -96 132 -58 q 75 -168 96 -133 q 66 -201 73 -186 q 50 -231 58 -217 q 33 -260 41 -245 q 26 -292 26 -275 q 31 -313 26 -302 q 42 -334 35 -324 l 46 -334 q 62 -329 56 -334 q 75 -318 69 -324 q 85 -307 80 -312 q 99 -301 91 -301 q 110 -304 106 -301 l 109 -296 q 111 -285 109 -290 q 119 -279 113 -279 q 132 -283 129 -279 q 142 -289 134 -286 q 227 -244 186 -269 q 313 -201 269 -220 q 327 -179 319 -186 q 345 -169 335 -172 q 365 -163 355 -165 q 382 -153 374 -160 q 389 -135 389 -146 q 392 -119 389 -123 q 405 -114 399 -117 q 418 -111 411 -111 q 430 -114 422 -111 q 494 -68 460 -90 q 547 -12 528 -47 q 609 27 579 8 q 667 67 639 46 q 720 113 694 88 q 770 168 746 137 m 776 1085 q 771 1126 776 1105 q 751 1161 766 1146 q 757 1166 757 1161 q 753 1174 757 1171 q 751 1184 750 1177 q 712 1192 732 1192 q 654 1184 684 1192 q 595 1180 625 1176 q 535 1150 568 1161 q 473 1125 502 1139 q 424 1087 444 1111 q 404 1019 404 1063 l 404 1004 q 406 990 404 997 q 412 973 410 983 q 420 956 414 963 q 414 944 418 948 q 411 932 410 940 q 420 910 420 924 q 415 887 420 901 q 435 852 426 867 q 445 810 445 837 q 474 766 458 787 q 499 718 490 745 q 524 686 514 707 q 543 646 533 666 q 565 609 553 625 q 595 591 576 593 q 608 604 604 597 q 616 618 612 612 q 628 629 621 625 q 648 631 635 632 l 648 654 q 689 701 674 671 q 715 764 704 731 q 736 829 726 796 q 765 887 747 863 q 758 932 758 911 q 767 1008 758 971 q 776 1085 776 1046 z "},"'":{"ha":357,"x_min":56,"x_max":357,"o":"m 357 1222 q 343 1147 353 1187 q 308 1082 334 1108 q 298 1040 307 1061 q 280 1000 289 1020 q 264 961 271 981 q 259 921 258 941 q 239 892 240 911 q 237 854 237 873 q 241 807 237 830 q 250 761 244 784 q 211 711 236 730 q 159 678 186 693 q 117 694 134 682 q 89 722 100 705 q 69 760 77 739 q 56 800 61 780 q 82 914 64 859 q 121 1024 100 970 q 159 1134 141 1078 q 187 1248 178 1190 q 245 1270 213 1268 q 308 1276 278 1272 q 335 1251 321 1263 q 357 1222 349 1240 z "},"(":{"ha":581,"x_min":27,"x_max":553,"o":"m 553 -410 q 513 -418 533 -418 q 467 -412 490 -418 q 422 -404 445 -407 q 403 -389 411 -395 q 378 -385 395 -384 q 315 -342 354 -357 q 276 -304 296 -321 q 237 -267 256 -286 l 198 -225 q 185 -211 191 -217 q 174 -198 179 -205 q 139 -142 155 -172 q 96 -94 123 -113 q 81 -41 91 -66 q 63 11 72 -15 q 47 62 54 37 q 41 117 41 88 l 41 133 q 43 151 41 141 q 38 172 39 159 q 27 189 37 184 q 40 241 39 213 q 41 296 41 270 l 41 316 q 43 335 41 330 q 49 349 43 340 q 55 372 53 359 q 60 397 57 385 q 65 444 62 418 q 72 496 68 469 q 83 547 76 522 q 102 587 90 571 q 119 669 106 631 q 148 745 132 708 q 180 821 164 783 q 203 901 195 859 l 222 910 l 222 916 q 227 932 222 925 q 235 945 231 939 q 244 958 240 951 q 247 978 248 966 q 275 1004 262 991 q 290 1040 288 1017 l 320 1059 q 345 1085 335 1069 q 373 1095 358 1095 q 398 1088 385 1095 q 423 1073 411 1081 q 448 1057 435 1065 q 475 1046 461 1048 q 471 1034 472 1039 q 469 1021 469 1028 q 473 997 469 1009 q 476 974 476 985 q 465 939 476 954 q 447 929 456 933 q 426 924 438 925 q 420 913 425 920 q 413 901 416 907 q 407 889 410 895 q 407 880 404 883 q 378 854 389 871 q 349 831 368 838 q 335 795 345 811 l 317 762 q 302 728 309 746 q 296 685 296 709 q 261 607 274 648 q 236 524 248 566 q 226 495 232 510 q 218 467 220 480 q 211 424 212 446 q 208 381 210 401 q 195 279 201 330 q 190 178 190 229 q 194 104 190 141 q 209 34 198 68 q 224 -1 214 15 q 241 -35 235 -16 q 265 -100 255 -66 q 296 -161 275 -133 q 333 -205 313 -184 q 368 -248 353 -225 q 408 -273 393 -255 q 442 -307 423 -292 q 462 -310 450 -309 q 480 -316 473 -311 l 496 -335 q 530 -367 514 -351 q 553 -410 547 -382 z "},")":{"ha":647,"x_min":27,"x_max":480,"o":"m 480 262 q 472 147 480 197 q 442 39 464 98 q 441 33 441 37 q 444 21 441 26 q 446 9 446 16 q 424 -33 433 -11 q 407 -76 415 -54 q 389 -119 399 -98 q 368 -161 380 -141 q 360 -170 361 -165 q 349 -171 359 -174 q 326 -229 340 -202 q 292 -282 311 -256 q 257 -334 274 -308 q 228 -391 240 -361 q 203 -395 217 -397 q 166 -456 193 -430 q 100 -483 140 -483 q 57 -472 79 -483 q 41 -439 50 -454 q 27 -404 31 -425 q 43 -391 31 -393 q 62 -381 56 -388 q 102 -327 71 -345 q 100 -317 100 -324 q 102 -305 100 -311 q 106 -293 104 -300 q 135 -257 123 -277 q 157 -217 146 -237 q 180 -177 168 -197 q 209 -141 191 -157 q 216 -111 209 -122 q 237 -88 224 -100 l 237 -64 q 261 -28 251 -50 q 280 17 271 -7 q 296 64 289 41 q 309 107 302 88 q 311 114 311 109 q 308 124 311 119 q 305 136 305 129 q 319 179 317 156 q 335 224 321 202 q 329 239 330 231 q 326 256 328 248 q 330 289 328 273 q 331 321 331 305 q 328 379 331 350 q 320 438 324 408 l 321 442 q 314 450 321 449 q 305 457 307 450 q 309 474 308 465 q 315 490 311 483 q 300 532 305 509 q 288 580 294 556 q 274 625 282 604 q 251 661 266 646 q 256 681 256 670 q 251 697 256 684 q 244 715 245 711 q 235 744 239 730 q 228 773 231 758 q 206 808 216 789 q 188 845 197 826 q 168 881 179 864 q 140 910 156 898 l 140 914 q 136 924 140 921 q 134 939 132 928 l 102 959 q 86 991 95 975 q 77 1027 77 1008 q 81 1046 77 1035 q 91 1049 85 1048 q 102 1050 96 1050 q 114 1053 109 1051 q 121 1059 119 1054 q 172 1032 149 1048 q 216 996 195 1016 q 255 956 236 977 q 296 914 274 935 q 312 866 300 887 q 345 826 324 845 q 392 701 366 762 q 437 574 418 639 q 480 262 480 419 z "},"*":{"ha":1107,"x_min":20,"x_max":1086,"o":"m 1086 453 q 1069 448 1080 448 q 1051 449 1058 449 l 1047 449 q 1031 431 1036 442 q 1015 414 1025 419 q 936 429 975 422 q 859 450 897 435 q 840 459 848 454 q 823 468 831 464 l 818 468 q 807 463 810 468 q 798 458 804 457 l 795 458 q 779 473 791 469 q 755 480 768 477 q 732 488 743 483 q 720 507 722 492 q 705 505 712 505 q 681 510 692 505 q 660 523 670 515 q 640 536 650 530 q 617 541 629 541 q 604 540 609 541 q 578 570 593 563 q 541 579 564 576 q 456 436 503 505 q 357 302 408 368 l 345 302 q 323 299 334 302 q 302 293 313 296 q 265 311 279 296 q 231 332 251 326 q 228 354 228 346 q 236 397 228 377 q 244 441 244 418 q 235 472 244 456 q 243 475 237 475 q 256 473 250 475 q 270 468 263 471 q 294 500 283 481 q 314 535 304 518 q 337 566 324 552 q 370 589 350 581 q 381 621 373 608 q 399 646 389 635 q 416 671 408 658 q 429 701 425 684 q 418 716 426 711 q 401 726 410 722 q 382 734 392 730 q 366 745 373 738 q 307 759 335 749 q 252 781 279 769 q 198 806 225 793 q 142 827 171 819 q 110 850 127 841 q 79 876 92 860 q 75 876 76 876 q 71 875 73 875 q 58 877 64 875 q 46 880 53 879 q 26 920 30 899 q 20 964 23 941 q 50 978 37 970 q 79 993 64 986 q 168 959 125 979 q 254 917 212 939 q 340 875 297 895 q 429 842 382 854 q 438 865 435 853 q 441 888 441 878 q 435 925 441 910 q 439 985 438 956 q 441 1044 441 1013 q 440 1080 441 1062 q 435 1115 439 1097 q 448 1126 445 1116 q 454 1145 450 1137 q 449 1168 452 1156 q 445 1194 446 1180 q 456 1215 452 1203 q 465 1238 460 1227 q 479 1255 471 1248 q 505 1261 488 1261 l 507 1261 q 541 1242 522 1251 q 571 1217 560 1234 q 568 1112 570 1164 q 567 1005 567 1059 q 571 890 567 948 q 625 920 601 902 q 673 959 650 939 q 722 999 697 979 q 774 1032 746 1019 q 795 1057 785 1044 q 818 1081 806 1070 l 818 1095 q 825 1121 818 1112 q 844 1145 833 1130 q 881 1140 859 1142 q 924 1132 903 1138 q 960 1113 945 1126 q 975 1078 975 1100 q 966 1038 975 1055 q 943 1006 956 1021 q 915 977 929 991 q 891 944 901 962 q 866 937 876 944 q 848 920 856 929 q 830 905 840 911 q 808 901 821 898 q 794 886 798 897 q 785 867 791 875 q 764 853 770 863 q 746 837 757 844 q 739 827 745 830 q 728 822 734 825 q 718 815 722 819 q 716 803 713 811 q 688 794 701 803 q 663 773 674 785 q 642 746 651 761 l 624 720 q 654 685 631 696 q 697 662 678 674 q 739 635 719 650 q 785 618 758 620 q 804 604 793 609 q 827 593 815 598 q 852 583 840 589 q 872 570 864 578 q 921 559 899 567 q 966 536 943 551 q 1008 532 987 536 q 1046 519 1029 529 q 1073 494 1062 510 q 1086 453 1084 479 z "},"+":{"ha":1226,"x_min":20,"x_max":1150,"o":"m 1150 496 q 1120 463 1139 475 q 1086 431 1101 450 q 1045 437 1065 433 q 1004 441 1025 441 q 972 436 989 441 q 945 416 956 431 q 836 428 891 427 q 727 431 781 429 q 660 410 696 412 q 590 397 624 407 q 579 334 585 366 q 574 271 574 302 q 579 225 574 250 q 604 189 585 201 q 604 115 602 148 q 590 43 605 83 q 577 49 583 46 q 564 52 571 52 q 543 43 552 52 q 525 22 533 34 q 508 0 517 11 q 487 -15 499 -11 q 429 14 457 -7 q 421 51 425 33 q 418 88 418 69 q 425 134 418 110 q 413 175 416 155 q 410 217 410 195 q 414 275 410 245 q 418 335 418 304 q 416 364 418 350 q 410 393 415 378 q 361 391 385 391 q 314 389 338 391 q 267 383 290 388 q 221 368 244 378 q 186 377 206 377 q 161 374 174 377 q 136 372 149 372 q 104 378 121 372 q 62 441 87 414 q 20 505 37 469 q 141 515 81 513 q 262 521 201 518 q 289 522 273 521 q 322 522 305 522 q 355 523 339 522 q 381 525 372 524 q 397 536 392 528 q 415 548 403 545 q 408 623 411 582 q 403 705 406 663 q 395 785 400 746 q 377 856 389 825 q 386 884 380 871 q 396 914 392 898 q 417 921 407 916 q 439 926 427 926 q 462 920 446 926 q 494 906 477 914 q 526 889 511 898 q 545 875 541 880 l 545 868 q 550 825 545 845 q 562 785 555 806 l 567 772 q 571 758 570 765 q 572 743 572 751 l 572 730 q 569 676 572 703 q 566 624 566 650 q 568 587 566 610 q 575 555 570 564 q 585 545 578 547 q 594 534 593 543 q 681 544 635 545 q 769 545 727 543 l 791 548 q 812 552 802 549 q 828 556 819 553 q 844 559 837 559 q 917 551 880 559 q 993 544 954 544 q 1062 555 1031 544 q 1112 532 1085 544 q 1150 496 1138 519 z "},",":{"ha":286,"x_min":-180,"x_max":133,"o":"m 133 -9 q 125 -32 133 -27 q 114 -49 117 -37 q 106 -83 110 -65 q 98 -117 103 -100 q 21 -260 71 -199 q -85 -384 -28 -321 q -121 -388 -104 -388 q -151 -381 -138 -388 q -178 -363 -163 -374 q -180 -345 -179 -354 q -180 -327 -180 -336 l -180 -301 q -178 -277 -180 -288 q -165 -254 -175 -262 q -155 -228 -156 -245 q -149 -229 -152 -229 q -138 -225 -142 -229 q -129 -224 -134 -221 q -68 -113 -94 -171 q -26 5 -42 -56 q -38 50 -33 28 q -56 94 -43 72 q -44 121 -47 106 q -35 151 -41 137 q -16 175 -28 165 q 23 184 -3 184 q 75 172 49 184 q 119 141 100 159 q 118 132 118 138 q 125 106 118 117 q 133 83 133 96 q 130 56 133 69 q 126 27 126 42 q 130 5 126 16 q 133 -9 133 -5 z "},"-":{"ha":1078,"x_min":20,"x_max":967,"o":"m 967 403 q 943 396 954 401 q 922 388 933 391 q 924 384 924 387 q 920 372 924 376 q 918 358 916 369 q 876 342 898 347 q 832 332 854 336 q 788 323 810 328 q 747 305 766 317 l 747 320 q 716 311 731 311 q 690 315 703 311 q 663 320 678 320 q 646 315 656 320 q 625 322 632 316 q 606 335 617 328 q 587 318 600 321 q 563 315 574 315 q 535 316 548 315 q 510 320 522 317 q 469 313 488 313 q 429 312 450 312 q 393 310 410 312 q 358 300 376 308 q 335 313 353 313 q 318 313 327 313 q 301 312 309 312 q 281 320 288 312 q 276 311 275 317 q 275 300 277 304 q 232 308 255 308 q 195 304 213 308 q 160 300 178 300 q 141 302 151 300 q 125 305 132 305 q 113 302 117 305 q 105 295 109 298 q 97 288 102 292 q 84 285 92 285 q 64 294 69 285 q 47 305 58 302 q 43 330 47 319 q 34 352 39 340 q 24 374 28 363 q 20 399 20 385 q 21 408 20 403 q 22 416 22 412 q 77 455 41 444 q 142 467 113 467 q 165 461 157 467 q 183 446 172 456 q 374 461 278 457 q 564 471 469 465 q 627 475 595 473 q 689 480 658 477 q 694 484 693 480 q 696 491 696 487 q 699 498 697 495 q 707 500 701 500 q 727 492 722 500 q 743 480 732 483 q 766 488 753 486 q 791 493 779 491 q 814 498 803 495 q 834 510 826 502 q 846 505 845 511 q 854 496 848 499 q 869 500 861 498 q 884 502 878 502 l 894 502 q 903 500 899 502 q 935 452 916 473 q 967 403 955 430 z "},".":{"ha":338,"x_min":-69,"x_max":198,"o":"m 198 176 q 191 138 198 156 q 174 102 183 119 l 155 66 q 140 30 145 49 l 134 31 q 98 26 115 31 q 62 16 80 22 q 26 5 45 11 q -11 0 8 0 q -22 34 -14 19 q -54 49 -31 49 q -59 72 -58 60 q -60 96 -60 84 q -62 119 -60 107 q -69 141 -64 130 q -28 186 -45 160 q 8 235 -12 213 q 42 231 24 231 q 83 235 62 231 q 123 240 103 240 q 164 229 145 240 q 170 214 168 222 q 174 199 171 206 q 182 186 178 191 q 198 180 187 180 l 198 176 z "},"/":{"ha":617,"x_min":-56,"x_max":742,"o":"m 742 1081 q 730 1018 739 1048 q 710 958 722 987 q 687 899 699 928 q 670 837 675 869 l 665 837 q 657 836 661 837 q 650 831 654 834 q 649 829 650 830 q 648 826 648 827 q 650 817 648 821 q 652 810 652 812 q 652 806 652 807 q 650 803 651 806 q 570 650 605 728 q 495 494 534 571 q 462 433 479 463 q 426 373 445 403 q 412 353 419 362 q 397 332 404 343 q 394 323 395 330 q 393 313 393 316 q 397 297 393 305 q 378 288 384 296 q 362 274 373 279 l 362 270 q 357 250 363 259 q 353 229 351 240 q 313 172 328 205 q 281 110 298 140 q 266 87 274 98 q 251 68 258 77 q 239 43 244 57 q 228 16 233 28 q 201 -41 221 0 q 161 -128 182 -83 q 123 -212 140 -174 q 106 -263 106 -251 q 105 -284 104 -274 q 106 -305 106 -294 q 75 -339 88 -321 q 42 -369 61 -357 q 5 -353 23 -362 q -31 -335 -12 -343 q -42 -307 -39 -321 q -56 -282 -45 -293 q -50 -254 -56 -267 q -43 -228 -43 -241 q -46 -214 -43 -220 q -35 -208 -39 -212 q -20 -205 -30 -205 q -22 -194 -22 -201 q -1 -165 -22 -175 q 14 -100 0 -130 q 43 -39 27 -69 l 76 20 q 100 83 92 50 q 127 127 115 106 q 144 176 140 148 q 216 281 183 228 q 271 400 250 335 q 301 436 289 415 q 324 479 313 457 q 347 521 335 500 q 378 556 359 541 q 389 597 381 578 q 404 636 396 617 l 422 674 q 437 715 431 693 q 475 782 458 746 q 504 855 491 818 q 528 930 517 892 q 553 1002 540 967 q 551 1015 552 1009 q 551 1028 551 1021 q 587 1112 551 1084 q 674 1139 623 1139 q 709 1110 693 1124 q 742 1081 726 1096 z "},":":{"ha":456,"x_min":83,"x_max":316,"o":"m 316 841 q 310 805 316 822 q 304 769 304 788 q 312 741 304 753 q 292 715 304 724 q 267 699 281 707 q 240 685 254 692 q 216 667 227 678 q 189 675 201 670 q 163 681 176 681 q 141 677 153 681 l 141 681 q 133 701 141 694 q 115 710 125 707 q 95 718 104 713 q 83 735 85 723 q 91 758 91 747 q 87 776 91 766 q 83 793 84 785 q 116 819 102 804 q 130 856 130 833 q 127 876 130 863 q 155 880 141 879 q 184 882 170 880 q 210 890 198 884 q 229 910 221 897 q 252 899 244 907 q 278 890 260 890 q 312 861 278 859 q 316 841 316 853 m 308 133 q 292 71 308 98 q 264 15 275 45 q 224 5 245 11 q 190 -14 202 0 q 159 9 175 0 q 141 45 144 19 q 137 45 138 45 q 133 46 136 46 q 118 43 125 46 q 103 39 111 39 q 96 71 96 54 l 96 117 q 94 132 96 125 q 116 147 109 136 q 130 172 123 159 q 144 195 136 184 q 171 206 153 205 q 172 214 170 212 q 176 220 175 216 q 217 212 194 217 q 260 197 240 206 q 294 172 281 187 q 308 133 308 156 z "},";":{"ha":391,"x_min":-180,"x_max":266,"o":"m 258 98 q 248 -3 258 46 q 224 -102 237 -53 q 213 -117 217 -109 q 199 -130 209 -125 l 199 -156 q 109 -286 153 -220 q 4 -403 65 -351 q -5 -419 3 -414 q -9 -438 -12 -425 l -14 -437 q -22 -444 -20 -437 q -35 -448 -24 -450 q -39 -466 -37 -457 q -45 -486 -42 -475 q -86 -502 -64 -495 q -130 -509 -109 -509 q -140 -508 -136 -509 q -152 -506 -145 -507 q -165 -480 -163 -496 q -180 -457 -167 -464 l -180 -449 q -174 -422 -180 -433 q -165 -399 -168 -412 q -154 -393 -160 -395 q -141 -389 -148 -392 q -114 -347 -132 -365 q -78 -311 -96 -328 q -43 -275 -60 -294 q -19 -228 -27 -255 q -3 -214 -8 -222 q 14 -198 3 -205 l 14 -191 q 18 -174 14 -180 q 27 -161 22 -167 l 39 -152 q 49 -140 46 -148 q 62 -102 56 -122 q 75 -64 68 -83 q 93 -17 84 -41 q 107 30 102 7 q 109 39 109 35 l 109 49 q 103 91 109 71 q 98 133 98 111 l 98 141 q 171 178 123 178 q 222 164 198 178 q 258 127 245 151 l 258 98 m 266 741 q 236 701 254 718 q 208 662 218 684 q 196 664 201 663 q 186 665 191 665 q 168 647 170 665 q 149 664 155 654 q 123 674 142 674 q 110 673 114 674 q 111 677 110 675 q 111 681 111 678 q 102 692 111 692 q 84 692 92 693 q 76 728 83 711 q 52 754 69 746 q 70 807 64 780 q 95 857 76 834 q 123 852 110 856 q 151 849 136 849 q 162 850 157 849 q 172 852 167 850 q 216 832 197 845 q 255 803 236 819 l 255 793 q 259 766 255 779 q 266 741 263 754 z "},"<":{"ha":1111,"x_min":69,"x_max":1028,"o":"m 1028 -23 q 1023 -40 1028 -35 q 1010 -48 1017 -45 q 998 -56 1004 -52 q 993 -68 993 -60 q 999 -74 993 -73 q 1008 -77 1005 -75 q 956 -103 981 -88 q 902 -122 932 -118 q 895 -110 901 -114 q 882 -102 888 -106 q 870 -95 876 -99 q 863 -83 864 -91 q 734 -14 798 -52 q 620 77 670 23 q 614 76 618 76 q 601 83 604 76 q 585 88 598 91 l 541 134 q 487 170 519 157 q 460 201 475 187 q 430 229 445 216 q 401 258 415 243 q 377 292 387 273 q 353 303 365 296 q 328 319 340 311 q 302 333 315 327 q 279 340 290 339 q 263 370 274 358 q 239 392 252 382 q 210 410 225 401 q 182 427 195 418 q 138 486 167 464 q 84 534 109 507 q 75 575 80 555 q 69 616 69 595 l 69 623 q 107 660 85 644 q 148 696 129 675 q 205 707 176 696 q 262 735 235 719 q 317 768 290 751 q 370 798 345 785 q 378 804 376 800 q 381 810 380 807 q 384 816 382 812 q 391 822 385 819 q 522 902 463 860 q 640 1001 582 944 q 671 1033 656 1016 q 703 1065 686 1050 q 708 1067 703 1067 q 713 1066 711 1067 q 722 1065 715 1065 q 742 1099 742 1077 q 759 1103 750 1100 q 774 1114 768 1107 l 799 1137 q 851 1173 822 1160 q 911 1192 880 1185 q 929 1183 920 1187 q 947 1175 939 1180 q 960 1163 955 1171 q 966 1143 966 1156 q 949 1119 958 1130 q 932 1097 940 1108 q 920 1074 925 1086 q 911 1046 914 1062 q 876 1023 892 1036 q 842 998 859 1010 q 808 972 826 985 q 770 952 791 960 q 763 939 768 945 q 761 924 758 933 q 600 807 680 867 q 439 690 521 747 q 399 672 412 688 q 370 636 385 656 q 293 593 327 621 q 360 502 319 540 q 445 427 401 464 q 441 414 444 420 q 439 401 439 408 q 449 388 439 388 q 461 391 456 388 q 473 393 467 393 q 479 378 472 382 q 483 359 486 373 l 513 359 q 617 279 568 323 q 722 198 666 235 q 726 185 722 190 q 727 170 730 180 q 743 161 732 160 q 761 156 754 161 q 763 148 764 153 q 765 140 762 142 q 783 136 768 137 q 804 130 798 134 q 824 115 815 125 q 844 98 833 104 q 856 92 850 94 q 868 88 861 91 q 890 69 883 77 q 920 61 898 61 q 928 62 924 61 q 936 62 932 62 q 964 47 948 56 q 994 29 979 39 q 1018 6 1008 19 q 1028 -23 1028 -7 z "},"=":{"ha":1577,"x_min":20,"x_max":1495,"o":"m 1255 591 q 1247 566 1255 576 q 1231 544 1240 555 q 1215 519 1222 533 q 1211 486 1208 506 q 1177 468 1192 475 q 1145 456 1161 461 q 1113 448 1130 450 q 1074 446 1096 446 l 1051 446 q 1022 475 1032 457 q 997 510 1012 494 l 990 510 q 974 515 979 510 q 959 525 968 519 q 916 524 940 524 q 866 524 891 525 q 818 518 841 522 q 779 505 795 514 q 699 509 739 509 q 594 502 650 509 q 491 476 538 495 q 475 477 483 477 l 458 477 q 372 460 412 477 q 292 422 332 444 l 285 422 q 245 416 264 422 q 208 404 227 411 q 171 389 190 396 q 132 378 152 382 q 115 372 122 376 q 98 368 107 368 q 66 377 80 368 q 41 401 52 387 q 26 434 31 416 q 20 467 20 452 q 54 538 20 511 l 94 538 q 141 557 117 551 q 190 570 165 564 l 239 582 q 288 597 263 589 l 293 597 q 339 603 316 597 q 385 616 362 609 q 401 622 392 618 q 419 627 411 625 q 446 627 433 628 q 471 628 458 627 l 560 632 q 687 644 624 635 q 812 665 750 654 q 832 658 823 662 q 852 651 841 654 q 905 660 876 663 q 959 665 933 656 q 1008 660 983 662 q 1058 658 1034 658 q 1108 659 1084 658 q 1158 661 1133 659 q 1205 635 1181 646 q 1252 613 1229 625 q 1254 602 1253 606 q 1255 591 1255 597 m 1495 275 q 1489 239 1495 256 q 1480 203 1482 222 q 1449 184 1465 195 q 1416 174 1432 174 q 1401 177 1412 174 q 1377 184 1390 180 q 1350 193 1363 189 q 1329 198 1337 197 q 1313 192 1322 193 q 1299 183 1303 191 q 1283 186 1291 186 l 1268 186 q 1188 178 1227 186 q 1108 170 1149 170 q 1072 174 1089 170 q 943 157 1006 161 q 812 151 879 153 q 741 130 780 132 q 667 123 703 129 q 640 118 652 121 q 614 111 628 115 l 609 111 q 596 115 601 111 q 585 121 591 118 q 538 100 556 103 q 487 96 519 96 q 460 91 480 96 q 429 83 439 85 q 372 75 403 79 q 309 64 340 71 q 250 49 278 58 q 199 23 221 39 q 166 21 183 20 q 132 18 149 22 q 113 35 121 24 q 99 56 106 45 l 85 77 q 68 96 79 88 q 99 137 85 115 q 136 170 113 159 l 151 170 q 161 169 156 170 q 171 164 167 168 q 318 203 244 190 q 468 227 392 217 q 598 245 533 235 q 726 277 663 255 q 736 273 731 274 q 747 273 742 273 q 784 281 768 273 l 802 281 q 936 293 869 281 q 1072 309 1002 305 q 1102 310 1086 311 q 1134 309 1118 309 q 1161 311 1147 309 q 1188 320 1175 313 l 1211 320 q 1243 321 1226 320 q 1275 321 1260 321 q 1300 320 1286 321 q 1324 309 1314 319 q 1389 323 1358 323 q 1427 320 1408 323 l 1465 315 l 1495 281 l 1495 275 z "},">":{"ha":990,"x_min":69,"x_max":907,"o":"m 907 655 q 900 606 907 627 q 863 574 892 585 q 851 548 860 557 q 833 530 842 538 q 816 510 823 521 q 808 480 808 499 q 762 438 783 461 q 720 393 742 415 q 675 351 699 370 q 620 321 651 332 q 534 231 578 274 q 439 151 490 187 q 412 109 429 127 q 376 72 395 90 q 341 36 358 54 q 312 -5 324 18 l 304 -3 q 296 -1 300 -1 q 289 -5 290 -1 q 256 -49 269 -23 q 232 -102 243 -75 q 210 -156 221 -129 q 182 -205 198 -183 q 165 -194 175 -194 q 151 -196 159 -194 q 136 -198 144 -198 q 118 -194 126 -198 q 102 -165 111 -179 q 84 -136 94 -151 l 83 -127 q 87 -92 83 -107 q 100 -62 92 -76 q 114 -33 107 -47 q 123 0 121 -19 q 224 113 174 57 q 338 214 274 170 q 400 277 350 259 q 414 298 407 289 q 425 321 422 307 q 446 336 437 327 q 465 355 456 345 q 484 374 475 365 q 507 389 494 384 q 544 442 522 418 q 589 490 566 467 q 633 537 612 513 q 669 593 655 562 q 612 637 640 618 q 545 665 583 656 q 541 685 538 675 l 513 685 l 513 689 q 507 703 513 699 q 493 711 500 708 q 479 720 486 715 q 473 735 473 724 q 439 749 453 739 q 411 770 425 758 q 383 791 397 781 q 347 803 369 800 q 340 814 345 810 q 338 826 336 818 q 289 859 311 840 q 246 898 267 878 q 203 938 225 918 q 157 972 182 958 q 136 1006 151 989 q 108 1040 122 1023 q 83 1075 94 1058 q 72 1108 72 1092 q 73 1124 72 1116 q 73 1139 73 1133 q 69 1162 73 1150 q 81 1170 77 1164 q 89 1183 85 1176 q 96 1196 92 1190 q 104 1202 99 1202 q 143 1197 126 1202 q 176 1184 160 1192 q 206 1166 191 1176 q 240 1147 221 1157 q 252 1117 244 1130 q 270 1092 260 1104 q 290 1067 279 1080 q 308 1040 300 1055 q 372 989 339 1013 q 425 929 406 966 q 441 924 435 929 l 452 914 q 464 906 457 910 q 483 905 471 902 q 487 884 490 897 q 522 857 505 872 q 557 829 538 842 q 595 808 575 817 q 639 803 616 800 q 731 758 670 754 q 751 741 738 745 q 776 734 765 736 q 783 731 780 732 q 789 730 787 730 q 808 736 804 730 q 823 745 812 743 q 866 722 844 731 q 906 696 888 712 q 907 675 907 685 l 907 655 z "},"?":{"ha":1124,"x_min":56,"x_max":1139,"o":"m 1139 1195 q 1127 1131 1139 1162 q 1111 1069 1115 1100 q 1029 938 1072 1002 q 926 822 986 873 l 926 817 q 922 803 926 807 q 917 788 917 799 q 870 753 891 773 q 829 713 849 734 q 789 671 810 692 q 746 632 769 650 l 747 629 q 743 620 747 623 q 742 606 739 617 q 707 581 723 594 q 684 544 690 567 q 630 503 651 529 q 590 448 609 477 q 559 437 574 445 q 541 408 544 429 q 460 359 492 393 q 401 282 429 326 q 404 260 403 271 q 404 239 404 250 q 387 146 404 193 q 399 73 399 110 q 387 9 399 39 q 335 -9 357 4 q 281 -22 313 -22 q 268 -21 274 -22 q 255 -19 262 -20 q 229 29 237 3 q 201 77 220 56 q 214 96 212 83 q 217 119 217 109 q 215 143 217 130 q 208 165 213 156 q 216 237 216 199 q 201 340 216 288 q 229 376 214 359 q 259 408 243 393 q 271 405 266 407 q 282 403 275 403 l 289 403 q 352 420 327 408 q 398 449 377 433 q 439 484 419 465 q 488 519 460 502 q 515 549 500 536 q 546 576 530 563 q 574 606 562 590 q 595 642 587 621 q 643 675 623 656 q 674 726 663 694 q 728 770 704 745 q 774 823 751 796 q 822 876 798 850 q 878 920 846 901 q 877 922 878 921 q 876 926 876 924 q 878 939 876 933 q 882 952 880 945 q 903 967 897 956 q 921 982 909 978 q 941 1031 926 1012 q 970 1074 955 1050 q 978 1092 975 1082 q 985 1108 981 1101 q 995 1118 987 1115 q 1008 1123 1002 1120 q 1004 1164 1005 1141 q 994 1202 1004 1187 q 921 1217 958 1217 q 873 1213 897 1217 q 827 1203 850 1208 q 780 1194 803 1198 q 732 1192 757 1191 q 610 1139 671 1164 q 483 1104 549 1115 q 401 1051 442 1073 q 308 1021 359 1029 q 270 987 300 1013 q 208 935 240 962 q 146 886 175 907 q 111 865 118 865 q 92 874 99 865 q 79 894 84 883 q 68 915 73 905 q 56 929 62 925 q 64 962 62 944 q 65 997 66 979 q 96 1034 77 1019 q 136 1063 115 1050 q 176 1090 156 1077 q 212 1123 195 1104 q 250 1135 232 1126 q 284 1155 267 1145 q 317 1173 301 1165 q 353 1181 334 1181 q 381 1197 366 1191 q 412 1208 396 1203 q 442 1218 427 1213 q 469 1234 457 1223 l 494 1234 q 562 1267 526 1255 q 635 1289 598 1279 q 708 1309 671 1299 q 780 1332 745 1318 q 857 1339 819 1332 q 935 1345 895 1345 q 1035 1329 989 1345 q 1120 1274 1081 1312 l 1120 1245 q 1139 1195 1139 1225 m 473 -243 q 465 -252 469 -248 q 456 -258 460 -255 q 450 -266 452 -262 q 450 -278 448 -270 q 398 -295 416 -279 q 362 -336 380 -311 q 328 -349 338 -336 q 298 -370 317 -362 l 293 -370 q 244 -357 263 -370 q 214 -324 225 -345 q 197 -279 202 -304 q 191 -229 193 -254 q 245 -199 217 -212 q 305 -186 274 -186 q 353 -194 330 -186 q 366 -189 361 -194 q 375 -179 370 -184 q 385 -170 380 -174 q 401 -165 391 -165 q 438 -203 420 -183 q 473 -243 456 -224 z "},"@":{"ha":1811,"x_min":7,"x_max":1735,"o":"m 1735 1036 q 1721 960 1733 997 q 1710 884 1708 924 q 1675 804 1690 845 q 1637 726 1660 762 q 1621 703 1629 712 q 1605 683 1613 693 q 1593 661 1598 673 q 1588 632 1588 650 q 1573 627 1581 627 q 1560 623 1564 628 q 1551 606 1557 618 q 1539 587 1545 594 q 1507 552 1525 568 q 1477 515 1489 536 q 1426 477 1449 499 q 1380 431 1402 454 q 1334 387 1358 408 q 1282 350 1310 365 q 1247 296 1270 319 q 1204 247 1225 274 q 1191 245 1198 245 q 1177 244 1184 244 q 1135 254 1153 244 q 1101 274 1118 263 q 1066 295 1085 285 q 1020 305 1047 305 q 1003 339 1013 324 q 981 369 993 354 q 980 397 979 384 q 981 423 981 410 q 980 446 981 435 q 977 467 979 456 q 954 461 964 465 q 941 442 943 457 q 928 445 933 445 q 899 437 911 445 q 874 422 887 430 q 847 406 861 414 q 815 399 833 399 q 805 393 812 396 q 800 384 798 391 q 751 372 774 381 q 712 340 727 363 q 696 342 707 342 q 663 336 681 342 q 635 315 644 330 q 612 311 624 312 q 589 309 600 309 q 527 319 557 309 q 465 331 496 328 q 437 387 452 358 q 407 442 422 415 q 416 486 411 464 q 426 529 422 507 q 471 571 452 548 q 508 617 490 594 q 547 661 526 640 q 601 696 568 681 q 611 712 604 705 q 621 730 618 719 q 711 781 669 749 q 800 836 754 812 q 860 869 829 850 q 924 905 891 888 q 989 932 956 921 q 1055 944 1023 944 q 1086 942 1072 944 q 1116 939 1101 940 q 1146 909 1130 922 q 1177 880 1162 895 q 1200 848 1191 865 q 1210 807 1210 830 q 1200 771 1210 788 q 1191 735 1191 754 q 1196 718 1191 722 q 1204 704 1200 713 q 1191 671 1203 688 q 1196 628 1196 651 q 1190 559 1196 593 q 1183 490 1183 525 l 1183 475 q 1184 461 1183 468 q 1356 590 1278 518 q 1496 754 1435 662 q 1514 762 1507 755 q 1530 773 1520 768 q 1565 841 1549 807 q 1599 910 1580 875 q 1607 962 1602 936 q 1628 1010 1613 987 q 1628 1040 1628 1025 q 1629 1067 1629 1054 q 1628 1096 1629 1082 q 1622 1123 1626 1109 l 1622 1130 q 1628 1139 1622 1137 q 1633 1149 1633 1142 q 1625 1173 1633 1161 q 1609 1192 1617 1184 q 1600 1238 1609 1215 q 1579 1279 1592 1260 q 1529 1325 1563 1303 q 1457 1363 1496 1347 q 1377 1389 1417 1379 q 1309 1398 1337 1398 q 1282 1397 1295 1398 q 1259 1390 1270 1396 q 1214 1404 1236 1404 q 1154 1389 1195 1404 q 1067 1354 1112 1374 q 983 1312 1023 1333 q 926 1279 943 1291 q 895 1255 909 1267 q 859 1234 880 1242 q 820 1197 841 1214 q 777 1163 799 1180 q 736 1128 755 1146 q 703 1085 716 1109 q 690 1080 697 1081 q 680 1076 684 1078 q 665 1057 674 1069 q 651 1038 656 1044 q 598 979 624 1006 q 557 910 572 951 q 510 854 530 884 q 471 791 490 823 q 433 728 453 758 q 388 671 414 697 q 347 590 369 629 q 304 511 326 551 q 264 430 283 471 q 232 345 244 389 q 208 307 217 328 q 192 264 199 286 q 176 219 184 241 q 155 179 168 197 q 148 147 149 164 q 146 113 146 130 q 148 82 146 100 q 151 45 149 64 q 157 10 153 27 q 164 -19 160 -7 q 185 -56 170 -38 q 212 -90 201 -73 q 220 -100 217 -95 q 227 -113 222 -106 q 243 -128 232 -121 q 269 -141 255 -136 l 296 -152 q 320 -161 309 -157 q 330 -160 326 -161 q 340 -159 335 -159 q 349 -163 346 -159 q 353 -171 351 -167 q 421 -158 387 -157 q 490 -149 456 -159 q 513 -139 503 -145 q 533 -126 522 -133 q 538 -125 534 -126 q 544 -123 541 -123 q 551 -126 547 -123 q 557 -132 555 -129 q 579 -117 567 -122 q 604 -106 591 -111 q 629 -94 617 -100 q 650 -77 640 -88 q 697 -67 675 -76 q 738 -39 719 -58 q 747 -41 741 -41 q 767 -39 754 -41 q 787 -35 780 -38 q 791 -26 793 -33 q 796 -15 789 -19 q 821 -6 802 -12 q 849 3 840 0 q 905 26 878 14 q 962 50 933 38 q 991 61 977 57 q 1020 72 1006 65 q 1029 85 1028 76 q 1044 94 1031 94 q 1053 90 1050 94 q 1061 85 1055 85 l 1063 88 q 1220 151 1141 126 q 1379 205 1299 176 q 1398 189 1386 189 l 1398 176 q 1394 140 1400 157 q 1344 115 1371 126 q 1297 81 1317 103 q 1287 83 1293 83 q 1261 73 1268 83 q 1238 58 1253 64 q 1230 56 1234 56 q 1221 54 1225 56 q 1178 39 1199 49 q 1146 9 1157 28 q 1039 -26 1092 -4 q 941 -83 986 -49 q 896 -92 916 -83 q 857 -117 876 -102 q 846 -124 852 -119 q 834 -132 840 -129 q 806 -142 821 -138 q 777 -151 792 -145 q 707 -180 742 -163 q 640 -220 671 -197 q 595 -233 617 -224 q 553 -258 572 -243 q 544 -258 548 -259 q 536 -258 540 -258 q 528 -269 525 -258 q 511 -263 519 -263 q 477 -271 492 -263 q 442 -279 461 -279 l 433 -279 q 426 -278 429 -279 q 397 -286 411 -282 q 368 -297 382 -290 q 342 -288 355 -288 q 330 -302 327 -288 q 289 -289 312 -294 q 243 -278 266 -283 q 202 -269 221 -273 q 174 -258 183 -264 q 163 -246 167 -254 q 153 -231 159 -239 q 142 -218 148 -224 q 127 -213 136 -213 q 123 -214 125 -213 q 119 -214 122 -214 q 103 -182 117 -193 q 71 -165 90 -172 q 37 -87 47 -130 q 8 -5 26 -45 l 7 3 q 8 28 7 15 q 9 56 9 42 q 8 71 9 64 q 7 88 7 79 q 15 102 7 99 q 23 117 23 106 q 17 121 23 122 q 11 126 11 121 l 12 130 q 22 167 18 146 q 33 207 26 187 q 50 243 39 227 q 76 267 60 259 l 75 275 q 77 300 75 288 q 83 326 80 313 q 90 351 87 339 q 91 373 92 362 q 124 403 113 382 q 144 448 136 423 q 163 496 153 472 q 193 538 174 521 q 195 545 195 541 q 193 551 195 548 q 191 560 191 555 q 193 564 191 563 q 288 718 240 640 q 378 875 335 795 q 392 885 387 879 q 403 899 397 891 q 414 911 408 906 q 430 920 420 917 q 447 969 433 949 q 478 1006 461 989 q 511 1040 495 1023 q 533 1085 526 1058 l 563 1099 q 606 1164 578 1131 q 668 1227 635 1196 q 736 1285 701 1259 q 800 1332 772 1312 l 807 1332 q 818 1335 814 1332 q 829 1337 822 1337 q 869 1369 849 1354 q 913 1396 890 1383 q 954 1413 932 1407 q 996 1430 975 1420 q 1118 1483 1058 1458 q 1251 1508 1179 1508 q 1285 1506 1268 1508 q 1321 1503 1302 1503 q 1415 1490 1375 1503 q 1487 1456 1454 1477 q 1553 1409 1520 1435 q 1628 1356 1586 1382 q 1681 1283 1638 1309 q 1699 1215 1683 1242 q 1725 1153 1714 1188 l 1720 1128 q 1717 1104 1717 1116 q 1735 1080 1717 1085 q 1728 1058 1728 1070 q 1735 1036 1728 1047 m 1009 764 l 1009 768 q 993 776 1002 776 q 977 773 985 776 q 959 770 968 770 q 941 773 947 770 q 907 749 926 758 q 869 730 888 739 q 830 711 849 722 q 796 685 811 701 l 766 675 q 741 652 755 662 q 710 634 726 643 q 681 614 694 625 q 659 587 667 604 q 655 589 658 589 q 646 582 648 589 q 635 578 643 575 q 622 549 631 562 q 604 526 613 537 q 589 501 595 515 q 582 467 582 487 q 618 460 595 460 q 685 473 652 460 q 751 486 718 486 q 769 505 762 495 q 787 525 776 515 l 791 525 q 839 538 817 525 q 883 566 861 551 q 928 591 905 581 q 981 597 952 601 q 994 650 994 623 q 989 694 994 673 q 981 739 983 716 q 998 749 987 747 q 1009 764 1009 750 z "},"A":{"ha":892,"x_min":-201,"x_max":1108,"o":"m 1108 -323 q 1090 -356 1104 -346 q 1063 -385 1076 -366 l 1058 -385 q 1031 -388 1044 -385 q 1005 -395 1019 -391 q 989 -391 998 -392 q 977 -381 979 -389 q 947 -387 966 -387 q 888 -369 916 -387 q 830 -342 860 -351 q 810 -313 822 -326 q 787 -288 799 -300 q 765 -262 776 -275 q 747 -229 754 -248 q 741 -220 745 -221 q 728 -220 736 -218 q 725 -194 730 -205 q 704 -180 720 -183 q 699 -151 704 -163 q 686 -130 693 -138 q 669 -111 678 -121 q 655 -88 661 -102 q 631 -85 643 -85 q 606 -84 620 -84 q 480 -109 541 -84 q 466 -115 473 -111 q 452 -122 458 -119 q 447 -123 449 -122 q 442 -123 445 -123 q 425 -120 433 -123 q 407 -117 416 -117 q 398 -119 403 -117 q 389 -122 393 -121 q 351 -130 369 -129 q 234 -146 296 -141 q 121 -175 172 -152 q 107 -192 110 -180 q 106 -214 104 -203 q 83 -243 91 -225 q 70 -280 76 -260 q 57 -319 64 -300 q 38 -351 50 -338 q 42 -369 42 -359 q 28 -410 42 -389 q 8 -449 15 -430 q -3 -486 1 -468 q -15 -519 -7 -505 q -37 -544 -23 -534 q -77 -553 -52 -553 q -119 -544 -102 -553 q -148 -519 -137 -534 q -165 -484 -159 -505 q -176 -444 -172 -464 q -148 -392 -161 -414 q -127 -336 -134 -370 q -92 -294 -103 -319 q -79 -239 -80 -269 q -58 -214 -64 -229 q -50 -180 -52 -198 q -119 -175 -83 -178 q -186 -161 -155 -172 q -185 -156 -186 -159 q -184 -151 -184 -153 q -193 -119 -184 -133 q -201 -88 -201 -104 l -201 -77 q -181 -55 -190 -66 q -163 -34 -172 -43 q -141 -18 -153 -24 q -110 -12 -129 -12 q -60 -16 -84 -12 q -9 -19 -35 -19 q 27 -15 8 -19 q 80 109 57 46 q 115 237 103 172 q 133 269 125 251 q 146 308 141 288 q 153 348 151 328 q 155 384 155 368 q 176 427 170 401 q 186 481 182 453 q 195 536 190 509 q 213 583 199 563 l 213 595 q 209 632 214 616 q 217 644 216 635 q 222 661 218 654 q 236 783 224 723 q 256 905 248 844 l 256 909 q 252 916 256 916 q 247 924 247 917 q 250 956 247 936 q 255 990 254 977 q 263 1135 263 1063 q 259 1256 263 1196 q 251 1377 255 1316 l 262 1393 q 271 1409 267 1401 q 294 1421 285 1415 q 317 1427 302 1427 q 324 1426 321 1427 q 330 1426 327 1426 q 342 1411 338 1420 q 352 1393 347 1401 q 365 1379 357 1385 q 388 1377 373 1374 q 426 1337 395 1339 q 443 1299 433 1318 q 471 1270 453 1280 q 469 1255 469 1264 q 478 1218 469 1236 q 500 1185 487 1200 l 500 1183 q 490 1162 500 1168 q 507 1130 502 1149 q 517 1091 513 1111 q 527 1054 521 1072 q 548 1027 533 1036 l 548 1023 q 543 1015 548 1016 q 538 1006 538 1013 q 572 909 563 962 q 597 807 582 856 q 610 800 602 802 q 621 793 617 799 q 613 774 613 788 q 606 754 613 761 q 616 726 617 745 q 627 700 616 708 l 627 694 q 624 686 627 689 q 621 677 621 682 l 621 671 q 638 576 632 624 q 651 481 644 529 q 666 387 658 434 q 689 296 674 340 q 690 292 690 294 q 685 284 690 285 q 680 277 680 283 q 684 261 680 270 q 694 247 689 252 q 693 231 693 241 q 701 191 693 210 q 717 154 708 172 q 732 115 726 136 q 738 72 739 95 q 759 52 746 60 q 785 37 772 43 q 810 20 799 30 q 826 -5 822 11 q 811 -29 815 -15 q 796 -54 807 -43 q 819 -97 806 -77 q 845 -136 831 -117 l 873 -174 q 899 -214 888 -193 q 921 -222 914 -214 q 943 -229 928 -231 q 947 -254 948 -240 q 1001 -244 974 -244 q 1029 -245 1016 -244 q 1055 -247 1042 -247 q 1084 -243 1072 -247 q 1092 -261 1089 -251 q 1096 -282 1095 -271 l 1100 -304 q 1108 -323 1103 -315 m 597 53 q 558 239 578 146 q 524 427 538 332 q 511 528 515 477 q 501 627 507 578 q 485 726 495 677 q 456 822 475 774 l 456 825 q 458 831 456 829 q 461 841 461 834 l 461 846 q 437 881 444 859 q 425 928 430 903 q 413 977 420 954 q 388 1017 406 1001 q 374 861 381 939 q 363 704 366 783 q 346 677 350 696 q 342 643 342 658 q 343 621 342 632 q 349 597 345 609 q 313 471 324 536 q 289 343 302 407 q 284 325 288 339 q 277 296 281 311 q 270 269 273 281 q 267 256 267 258 q 267 237 266 247 q 267 218 267 228 l 247 198 q 227 98 241 146 q 198 0 213 50 q 216 -2 208 -1 q 235 -3 225 -3 q 322 3 278 -3 q 410 15 366 9 q 441 20 425 18 q 472 22 457 22 q 488 22 479 23 q 505 23 498 22 q 519 32 515 26 q 533 39 522 38 q 552 35 541 35 q 575 41 564 35 q 597 53 586 46 z "},"B":{"ha":1674,"x_min":138,"x_max":1618,"o":"m 1618 231 q 1609 199 1618 213 q 1603 165 1599 184 q 1589 151 1598 156 q 1583 130 1580 145 q 1531 93 1554 115 q 1480 50 1507 71 q 1452 33 1463 38 q 1424 19 1440 28 l 1390 -3 q 1343 -27 1367 -15 q 1301 -58 1320 -39 q 1242 -74 1272 -60 q 1185 -99 1213 -88 q 1164 -105 1175 -103 q 1142 -113 1153 -107 l 1120 -122 q 1076 -142 1101 -132 q 1029 -152 1050 -152 q 1009 -171 1017 -157 q 917 -194 964 -186 q 825 -220 869 -202 q 794 -238 810 -227 q 761 -248 779 -250 q 755 -264 757 -255 q 751 -283 754 -274 l 747 -283 q 743 -278 742 -283 q 738 -273 743 -273 q 732 -274 734 -273 q 699 -281 715 -278 q 665 -283 684 -283 q 630 -281 654 -283 q 595 -274 606 -278 q 582 -259 587 -270 q 572 -236 576 -248 q 564 -211 567 -224 q 557 -190 560 -198 q 571 -165 562 -175 q 586 -141 581 -156 q 610 -137 598 -140 q 635 -136 623 -134 q 720 -112 677 -123 q 804 -88 762 -100 q 887 -61 846 -76 q 966 -24 928 -46 l 994 -24 q 1048 -1 1019 -11 q 1097 30 1078 8 q 1191 56 1142 39 q 1272 107 1240 72 q 1308 117 1293 110 q 1336 133 1322 125 l 1363 151 q 1394 165 1377 160 q 1415 189 1405 176 q 1438 209 1424 201 q 1416 241 1434 231 q 1385 267 1398 252 l 1355 267 q 1280 300 1320 289 q 1200 326 1240 312 q 1194 327 1198 327 q 1182 320 1184 327 q 1171 315 1180 313 q 1145 325 1158 323 q 1116 327 1131 327 q 1079 325 1097 327 q 1042 323 1061 323 q 1023 324 1032 323 q 1004 331 1013 326 l 986 331 q 930 329 958 331 q 875 327 902 327 q 846 328 860 327 q 819 331 833 328 q 758 312 791 317 q 691 304 726 307 q 623 299 656 301 q 557 292 589 297 q 542 294 549 293 q 528 294 534 294 q 513 294 521 294 q 499 292 506 293 q 456 319 481 311 q 407 331 431 328 q 379 378 388 354 q 368 431 370 401 l 373 431 q 382 441 382 431 q 388 457 381 450 q 406 469 395 465 q 429 476 418 472 q 450 486 439 480 q 465 506 460 492 l 483 506 q 494 505 488 506 q 505 500 500 505 q 518 510 510 506 q 534 518 526 514 q 547 528 541 522 q 553 544 552 533 q 560 540 555 540 q 570 543 566 540 q 582 544 575 545 q 605 564 589 563 q 635 574 621 566 q 652 587 644 579 q 670 601 661 594 l 751 663 l 876 758 q 1004 846 939 806 q 1012 859 1006 854 q 1023 867 1017 863 q 1031 878 1028 872 q 1034 894 1035 883 q 1063 909 1053 898 q 1081 932 1073 920 q 1098 958 1089 945 q 1122 978 1107 971 q 1120 990 1120 982 q 1122 1012 1120 1001 q 1133 1031 1124 1023 q 1090 1072 1120 1059 q 1034 1095 1061 1085 l 1029 1095 q 1022 1088 1023 1095 q 1015 1080 1021 1082 q 966 1085 993 1085 q 912 1081 939 1085 q 859 1080 886 1077 q 850 1069 854 1074 q 838 1059 845 1063 q 781 1051 810 1058 l 724 1038 l 693 1031 q 684 1021 686 1028 q 680 1006 681 1015 q 669 1013 671 1008 q 659 1021 667 1019 q 592 990 628 1002 q 528 952 556 978 q 500 963 518 963 q 468 954 486 963 q 446 929 450 944 q 426 932 433 932 q 401 924 411 932 q 381 905 391 916 q 361 886 372 895 q 334 875 350 876 q 334 861 334 868 q 335 845 335 853 q 328 724 335 784 q 321 602 321 663 q 323 576 321 589 q 324 548 324 563 q 318 530 324 544 q 309 510 312 517 q 314 480 315 495 q 320 452 313 465 q 308 422 308 441 q 309 406 308 414 q 309 389 309 397 l 309 373 q 304 318 305 346 q 302 263 302 290 q 303 222 302 251 q 307 157 304 193 q 315 83 309 121 q 329 13 320 45 q 351 -39 338 -19 q 384 -60 365 -60 q 394 -58 388 -60 q 400 -52 400 -57 q 398 -42 400 -46 q 396 -33 396 -38 l 397 -30 q 421 -37 408 -35 q 448 -39 434 -38 q 473 -44 461 -41 q 495 -58 486 -47 q 490 -81 490 -69 q 498 -112 490 -98 q 509 -141 506 -126 q 462 -159 483 -149 q 420 -178 441 -170 q 377 -195 400 -187 q 324 -205 354 -202 q 292 -183 305 -193 q 255 -171 278 -174 q 197 -64 220 -123 q 161 58 174 -5 q 143 186 148 122 q 138 308 138 251 q 143 432 138 370 q 156 556 148 494 q 161 595 159 575 q 167 633 164 614 q 172 649 170 640 q 174 665 174 658 q 172 711 174 688 q 171 755 171 734 q 175 825 171 789 q 180 842 176 831 q 183 861 183 853 q 178 876 183 872 q 168 890 172 880 q 175 916 172 903 q 178 943 178 929 q 168 987 178 968 q 189 1057 175 1023 q 236 1108 202 1090 q 291 1103 263 1107 q 339 1080 319 1099 q 361 1086 349 1085 l 387 1089 q 411 1094 400 1090 q 430 1108 422 1097 q 488 1124 457 1114 q 543 1147 519 1134 l 572 1147 q 594 1157 582 1154 l 620 1164 q 645 1172 633 1168 q 663 1185 656 1176 l 669 1185 q 730 1199 700 1185 q 788 1223 760 1213 q 809 1233 795 1226 q 829 1240 823 1240 q 867 1243 848 1242 q 905 1248 886 1244 q 991 1263 948 1255 q 1077 1272 1034 1272 q 1105 1272 1092 1272 q 1133 1270 1118 1271 q 1139 1261 1134 1264 q 1149 1255 1145 1257 q 1158 1247 1154 1252 q 1161 1234 1162 1242 q 1166 1232 1164 1232 q 1174 1236 1171 1232 q 1184 1240 1177 1240 l 1191 1240 q 1225 1204 1208 1221 q 1268 1176 1242 1187 q 1294 1096 1279 1135 q 1309 1012 1309 1057 q 1301 959 1309 985 q 1274 929 1282 949 q 1259 890 1265 909 q 1195 840 1221 871 q 1142 777 1169 808 l 1120 777 q 1112 773 1115 777 l 1100 760 q 1074 738 1088 749 q 1053 709 1059 727 q 972 658 1010 686 q 898 598 933 629 q 868 570 883 586 q 838 544 853 555 q 820 532 830 537 q 802 521 810 528 q 769 493 784 507 q 738 467 754 479 q 861 470 799 469 q 985 472 924 471 q 1046 474 1016 472 q 1107 476 1076 476 q 1116 474 1112 476 q 1126 471 1120 472 q 1166 461 1149 467 q 1297 439 1232 449 q 1424 408 1362 430 q 1451 393 1442 401 q 1482 389 1459 385 q 1524 359 1501 370 q 1569 340 1546 349 q 1603 289 1587 313 q 1618 231 1618 264 z "},"C":{"ha":1237,"x_min":14,"x_max":1459,"o":"m 1459 77 q 1452 62 1459 66 q 1449 43 1444 58 q 1430 33 1438 42 q 1411 23 1421 23 q 1400 30 1404 23 q 1390 16 1397 20 q 1374 9 1382 12 q 1358 3 1366 7 q 1347 -9 1350 -1 l 1340 -9 q 1315 -23 1324 -9 q 1294 -37 1306 -37 q 1289 -35 1290 -37 q 1283 -44 1282 -37 q 1279 -54 1284 -52 l 1272 -54 q 1200 -69 1237 -54 q 1126 -103 1164 -84 q 1050 -139 1089 -122 q 972 -161 1012 -156 q 953 -174 964 -170 q 928 -182 941 -179 q 901 -188 914 -184 q 879 -199 888 -191 q 811 -212 845 -202 q 744 -230 777 -221 q 676 -245 711 -239 q 606 -248 642 -251 q 583 -261 595 -256 q 559 -274 570 -266 q 448 -262 503 -266 q 340 -243 393 -258 q 338 -237 340 -239 q 332 -235 335 -236 q 326 -233 328 -235 q 326 -225 323 -231 q 304 -229 313 -229 q 277 -222 290 -229 q 250 -208 264 -216 q 221 -192 236 -199 q 189 -184 206 -184 q 169 -163 178 -174 q 156 -136 160 -152 q 144 -136 151 -134 q 134 -137 138 -137 q 126 -132 126 -137 q 85 -88 98 -111 q 58 -35 73 -65 q 48 -20 54 -26 q 39 -5 42 -14 q 33 23 34 8 q 31 52 31 38 q 26 81 30 66 q 14 107 23 95 q 25 210 16 159 q 47 313 34 262 q 60 358 53 336 q 72 403 66 380 q 77 414 73 411 q 83 419 80 418 l 88 423 q 92 431 91 426 l 103 477 q 132 564 114 522 q 179 642 149 606 q 195 706 182 675 q 224 766 208 736 q 256 823 240 795 q 282 884 273 852 l 281 887 q 287 893 281 892 q 296 894 293 894 q 306 931 297 916 q 325 960 315 947 q 344 989 335 974 q 354 1027 353 1005 q 398 1064 380 1042 q 433 1110 416 1086 q 469 1156 450 1134 q 515 1192 488 1179 q 519 1215 522 1200 q 606 1271 562 1246 q 690 1328 651 1295 l 739 1328 q 779 1341 757 1341 q 810 1335 795 1341 q 840 1319 826 1328 q 869 1301 854 1310 q 899 1289 884 1293 q 920 1242 914 1268 q 933 1192 926 1215 q 918 1117 921 1156 q 909 1040 916 1078 q 892 1017 899 1029 q 878 991 886 1004 q 863 966 871 978 q 841 948 854 955 q 807 886 830 909 q 762 831 784 863 q 719 818 742 818 q 685 827 700 818 q 658 850 670 836 q 638 881 646 864 q 627 914 631 898 q 657 963 636 943 q 700 1004 678 983 q 738 1047 722 1024 q 754 1103 754 1070 q 753 1108 754 1105 q 753 1114 753 1111 q 757 1123 753 1119 q 765 1130 761 1127 l 773 1137 q 777 1146 777 1141 q 772 1157 777 1152 q 694 1139 720 1153 q 652 1109 667 1126 q 626 1078 637 1093 q 593 1055 614 1062 q 581 1037 589 1044 q 566 1022 574 1029 q 551 1005 557 1015 q 544 982 545 996 l 519 982 q 504 958 514 970 q 484 936 494 947 q 466 912 473 925 q 461 884 458 899 q 439 867 446 879 q 418 846 431 854 l 418 838 q 414 818 418 827 q 412 798 410 808 q 389 760 396 783 q 373 719 381 738 q 347 693 354 709 q 340 655 340 677 q 304 608 320 635 q 275 552 288 581 q 251 494 262 524 q 228 438 240 464 l 228 399 q 201 348 209 377 q 179 296 194 319 q 177 266 176 281 q 178 236 178 251 q 175 202 178 220 q 165 170 172 184 q 174 121 171 149 q 183 66 176 94 q 202 16 190 38 q 237 -15 214 -7 q 264 -60 243 -45 q 312 -85 285 -76 q 368 -102 339 -95 q 418 -122 396 -110 q 437 -118 426 -118 q 456 -121 448 -118 q 476 -126 465 -123 q 523 -123 495 -123 q 579 -121 551 -123 q 632 -114 608 -119 q 671 -94 656 -109 q 684 -99 681 -94 q 697 -104 688 -104 q 726 -100 707 -104 q 765 -89 745 -95 q 804 -76 785 -83 q 830 -64 822 -69 q 838 -65 834 -65 l 848 -65 q 883 -58 867 -65 q 918 -54 899 -52 q 1045 -1 981 -23 q 1176 39 1109 22 q 1196 57 1184 52 q 1221 66 1207 62 q 1248 71 1234 69 q 1274 77 1261 73 q 1288 87 1282 81 q 1303 98 1294 94 q 1324 103 1313 102 q 1348 106 1336 104 q 1369 113 1359 109 q 1386 126 1379 117 q 1425 109 1405 118 q 1458 81 1444 99 l 1459 77 z "},"D":{"ha":1261,"x_min":-111,"x_max":1268,"o":"m 1268 947 q 1248 804 1268 869 q 1196 680 1227 739 q 1127 562 1164 620 q 1058 438 1090 503 q 1046 434 1050 438 q 1041 424 1043 430 q 1036 413 1039 418 q 1024 408 1032 408 q 993 352 1012 378 q 953 300 974 326 q 912 250 932 275 q 878 194 892 224 l 864 194 q 699 4 791 88 q 499 -146 608 -80 q 491 -160 496 -155 q 488 -175 486 -165 q 463 -196 473 -183 q 444 -222 453 -209 q 424 -249 434 -236 q 397 -269 414 -262 q 359 -262 377 -264 q 321 -258 340 -259 q 305 -258 313 -258 q 290 -258 297 -259 q 265 -246 275 -255 q 236 -237 255 -237 q 221 -239 227 -237 q 196 -200 210 -220 q 182 -157 182 -180 q 186 -125 182 -140 q 191 -94 191 -110 q 180 -30 191 -61 q 168 34 168 1 q 171 55 168 45 q 174 76 174 65 q 163 98 174 88 q 168 111 164 104 q 172 126 172 118 q 174 150 175 137 q 172 174 172 163 q 175 231 172 202 q 187 286 178 259 q 183 301 186 294 l 178 315 q 190 378 187 343 q 193 449 193 414 l 193 521 q 197 587 193 556 q 203 614 199 601 q 206 639 206 627 q 202 659 206 650 q 191 675 198 667 q 202 687 201 678 q 203 703 203 696 q 197 745 203 722 q 203 791 202 768 q 205 838 205 815 q 195 998 205 920 q 182 1157 184 1077 l 178 1157 q 163 1153 168 1157 q 152 1144 157 1149 q 140 1136 146 1139 q 123 1134 133 1133 q 86 1101 107 1115 q 42 1077 65 1088 q -5 1057 19 1066 q -52 1040 -30 1048 q -84 1063 -71 1047 q -110 1095 -98 1078 q -111 1105 -111 1100 l -111 1116 q -94 1174 -111 1154 q -56 1221 -76 1194 l -49 1221 q -37 1218 -42 1221 q -26 1215 -33 1215 l -22 1215 q 62 1267 18 1248 q 153 1298 106 1287 q 195 1329 174 1318 q 244 1340 216 1340 q 260 1339 251 1340 q 275 1337 269 1339 q 380 1381 331 1363 q 495 1400 430 1400 q 507 1404 503 1400 q 513 1413 510 1408 q 518 1421 515 1417 q 528 1426 521 1426 q 529 1417 528 1423 q 536 1412 530 1412 q 546 1415 541 1412 q 557 1419 551 1419 q 567 1409 564 1419 q 595 1427 582 1419 q 625 1439 609 1435 q 667 1432 646 1435 q 709 1430 688 1430 q 742 1432 726 1430 q 770 1444 758 1434 q 776 1439 776 1446 q 802 1425 788 1428 q 830 1421 815 1421 q 860 1419 845 1420 q 887 1409 875 1417 q 905 1400 898 1407 q 922 1390 911 1394 q 945 1386 930 1388 q 966 1381 959 1385 q 973 1372 972 1378 q 981 1362 974 1366 q 1013 1350 993 1352 q 1048 1337 1034 1348 q 1078 1298 1054 1308 q 1126 1279 1103 1289 q 1131 1260 1134 1271 q 1160 1233 1147 1248 q 1185 1201 1173 1218 q 1207 1168 1196 1184 q 1233 1138 1218 1152 q 1236 1119 1232 1126 q 1238 1099 1241 1112 q 1268 1059 1255 1084 q 1260 1032 1260 1047 q 1264 1005 1260 1019 q 1268 978 1268 991 l 1268 947 m 1142 977 q 1127 1053 1142 1016 q 1101 1127 1112 1090 q 1079 1140 1084 1127 q 1062 1162 1074 1153 q 1029 1202 1036 1168 q 974 1226 1002 1213 q 926 1264 945 1240 q 828 1295 878 1279 q 727 1310 779 1310 q 710 1310 718 1310 q 696 1309 703 1309 q 673 1305 685 1309 q 650 1301 661 1301 q 625 1309 637 1301 q 566 1286 598 1294 q 502 1272 534 1278 q 438 1257 469 1265 q 382 1230 407 1248 q 367 1234 374 1233 q 353 1236 359 1236 q 334 1230 340 1236 q 329 1223 330 1227 q 328 1215 328 1219 q 324 1207 327 1210 q 313 1206 321 1204 q 313 1194 313 1199 q 312 1181 312 1188 q 319 1112 312 1146 q 327 1042 327 1077 q 326 1017 327 1029 q 320 991 324 1004 q 328 956 327 975 q 328 918 328 937 q 330 881 328 899 q 339 846 331 863 q 334 806 335 826 q 332 765 332 785 q 337 671 332 718 q 342 578 342 625 q 341 552 342 566 q 339 525 340 538 q 330 491 336 507 q 323 456 323 475 q 324 431 323 444 q 326 404 326 418 q 325 394 326 399 q 324 384 324 389 q 313 288 317 336 q 309 191 309 239 q 312 102 309 146 q 320 14 315 58 q 315 -8 315 4 q 324 -47 315 -27 q 353 -73 334 -66 q 433 -31 396 -57 q 509 23 471 -4 q 537 41 518 30 q 563 58 556 53 q 574 70 570 64 q 586 83 579 76 l 646 146 q 748 254 697 199 q 842 369 799 308 q 867 406 854 388 q 890 445 879 425 q 898 460 895 452 q 907 476 901 469 q 918 487 911 481 q 928 498 924 492 q 949 523 939 510 q 970 551 959 536 q 1025 638 1000 594 q 1082 726 1051 682 q 1093 777 1085 753 q 1109 823 1101 800 q 1123 869 1118 845 q 1126 924 1128 894 q 1137 937 1133 933 q 1142 954 1142 941 l 1142 977 z "},"E":{"ha":1326,"x_min":69,"x_max":1493,"o":"m 1493 1482 q 1493 1458 1493 1470 q 1491 1435 1492 1446 q 1475 1430 1487 1428 q 1457 1431 1463 1431 q 1445 1429 1450 1431 q 1440 1420 1440 1427 q 1442 1409 1440 1412 q 1419 1412 1431 1411 q 1397 1420 1407 1413 q 1361 1409 1378 1416 q 1328 1394 1344 1402 q 1294 1379 1312 1386 q 1257 1371 1276 1373 q 1226 1351 1245 1358 q 1187 1339 1207 1344 q 1149 1326 1166 1333 q 1120 1303 1131 1318 q 1063 1289 1090 1301 q 1010 1263 1036 1276 q 956 1237 983 1249 q 898 1221 929 1225 q 878 1207 890 1213 q 854 1197 867 1202 q 831 1187 842 1192 q 814 1172 821 1181 l 811 1172 q 803 1175 806 1172 q 795 1177 800 1177 q 789 1176 791 1177 q 724 1145 757 1161 q 656 1114 692 1128 q 517 1058 587 1085 q 381 991 446 1031 q 357 881 366 937 q 323 773 347 825 l 323 709 q 305 652 309 684 q 301 593 301 621 q 302 573 301 582 q 302 555 302 564 q 379 579 342 566 q 454 604 416 593 q 493 613 473 610 q 532 623 513 616 q 563 634 547 627 q 594 648 579 642 q 677 680 635 666 q 765 700 720 693 q 795 720 779 711 q 827 730 811 730 q 848 726 840 730 q 902 750 871 739 q 960 758 933 761 q 977 771 967 768 q 997 774 986 774 q 1007 774 1002 774 q 1019 773 1012 773 q 1048 787 1032 783 q 1081 793 1065 791 q 1113 801 1097 796 q 1141 817 1128 806 q 1171 806 1160 815 q 1191 783 1183 796 q 1204 754 1199 769 q 1218 726 1210 739 q 1210 709 1215 715 q 1198 697 1204 703 q 1185 686 1191 692 q 1179 671 1180 681 q 1087 658 1131 671 q 1000 627 1043 644 q 913 593 958 609 q 823 574 869 578 q 806 563 817 567 l 785 556 q 768 549 776 553 q 755 534 760 544 q 738 538 747 538 q 693 526 715 538 q 644 514 671 514 q 629 515 633 514 q 610 498 623 503 q 583 489 597 492 q 555 480 568 486 q 536 461 543 475 q 526 463 532 463 l 518 463 q 469 455 496 463 q 429 427 441 448 q 410 430 418 430 q 376 422 391 430 q 346 406 361 415 l 316 387 q 283 373 301 377 q 235 258 248 323 q 215 122 221 193 q 203 -18 209 52 q 182 -146 198 -88 q 194 -193 190 -168 q 201 -242 198 -217 q 206 -293 203 -267 q 216 -342 209 -319 q 242 -393 222 -370 q 270 -444 262 -415 q 284 -446 277 -445 q 300 -446 292 -446 q 386 -427 349 -446 q 456 -380 423 -408 q 519 -321 488 -353 q 585 -264 549 -289 l 610 -264 q 627 -241 620 -254 q 642 -218 633 -229 q 661 -200 650 -208 q 688 -190 671 -193 q 707 -159 692 -170 q 727 -126 722 -148 q 734 -127 730 -127 q 750 -122 745 -127 l 770 -103 q 794 -82 781 -92 q 819 -62 807 -72 q 898 -6 859 -34 q 970 58 937 22 q 974 57 971 57 q 989 64 985 57 q 1008 68 993 71 q 1023 93 1016 80 q 1034 121 1029 106 l 1077 115 q 1120 113 1099 113 q 1133 113 1127 113 q 1145 117 1139 114 q 1162 62 1161 91 q 1169 4 1164 33 q 1166 5 1166 4 q 1162 5 1165 5 q 1149 1 1156 5 q 1137 -11 1143 -4 l 1123 -24 q 1111 -35 1116 -31 q 1080 -52 1096 -45 q 1048 -68 1063 -60 q 1020 -87 1034 -76 q 998 -117 1006 -99 q 946 -140 971 -127 q 898 -165 921 -152 q 886 -179 891 -172 q 878 -194 880 -186 q 817 -231 841 -206 q 769 -283 793 -255 l 768 -282 q 756 -289 758 -282 q 741 -293 754 -296 q 686 -346 715 -321 q 628 -395 658 -370 q 568 -444 598 -419 q 513 -498 538 -469 q 479 -511 495 -503 q 454 -536 463 -519 l 450 -536 q 429 -543 435 -536 q 415 -560 423 -549 q 357 -575 387 -567 q 296 -583 327 -583 q 254 -575 274 -583 q 216 -554 235 -567 q 182 -526 198 -541 q 153 -498 167 -511 q 132 -441 145 -471 q 119 -385 119 -412 q 121 -372 119 -378 q 123 -361 123 -366 q 117 -353 123 -351 q 109 -346 111 -354 q 105 -315 106 -332 q 102 -283 104 -298 q 92 -220 98 -252 q 79 -156 85 -187 q 87 -147 84 -153 q 95 -136 91 -141 q 87 -112 91 -125 q 84 -85 84 -99 q 104 -45 84 -58 q 100 -31 104 -35 q 95 -15 95 -26 q 97 1 95 -12 q 102 30 99 14 q 109 61 106 46 q 113 81 111 76 q 129 204 122 144 q 148 326 136 264 q 113 342 134 336 q 84 359 92 349 q 73 384 77 369 q 69 410 69 399 q 100 473 69 449 q 167 500 132 496 q 193 597 184 548 q 208 697 202 647 l 218 799 q 235 901 224 850 l 227 901 q 174 892 199 901 q 121 884 148 884 l 118 884 q 79 959 79 916 q 90 1010 79 985 q 129 1032 111 1019 q 165 1060 146 1046 q 202 1085 183 1074 q 244 1099 221 1096 q 258 1177 247 1138 q 269 1256 269 1217 q 268 1272 269 1264 q 264 1289 267 1280 q 277 1314 274 1301 q 281 1343 281 1328 q 279 1375 281 1359 q 274 1405 277 1390 q 293 1417 286 1411 q 306 1428 300 1423 q 321 1438 312 1434 q 349 1442 331 1442 q 393 1432 374 1442 q 425 1405 411 1421 q 448 1369 438 1389 q 468 1328 458 1348 q 456 1306 465 1313 q 439 1289 446 1299 q 445 1247 442 1267 q 445 1206 448 1227 q 471 1199 458 1199 q 508 1210 491 1199 q 532 1240 525 1221 l 534 1240 q 542 1237 538 1240 q 551 1234 545 1234 l 556 1234 q 589 1255 571 1248 q 625 1270 606 1263 q 663 1284 644 1276 q 697 1303 681 1291 q 715 1299 705 1299 q 741 1305 728 1299 q 766 1316 754 1310 q 793 1328 779 1322 q 823 1333 807 1333 q 830 1333 826 1333 q 837 1332 834 1332 q 848 1339 846 1332 q 848 1351 849 1345 q 923 1376 891 1362 q 994 1409 955 1390 q 997 1411 994 1411 q 1002 1407 1001 1411 q 1004 1400 1004 1402 q 1013 1413 1012 1404 q 1019 1430 1013 1423 q 1034 1428 1024 1428 q 1059 1434 1046 1428 q 1084 1446 1072 1439 q 1108 1458 1096 1453 q 1133 1463 1120 1463 q 1150 1458 1143 1463 q 1166 1470 1158 1462 q 1184 1477 1175 1477 q 1189 1476 1187 1477 q 1194 1473 1191 1474 q 1206 1484 1200 1480 q 1213 1497 1213 1488 q 1305 1520 1263 1503 q 1388 1565 1348 1537 q 1417 1559 1402 1563 q 1446 1556 1431 1556 q 1461 1526 1454 1541 q 1491 1512 1468 1511 q 1493 1497 1492 1506 q 1493 1482 1493 1489 z "},"F":{"ha":1230,"x_min":14,"x_max":1481,"o":"m 1481 796 q 1474 751 1481 774 q 1455 709 1466 728 q 1423 697 1438 707 q 1401 685 1409 688 q 1360 683 1383 682 q 1317 682 1336 684 q 1244 674 1280 680 q 1173 661 1208 669 q 1168 660 1171 661 q 1165 656 1165 659 q 1166 651 1165 654 q 1168 646 1168 648 q 1160 642 1168 642 q 1139 651 1145 642 q 1053 629 1096 640 q 966 606 1009 617 q 923 598 944 602 q 880 587 902 594 q 859 578 869 585 l 837 564 q 825 566 830 566 q 814 567 819 567 q 765 558 791 567 q 720 534 739 549 l 711 534 q 692 538 697 534 q 677 531 680 540 q 667 515 674 522 q 576 499 621 511 q 488 473 532 487 q 401 444 445 458 q 312 422 357 430 q 307 359 307 395 q 311 297 307 332 q 332 237 316 262 l 332 235 q 327 225 332 228 q 321 216 321 222 q 329 149 321 180 q 345 88 336 118 q 360 28 353 58 q 368 -33 368 -1 q 367 -48 368 -41 q 365 -64 366 -56 q 378 -84 369 -76 q 395 -103 388 -92 q 396 -115 396 -110 l 396 -129 q 391 -170 396 -152 q 377 -203 385 -187 q 359 -234 369 -218 q 342 -269 350 -250 q 320 -271 328 -271 q 287 -260 300 -271 q 264 -234 274 -250 q 246 -202 255 -218 q 225 -175 237 -186 q 227 -163 227 -168 q 228 -151 228 -157 q 219 -98 228 -123 q 199 -49 210 -72 q 190 42 198 -3 q 167 130 182 87 q 171 162 170 146 q 172 193 172 178 q 168 271 172 232 q 167 350 164 311 q 159 361 163 357 q 152 373 155 366 l 146 373 q 107 370 126 373 q 69 366 88 366 q 57 367 62 366 q 45 369 52 368 q 22 403 30 384 q 14 442 14 422 q 30 496 14 472 q 97 516 64 505 q 161 544 130 528 q 166 585 165 564 q 180 623 167 605 q 168 642 176 633 q 159 663 159 651 q 161 681 159 670 q 180 719 175 696 q 190 768 186 742 q 199 819 194 793 q 216 865 203 845 q 212 889 213 876 q 210 913 210 902 q 212 946 210 929 q 220 978 214 963 q 195 1019 205 996 q 186 1066 186 1043 q 229 1123 186 1111 q 227 1133 228 1128 q 227 1141 227 1137 q 233 1164 227 1153 q 244 1185 240 1175 q 237 1215 237 1203 q 241 1235 237 1226 q 248 1255 245 1244 q 254 1279 252 1268 q 262 1298 256 1290 q 276 1310 267 1306 q 304 1314 285 1314 q 361 1296 334 1314 q 404 1255 389 1278 q 431 1261 419 1256 q 452 1270 442 1265 q 474 1277 463 1274 q 502 1279 486 1280 q 516 1292 506 1289 q 537 1297 526 1295 q 557 1303 548 1299 q 570 1318 567 1308 q 582 1314 575 1314 q 595 1316 589 1314 q 610 1318 602 1318 q 624 1313 618 1318 q 699 1341 659 1332 q 779 1351 739 1350 q 976 1421 872 1402 q 1184 1440 1080 1440 q 1213 1441 1199 1440 q 1241 1439 1227 1442 q 1274 1430 1256 1436 q 1311 1413 1293 1423 q 1345 1392 1329 1404 q 1373 1371 1362 1381 q 1383 1324 1383 1347 q 1382 1303 1383 1313 q 1381 1282 1381 1293 q 1388 1245 1381 1265 q 1374 1246 1383 1246 q 1354 1241 1362 1246 q 1339 1229 1345 1236 q 1326 1217 1332 1222 q 1314 1211 1320 1211 q 1296 1215 1303 1211 q 1281 1224 1289 1219 q 1265 1232 1274 1229 q 1246 1234 1257 1236 l 1246 1240 q 1237 1259 1246 1255 q 1222 1274 1227 1264 q 1182 1279 1202 1275 q 1142 1283 1162 1283 q 1100 1264 1115 1283 q 1088 1271 1093 1267 q 1076 1274 1084 1275 l 1072 1274 q 928 1258 998 1274 q 788 1220 857 1242 q 650 1172 719 1198 q 511 1127 581 1146 q 477 1095 495 1105 q 443 1078 460 1085 q 410 1065 426 1072 q 382 1043 393 1058 q 364 1002 370 1028 q 361 929 358 975 q 353 911 354 921 q 350 893 351 902 q 346 876 349 884 q 336 861 343 868 q 340 834 339 848 q 342 807 342 821 q 323 696 342 750 q 330 671 330 685 q 326 644 330 656 q 321 617 321 632 q 327 593 321 602 q 336 587 335 593 l 345 587 q 387 600 369 587 q 425 612 404 612 q 434 609 429 612 q 444 606 439 606 q 452 613 453 606 q 458 623 450 620 l 507 631 q 595 650 553 639 q 677 685 636 662 q 699 681 686 681 q 722 684 709 681 q 745 688 734 688 q 760 685 754 688 q 780 694 768 690 q 793 709 792 697 l 796 709 q 804 707 802 709 q 812 704 807 704 l 818 704 q 869 724 846 718 q 951 741 907 734 q 1028 768 994 749 q 1105 781 1067 768 q 1180 793 1142 793 q 1213 788 1198 793 q 1244 802 1226 798 q 1275 817 1263 806 q 1292 814 1283 815 q 1310 814 1301 814 q 1388 825 1351 814 q 1465 842 1426 837 q 1478 820 1474 831 q 1481 796 1481 808 z "},"G":{"ha":1367,"x_min":27,"x_max":1964,"o":"m 1964 632 q 1955 595 1961 616 q 1939 558 1949 575 q 1914 530 1929 541 q 1879 518 1899 518 q 1849 522 1864 518 q 1817 525 1834 525 q 1803 520 1811 525 q 1789 515 1796 515 q 1777 517 1782 515 q 1766 519 1773 519 q 1751 517 1762 519 q 1728 511 1740 514 q 1705 505 1716 509 q 1690 500 1694 502 q 1617 479 1653 488 q 1541 467 1580 469 q 1516 473 1533 469 q 1492 476 1500 476 q 1471 463 1476 476 q 1453 442 1466 449 q 1412 431 1436 433 q 1363 427 1388 430 q 1318 417 1339 425 q 1287 389 1297 410 q 1273 391 1280 391 q 1257 392 1265 392 q 1176 375 1214 392 q 1099 345 1138 358 q 1108 315 1105 332 q 1114 280 1111 297 q 1121 248 1116 263 q 1138 224 1126 232 q 1135 210 1138 216 q 1127 201 1131 205 l 1118 191 q 1112 179 1114 187 q 1108 146 1108 163 q 1089 121 1108 129 q 1090 106 1090 117 q 1086 80 1090 92 q 1084 53 1082 68 q 1045 0 1061 27 q 1021 -58 1029 -27 q 919 -159 971 -109 q 812 -258 867 -210 q 699 -348 757 -305 q 578 -423 640 -391 l 568 -423 q 519 -434 537 -423 q 475 -453 502 -445 q 426 -448 454 -448 q 393 -449 410 -448 q 358 -450 376 -450 q 317 -445 335 -450 q 281 -433 298 -439 q 247 -419 264 -426 q 209 -410 229 -412 q 76 -214 125 -326 q 27 16 27 -102 q 42 123 27 71 q 57 228 57 175 q 100 328 81 277 q 137 431 118 380 q 178 532 156 483 q 232 627 201 582 q 254 688 239 662 q 286 745 269 713 q 299 800 286 774 q 315 856 312 825 q 350 902 336 876 q 376 955 363 928 q 404 1007 388 982 q 446 1050 419 1032 q 450 1071 449 1059 q 456 1089 450 1082 l 484 1120 q 509 1156 498 1138 q 534 1190 521 1175 q 552 1203 543 1198 q 568 1215 562 1208 q 573 1233 575 1222 q 578 1251 571 1244 q 586 1256 581 1253 q 595 1261 591 1259 q 625 1286 613 1274 q 659 1303 637 1298 q 694 1333 678 1318 q 726 1360 709 1348 q 761 1380 742 1373 q 808 1388 780 1388 q 819 1387 814 1388 q 830 1386 825 1386 q 899 1260 886 1335 q 876 1219 884 1241 q 856 1176 867 1198 q 812 1152 833 1168 q 772 1120 792 1137 q 732 1092 753 1104 q 685 1080 711 1080 q 650 1049 674 1070 q 602 1005 627 1028 q 555 962 576 982 q 529 933 534 941 q 522 921 525 926 q 517 909 519 916 l 481 849 q 420 748 452 798 q 366 644 389 699 q 349 595 355 620 q 335 544 342 571 q 328 528 332 536 q 321 513 324 519 q 297 460 307 484 q 286 403 288 435 q 223 250 252 327 q 179 92 194 174 q 186 37 187 65 q 186 -18 186 9 q 191 -74 186 -52 q 204 -115 195 -96 q 224 -153 213 -133 q 247 -199 235 -172 q 283 -234 267 -216 q 315 -274 300 -252 q 419 -300 366 -300 q 496 -288 457 -300 q 573 -257 536 -275 q 646 -217 610 -239 q 713 -175 681 -195 q 812 -102 770 -141 q 889 -19 854 -62 q 954 74 924 24 q 1016 179 983 123 q 1021 195 1017 186 l 1029 216 q 1037 235 1034 227 q 1040 247 1040 244 q 1036 262 1040 258 q 1031 273 1031 267 q 1036 288 1031 283 q 1049 296 1042 292 q 1063 305 1057 300 q 1069 326 1069 311 q 1059 327 1066 327 q 1046 326 1053 327 q 1032 324 1039 324 q 1005 335 1016 324 q 991 326 998 332 q 979 313 985 320 q 967 301 972 307 q 958 296 962 296 q 947 298 951 296 q 939 301 944 301 q 898 290 916 301 q 860 273 880 279 q 852 273 856 273 q 844 274 848 274 q 814 269 829 274 q 787 259 800 264 q 761 250 774 254 q 734 247 747 245 q 679 224 704 236 q 621 214 654 212 q 602 205 612 210 q 582 194 591 201 q 570 191 574 191 q 559 198 563 191 q 530 181 548 186 q 494 173 513 176 q 458 165 475 170 q 431 146 441 160 q 396 159 416 159 q 357 151 376 159 q 316 144 338 144 q 305 146 308 144 q 293 176 300 161 q 271 198 286 191 q 267 227 269 213 q 264 255 264 241 q 286 321 264 292 q 325 333 305 328 q 363 345 345 338 q 393 340 378 342 q 423 339 408 339 q 532 353 479 339 q 636 384 585 368 q 735 411 685 399 q 836 438 785 423 q 929 466 883 450 q 1025 486 975 481 q 1105 517 1058 509 q 1191 534 1152 525 q 1314 565 1253 549 q 1439 593 1375 581 q 1577 629 1510 608 q 1712 675 1644 651 l 1725 675 q 1773 681 1748 675 q 1822 686 1797 686 q 1833 686 1828 686 q 1843 685 1838 685 q 1864 691 1847 685 q 1887 700 1880 697 q 1926 666 1904 681 q 1964 632 1948 651 z "},"H":{"ha":1255,"x_min":-7,"x_max":1282,"o":"m 1282 479 l 1282 469 q 1280 461 1282 465 q 1244 418 1265 433 q 1190 403 1222 403 q 1158 407 1168 403 q 1131 422 1147 411 q 1076 417 1107 419 q 1013 410 1044 415 q 954 397 982 406 q 907 373 926 389 q 895 186 895 279 q 891 0 894 94 q 906 -63 902 -28 q 911 -126 910 -98 q 926 -159 921 -142 q 937 -194 932 -176 q 950 -228 943 -212 q 970 -258 958 -244 q 989 -260 981 -258 q 1008 -264 998 -262 l 1008 -273 q 1020 -302 1008 -293 q 1047 -323 1032 -312 q 1051 -351 1051 -338 q 1041 -395 1051 -374 q 1008 -423 1031 -415 q 982 -420 994 -423 q 956 -416 970 -416 q 936 -419 947 -416 q 924 -412 929 -416 q 914 -403 920 -407 q 903 -396 909 -399 q 887 -395 897 -393 q 865 -359 880 -376 q 829 -346 850 -343 q 830 -330 830 -340 q 823 -294 830 -311 q 800 -269 815 -278 q 788 -200 793 -237 q 765 -136 783 -163 q 757 -60 765 -96 q 742 14 749 -24 q 747 62 747 35 q 746 100 747 81 q 745 136 745 118 q 747 173 745 155 q 761 209 750 191 q 750 237 753 222 q 747 266 747 251 q 750 311 747 289 l 755 354 q 746 355 753 355 q 723 350 732 355 l 703 340 q 690 342 696 342 l 678 342 q 638 336 658 342 q 604 315 618 330 q 511 306 557 315 q 420 285 465 297 q 330 258 374 273 q 240 233 285 244 q 224 127 229 180 q 218 18 218 73 l 218 -15 q 221 -49 218 -33 q 229 -68 222 -60 q 235 -88 235 -77 q 231 -103 235 -98 q 259 -132 240 -119 q 294 -125 279 -125 q 340 -136 319 -125 q 387 -152 362 -148 q 370 -189 381 -171 q 357 -229 359 -208 q 347 -232 351 -232 q 338 -233 342 -232 q 332 -237 334 -233 q 332 -254 330 -241 q 294 -267 313 -263 q 256 -271 275 -270 q 216 -273 236 -273 q 176 -274 197 -273 q 173 -261 176 -266 q 164 -254 170 -256 q 153 -250 159 -252 q 142 -243 146 -247 q 125 -218 132 -233 q 113 -185 119 -202 q 100 -152 107 -168 q 84 -122 94 -136 q 80 -64 81 -92 q 79 -5 79 -35 q 83 104 79 50 q 90 214 87 157 q 62 225 77 227 q 31 228 46 224 q 4 273 15 248 q -7 326 -7 298 q -3 354 -7 339 q 24 362 9 358 q 41 384 39 366 q 64 378 50 378 q 91 382 77 378 q 118 389 104 387 q 127 432 123 411 q 127 476 130 453 q 153 538 146 505 q 161 604 159 572 l 161 623 q 163 642 161 632 q 171 675 165 656 q 180 711 176 694 q 189 760 187 736 q 191 807 191 783 l 191 812 q 186 823 191 819 q 180 833 180 826 l 182 836 q 195 922 187 879 q 216 1006 202 964 q 205 1077 205 1038 q 221 1176 205 1128 q 213 1218 213 1198 q 215 1251 213 1234 q 216 1283 217 1267 q 238 1302 229 1290 q 259 1322 247 1314 q 328 1295 300 1324 q 355 1226 355 1267 q 338 1166 355 1195 q 343 1107 343 1141 q 336 1006 343 1057 q 332 905 330 956 q 325 859 324 886 q 323 812 326 831 q 315 774 320 793 q 308 735 309 754 q 306 673 307 704 q 298 613 305 642 q 291 595 296 602 q 283 578 286 587 q 280 520 278 549 q 279 461 282 491 q 275 442 278 452 q 271 422 271 433 q 274 408 271 416 q 519 445 397 419 q 765 490 642 471 q 774 526 774 507 q 770 548 774 537 q 791 638 784 593 q 804 728 799 684 q 814 819 810 773 q 825 909 818 864 l 833 955 q 844 1000 837 978 q 850 1016 846 1008 q 853 1031 853 1024 q 846 1040 853 1038 q 838 1047 838 1043 q 840 1050 838 1050 q 844 1050 842 1051 q 852 1076 850 1062 q 854 1103 853 1089 q 857 1129 854 1116 q 868 1153 860 1142 q 863 1171 867 1162 q 859 1190 859 1179 q 859 1192 857 1191 q 862 1213 861 1204 q 863 1234 863 1222 q 878 1260 863 1251 q 868 1310 871 1283 q 865 1363 865 1337 q 882 1422 865 1398 q 939 1446 899 1446 q 977 1438 959 1446 q 1008 1415 996 1430 q 1015 1356 1015 1383 q 1013 1320 1015 1337 q 1010 1284 1010 1303 q 1013 1257 1010 1270 q 1019 1230 1016 1244 q 1001 1188 1006 1211 q 994 1141 996 1165 q 991 1091 991 1116 q 989 1046 990 1066 q 976 958 985 1001 q 956 871 967 914 q 960 844 960 856 q 954 795 960 819 q 949 749 947 772 q 937 699 940 724 q 933 647 935 674 l 930 594 q 921 544 929 568 q 931 536 924 537 q 936 525 939 536 q 1002 534 967 534 q 1069 533 1038 533 q 1109 534 1089 533 q 1150 538 1130 534 q 1192 551 1171 544 q 1233 559 1213 559 q 1276 538 1261 559 q 1280 509 1279 524 q 1282 479 1282 494 z "},"I":{"ha":519,"x_min":98,"x_max":408,"o":"m 408 -68 q 393 -107 408 -90 q 368 -141 378 -125 q 332 -153 349 -151 q 296 -161 315 -155 q 281 -171 289 -163 q 259 -162 270 -170 q 237 -152 248 -155 q 199 -145 222 -146 q 164 -132 175 -144 q 132 -81 145 -113 q 112 -15 119 -50 q 101 55 104 20 q 98 115 98 90 q 103 202 98 159 q 119 286 109 245 l 119 293 q 120 304 119 300 q 121 316 121 309 q 120 324 121 320 q 115 331 119 328 q 141 423 133 376 q 154 519 149 471 q 165 615 159 567 q 183 709 171 663 q 181 727 182 718 q 180 745 180 736 q 186 793 180 769 q 193 842 191 817 q 193 859 194 850 q 191 878 191 868 q 197 994 191 937 q 203 1109 203 1051 q 199 1170 203 1141 q 194 1229 194 1199 q 195 1255 194 1242 q 203 1279 197 1268 q 274 1299 233 1299 q 326 1283 304 1299 q 324 1275 324 1280 q 326 1263 324 1268 q 327 1251 327 1257 l 327 1245 q 326 1240 327 1242 q 338 1205 335 1223 q 342 1168 342 1187 q 340 1133 342 1150 q 339 1099 339 1116 q 340 1050 339 1074 q 340 1001 340 1025 q 334 873 340 936 q 326 745 328 810 q 311 636 323 689 q 296 529 300 583 q 295 508 294 518 q 296 486 296 498 q 283 424 296 454 q 271 359 271 393 q 277 331 271 343 q 262 279 269 309 q 252 218 256 250 q 244 155 247 186 q 241 102 241 125 q 250 36 241 69 q 277 -24 258 3 q 309 -28 290 -28 q 347 -30 328 -28 q 382 -37 366 -31 q 407 -58 399 -42 q 408 -64 408 -61 l 408 -68 z "},"J":{"ha":1107,"x_min":-180,"x_max":1176,"o":"m 1176 1366 q 1138 1329 1157 1347 q 1108 1283 1119 1310 q 1074 1276 1092 1280 q 1040 1272 1057 1272 q 1019 1276 1029 1272 q 997 1279 1008 1279 q 987 1270 987 1279 q 982 1255 987 1260 q 959 1260 971 1259 q 935 1261 947 1261 q 878 1253 906 1261 q 823 1232 850 1244 q 769 1208 796 1221 q 713 1190 742 1196 q 715 1183 715 1188 q 709 1167 715 1173 q 704 1152 704 1161 l 704 1147 q 736 1080 720 1112 q 768 1012 753 1047 q 781 978 776 994 q 793 943 787 962 q 803 928 796 932 q 817 918 810 925 q 814 903 814 910 q 826 854 814 878 q 838 806 838 830 q 836 788 838 799 q 859 735 852 765 q 871 675 865 705 q 882 615 876 644 q 905 563 888 586 q 892 528 895 547 q 890 491 890 510 q 899 404 890 448 q 907 316 907 359 q 901 267 907 286 q 914 237 903 247 q 910 215 909 228 q 905 193 911 202 q 911 142 911 165 q 903 75 911 109 q 894 7 894 42 q 895 -12 894 -3 q 901 -31 897 -20 q 890 -41 898 -39 q 880 -50 883 -43 l 880 -54 q 876 -90 880 -75 q 864 -119 871 -106 l 852 -148 q 842 -180 846 -163 q 775 -217 807 -199 q 713 -264 743 -235 q 697 -266 708 -266 q 678 -265 688 -266 q 658 -264 669 -264 q 627 -269 643 -264 q 574 -239 605 -248 q 515 -216 543 -231 q 494 -194 506 -203 l 469 -175 q 446 -156 457 -165 q 427 -132 435 -146 l 408 -132 q 409 -129 408 -130 q 410 -126 410 -127 q 403 -118 410 -119 q 399 -109 396 -117 q 372 -80 382 -96 q 350 -47 361 -64 q 328 -14 339 -30 q 301 14 317 1 l 301 16 q 297 25 301 23 q 296 38 293 27 q 259 98 274 66 q 231 162 244 129 q 205 228 218 195 q 175 290 193 260 q 172 317 172 304 l 172 345 q 179 420 172 384 q 205 490 186 456 q 230 492 216 492 q 256 491 244 491 q 280 493 269 491 q 301 505 292 495 q 304 497 300 499 q 312 495 308 495 q 325 497 319 495 q 338 499 331 499 q 345 498 340 499 q 350 490 350 496 q 365 496 358 492 q 380 505 372 500 q 434 474 403 484 q 498 455 465 464 q 562 436 530 446 q 617 407 593 426 q 624 378 624 393 q 605 338 624 355 q 564 315 586 321 q 494 346 533 336 q 422 373 456 355 q 363 361 395 362 q 301 358 331 361 q 296 339 294 353 q 292 319 298 326 q 338 216 309 266 q 389 115 366 167 q 399 104 392 107 q 412 96 406 100 l 412 92 q 416 81 412 84 q 418 66 420 77 q 441 49 434 64 q 457 23 449 34 q 469 11 463 16 q 480 -1 475 5 q 530 -56 503 -27 q 587 -99 557 -84 q 595 -102 591 -102 q 602 -103 598 -102 q 635 -119 617 -111 q 671 -126 652 -126 q 691 -122 681 -126 q 704 -109 701 -118 q 714 -81 711 -96 q 720 -52 718 -65 q 741 27 731 -12 q 758 106 751 66 q 754 141 755 123 q 753 176 753 159 q 755 239 753 208 q 757 301 757 270 q 753 357 757 330 q 739 412 750 385 q 746 420 742 418 q 750 430 750 423 q 745 452 750 438 q 734 471 741 467 q 743 505 743 484 q 736 551 743 528 q 730 597 730 574 q 734 627 730 612 q 724 636 734 636 q 713 646 715 636 q 714 651 713 648 q 715 656 715 654 q 710 690 715 674 q 704 723 705 705 q 686 757 692 736 q 675 798 681 777 q 663 838 670 819 q 642 869 656 857 q 637 906 642 887 q 613 933 632 925 q 591 991 605 964 q 555 1040 578 1019 q 542 1090 555 1073 q 510 1131 529 1108 q 448 1119 479 1128 q 385 1109 416 1109 q 370 1110 377 1109 q 354 1112 362 1111 q 346 1099 347 1108 q 345 1084 345 1090 q 297 1075 320 1081 q 250 1063 274 1069 q 203 1053 227 1057 q 156 1050 180 1048 q 129 1025 146 1031 q 92 1016 111 1019 q 53 1009 72 1013 q 23 991 34 1005 q 9 997 18 997 q -12 991 -1 997 q -34 986 -22 986 q -49 991 -43 986 q -70 981 -58 985 q -88 967 -81 978 q -129 985 -111 971 q -158 1017 -146 998 q -175 1059 -170 1036 q -180 1103 -180 1081 q -155 1123 -172 1118 q -126 1142 -137 1128 q -108 1135 -117 1138 q -88 1131 -99 1131 q -65 1137 -75 1131 q -45 1142 -56 1142 q -30 1138 -38 1142 q -7 1148 -20 1146 q 20 1152 7 1150 q 43 1158 33 1154 q 58 1176 54 1162 q 84 1172 71 1172 q 117 1177 100 1172 q 146 1187 133 1181 q 171 1197 160 1192 q 186 1202 182 1202 q 199 1198 193 1202 q 213 1195 206 1195 q 239 1203 227 1195 q 263 1219 252 1211 q 283 1214 274 1214 q 322 1225 302 1214 q 365 1236 342 1236 q 380 1234 374 1236 q 455 1261 411 1249 q 534 1274 499 1274 q 579 1297 553 1290 q 632 1308 605 1303 q 686 1318 659 1312 q 734 1341 712 1325 q 750 1338 741 1339 q 764 1332 760 1337 q 773 1341 770 1335 q 777 1355 776 1348 q 783 1356 779 1356 q 788 1351 789 1356 q 793 1345 787 1345 q 808 1350 798 1345 q 833 1360 818 1355 q 865 1371 848 1366 q 899 1375 883 1375 l 905 1375 l 911 1377 q 926 1381 918 1379 q 942 1386 935 1383 q 952 1389 949 1389 q 1014 1405 982 1398 q 1077 1412 1046 1412 q 1133 1402 1107 1412 q 1176 1366 1158 1392 z "},"K":{"ha":1061,"x_min":-91,"x_max":1902,"o":"m 1902 -304 q 1895 -332 1902 -319 q 1839 -353 1868 -347 q 1781 -359 1809 -359 q 1752 -359 1767 -359 q 1724 -355 1736 -358 q 1714 -350 1720 -354 q 1704 -346 1709 -346 q 1678 -351 1690 -346 q 1652 -355 1666 -355 q 1639 -351 1645 -355 q 1626 -346 1633 -347 q 1607 -345 1617 -343 q 1587 -346 1598 -346 q 1560 -342 1572 -346 q 1539 -327 1549 -338 q 1473 -314 1506 -323 q 1408 -295 1440 -305 q 1343 -276 1375 -285 q 1276 -264 1310 -267 q 1257 -250 1268 -255 q 1241 -235 1246 -245 q 1232 -237 1234 -235 q 1222 -239 1229 -239 q 1173 -206 1199 -220 q 1118 -180 1146 -193 q 1064 -155 1090 -168 q 1015 -122 1038 -142 l 1008 -122 q 989 -117 997 -123 q 971 -111 982 -111 q 960 -113 964 -111 q 948 -95 956 -102 q 931 -82 940 -88 q 914 -70 922 -76 q 902 -54 906 -64 q 836 -25 868 -42 q 780 19 804 -8 q 735 36 753 22 q 703 72 718 50 q 643 100 670 83 q 589 137 616 118 q 534 172 563 156 q 468 194 505 187 q 460 208 467 203 q 444 216 453 213 q 427 222 435 220 q 415 233 419 225 q 407 234 411 233 q 399 235 403 235 q 390 234 395 235 q 381 233 385 233 l 382 237 q 379 244 382 243 q 370 247 376 245 q 361 251 365 248 q 357 263 357 254 l 353 263 q 326 269 338 263 q 298 277 313 274 q 296 248 296 262 l 296 224 q 309 96 296 163 q 351 -24 323 28 q 400 -53 380 -35 q 439 -94 420 -71 q 413 -155 441 -130 q 349 -180 385 -180 q 311 -170 328 -180 q 283 -141 294 -160 q 269 -144 275 -141 q 252 -148 262 -148 q 244 -146 248 -148 q 218 -106 231 -123 q 201 -58 205 -88 q 182 -34 186 -52 q 167 -5 179 -16 q 153 117 161 56 q 144 239 144 178 q 145 267 144 252 q 148 296 146 281 q 140 309 145 302 q 133 321 136 315 q 77 309 106 315 q 18 302 47 302 q -28 309 -1 302 q -71 326 -56 315 q -86 351 -81 332 q -91 382 -91 369 q -83 429 -91 406 q -61 471 -75 453 q 63 537 5 498 q 176 623 121 576 q 181 650 178 636 q 184 678 184 663 q 176 709 184 694 q 184 730 184 718 q 191 754 184 743 l 191 762 q 191 773 191 768 q 186 784 190 779 q 201 889 195 837 q 206 997 206 941 q 211 1019 206 1001 q 217 1044 216 1038 q 224 1106 222 1076 q 231 1168 227 1137 q 236 1196 232 1179 q 240 1221 240 1214 q 237 1234 240 1230 q 231 1245 233 1237 q 239 1308 239 1276 q 244 1371 240 1340 q 281 1390 267 1381 q 320 1400 294 1400 l 323 1400 q 335 1369 326 1383 q 355 1341 345 1355 q 373 1314 365 1326 q 381 1289 381 1301 q 377 1238 381 1265 q 370 1188 373 1211 q 358 1068 363 1127 q 342 948 353 1009 q 346 913 346 929 q 342 864 346 888 q 338 814 338 840 q 340 788 338 802 q 347 764 342 774 q 430 814 393 776 q 441 828 435 819 q 454 842 448 837 q 484 862 468 853 q 514 880 499 871 q 583 928 549 903 q 650 978 616 954 q 844 1131 750 1051 q 1028 1298 939 1210 q 1044 1335 1032 1321 q 1066 1367 1057 1348 q 1111 1396 1092 1377 q 1128 1392 1119 1393 q 1145 1392 1137 1392 q 1163 1391 1154 1392 q 1179 1386 1172 1390 q 1183 1350 1180 1366 q 1199 1318 1185 1333 q 1200 1313 1199 1316 q 1200 1308 1200 1310 q 1192 1283 1200 1293 q 1183 1260 1184 1274 l 1112 1190 q 1047 1114 1077 1154 q 1028 1107 1036 1112 q 1013 1095 1020 1101 q 997 1084 1005 1089 q 979 1076 989 1078 q 924 1017 955 1043 q 860 966 892 990 q 795 916 827 941 q 736 861 764 891 q 682 829 708 848 q 639 784 655 811 l 632 784 q 621 781 625 784 q 610 777 617 777 q 458 657 537 713 q 308 534 380 601 l 308 500 q 358 475 331 487 q 412 450 385 464 q 462 421 438 437 q 503 384 486 406 q 510 385 506 385 q 529 378 522 385 q 552 373 536 370 q 576 342 557 351 q 614 326 595 332 q 644 295 631 309 q 684 277 658 281 q 688 264 686 271 q 693 252 689 258 q 743 229 719 244 q 789 199 766 214 q 836 169 812 183 q 887 146 860 155 q 903 127 891 133 q 921 111 914 122 l 945 111 q 956 98 949 104 q 966 81 963 92 q 990 74 977 79 q 1015 62 1004 69 q 1021 53 1019 58 q 1028 43 1023 47 q 1053 33 1036 37 q 1082 23 1070 30 q 1130 -7 1107 9 q 1179 -39 1153 -24 l 1232 -68 q 1257 -83 1245 -75 q 1280 -98 1268 -91 q 1333 -112 1305 -109 q 1383 -126 1360 -115 q 1393 -136 1390 -130 q 1402 -146 1396 -142 q 1436 -156 1413 -153 q 1474 -165 1459 -159 q 1512 -181 1493 -174 q 1549 -199 1530 -189 q 1630 -209 1590 -202 q 1709 -222 1670 -216 q 1788 -235 1748 -229 q 1869 -239 1828 -240 q 1872 -242 1869 -241 q 1879 -243 1876 -243 q 1895 -273 1888 -258 q 1902 -304 1902 -288 z "},"L":{"ha":1200,"x_min":69,"x_max":1352,"o":"m 1352 311 q 1343 267 1352 283 q 1324 228 1335 250 q 1317 229 1321 229 q 1302 225 1309 229 q 1289 218 1295 221 q 1208 134 1249 175 q 1116 62 1166 94 q 1089 47 1103 54 q 1061 33 1076 39 q 1050 28 1055 30 q 1042 23 1046 26 q 1022 5 1032 18 q 999 -20 1012 -7 q 971 -41 986 -33 q 939 -49 956 -50 q 920 -66 928 -56 q 901 -88 911 -77 q 794 -142 842 -109 q 694 -206 746 -175 q 632 -239 663 -227 q 616 -243 625 -241 q 598 -247 608 -244 q 508 -264 553 -258 q 416 -271 463 -271 q 307 -258 359 -271 q 304 -252 307 -254 q 298 -250 301 -251 q 292 -246 294 -248 q 292 -239 289 -244 q 239 -224 262 -236 q 210 -180 217 -212 q 203 -187 206 -183 q 194 -190 201 -191 q 152 -140 175 -163 q 118 -84 129 -117 q 115 -71 115 -77 q 113 -58 114 -65 q 88 -39 106 -39 q 91 -26 91 -34 q 90 -18 91 -22 q 90 -9 90 -14 q 94 4 90 -3 q 75 66 80 35 q 69 129 69 96 q 73 212 69 171 q 77 296 77 254 q 90 334 85 312 q 107 369 95 355 q 102 378 106 377 q 98 385 98 378 q 107 438 98 410 q 117 496 117 467 q 132 517 129 503 q 146 538 136 530 l 146 545 q 151 586 146 566 q 161 626 156 606 q 169 665 165 646 q 171 704 172 685 q 178 720 174 708 q 188 744 183 731 q 196 769 193 757 q 199 787 199 781 q 197 802 199 795 q 194 817 194 808 q 198 836 194 823 q 205 857 202 849 q 215 905 210 880 q 224 954 220 930 q 241 1103 236 1028 q 248 1255 247 1179 q 288 1275 267 1265 q 332 1284 309 1284 q 346 1283 339 1284 q 359 1279 353 1282 q 381 1236 366 1252 q 408 1196 396 1219 q 397 1152 400 1175 l 393 1105 q 388 1060 392 1082 q 374 1017 384 1038 q 377 1004 377 1010 l 377 990 q 374 954 377 971 q 366 918 370 936 q 359 882 362 899 q 359 846 357 864 q 351 836 355 840 q 346 826 347 833 l 343 800 q 338 771 340 785 q 334 742 336 757 q 313 661 324 701 q 301 576 301 620 l 301 568 q 282 522 289 549 q 278 471 275 494 q 250 393 263 431 q 236 315 236 355 q 237 300 236 308 q 239 286 237 293 q 225 231 228 259 q 222 176 222 203 q 224 132 222 157 q 231 81 227 107 q 243 30 236 54 q 258 -9 250 5 q 340 -89 289 -60 q 448 -126 391 -118 q 485 -117 471 -118 q 525 -117 499 -115 q 569 -100 547 -106 q 614 -88 591 -95 q 629 -83 621 -85 q 642 -77 636 -80 q 656 -65 648 -75 q 671 -49 665 -56 q 726 -26 700 -41 q 776 3 751 -12 l 826 33 q 880 58 852 47 q 893 70 891 62 q 901 88 895 77 q 909 85 903 85 q 932 96 925 85 q 948 117 939 106 q 982 127 966 119 q 1006 151 998 134 q 1066 175 1040 157 q 1116 214 1092 193 q 1165 254 1141 235 q 1221 286 1190 274 q 1226 298 1225 293 q 1230 311 1227 304 q 1267 323 1253 313 q 1298 345 1280 334 q 1352 311 1336 340 z "}}}
